<svg xmlns="http://www.w3.org/2000/svg" width="237.224" height="266.277" viewBox="69 325 237.224 266.277"><g data-name="Group 5221"><g data-name="Group 5220" transform="translate(69 325)" clip-path="url(&quot;#a&quot;)"><path d="M197.846 80.118c0 43.761-35.475 79.236-79.235 79.236-43.761 0-79.236-35.475-79.236-79.236C39.375 36.358 74.85.883 118.61.883c43.76 0 79.235 35.475 79.235 79.235" fill="#fff" fill-rule="evenodd" data-name="Path 2527"/><path d="M118.61 160.237c-21.4 0-41.52-8.333-56.652-23.466-15.132-15.132-23.466-35.252-23.466-56.652s8.334-41.52 23.466-56.653C77.091 8.334 97.21 0 118.611 0c21.4 0 41.52 8.334 56.652 23.466C190.396 38.6 198.73 58.718 198.73 80.12c0 21.4-8.333 41.52-23.466 56.652-15.132 15.133-35.252 23.466-56.652 23.466m0-158.471c-43.204 0-78.353 35.149-78.353 78.353 0 43.203 35.149 78.352 78.353 78.352 43.203 0 78.352-35.149 78.352-78.352 0-43.204-35.149-78.353-78.352-78.353" fill="#1c345a" fill-rule="evenodd" data-name="Path 2528"/><path d="M118.61 153.804c-19.682 0-38.186-7.665-52.103-21.582-13.917-13.917-21.582-32.421-21.582-52.103 0-19.682 7.665-38.186 21.582-52.104C80.424 14.098 98.928 6.433 118.611 6.433c19.682 0 38.186 7.665 52.103 21.582 13.917 13.918 21.582 32.422 21.582 52.104 0 19.682-7.665 38.186-21.582 52.103-13.917 13.917-32.421 21.582-52.103 21.582" fill="#1c345a" fill-rule="evenodd" data-name="Path 2529"/><path d="M118.61 154.687c-19.917 0-38.643-7.757-52.727-21.84-14.084-14.085-21.84-32.81-21.84-52.729 0-19.918 7.756-38.643 21.84-52.727C79.967 13.306 98.693 5.55 118.61 5.55s38.643 7.756 52.727 21.84c14.085 14.085 21.841 32.81 21.841 52.728s-7.756 38.644-21.84 52.728c-14.084 14.084-32.81 21.84-52.728 21.84m0-147.37c-19.447 0-37.729 7.573-51.48 21.323-13.75 13.75-21.323 32.033-21.323 51.48 0 19.446 7.573 37.728 21.323 51.479 13.751 13.75 32.033 21.323 51.48 21.323 19.446 0 37.728-7.573 51.479-21.323 13.75-13.751 21.323-32.033 21.323-51.48 0-19.446-7.573-37.728-21.323-51.479-13.75-13.75-32.033-21.323-51.48-21.323" fill="#1c345a" fill-rule="evenodd" data-name="Path 2530"/><path d="M149.532 53.604c0 17.077-13.844 36.332-30.921 36.332-17.078 0-30.922-19.255-30.922-36.332s13.844-30.921 30.922-30.921c17.077 0 30.92 13.844 30.92 30.92" fill="#fff" fill-rule="evenodd" data-name="Path 2531"/><path d="M118.61 90.82c-17.91 0-31.804-20.006-31.804-37.216 0-17.537 14.268-31.804 31.805-31.804s31.804 14.267 31.804 31.804c0 17.21-13.893 37.215-31.804 37.215m0-67.253c-16.564 0-30.039 13.475-30.039 30.038 0 8.148 3.313 17.126 8.862 24.016 5.937 7.373 13.458 11.433 21.177 11.433 7.718 0 15.24-4.06 21.177-11.433 5.548-6.89 8.86-15.868 8.86-24.016 0-16.563-13.474-30.038-30.037-30.038" fill="#1c345a" fill-rule="evenodd" data-name="Path 2532"/><path d="M114.127 54.465c0 7.678-6.224 13.901-13.901 13.901-7.678 0-13.901-6.223-13.901-13.9 0-7.678 6.223-13.902 13.9-13.902 7.678 0 13.902 6.224 13.902 13.901" fill="#1c345a" fill-rule="evenodd" data-name="Path 2533"/><path d="M100.226 69.25c-8.152 0-14.785-6.633-14.785-14.785 0-8.152 6.633-14.784 14.785-14.784 8.152 0 14.784 6.632 14.784 14.784 0 8.152-6.632 14.785-14.784 14.785m0-27.803c-7.178 0-13.019 5.84-13.019 13.018 0 7.178 5.84 13.019 13.019 13.019 7.178 0 13.018-5.84 13.018-13.019 0-7.178-5.84-13.018-13.018-13.018" fill="#fff" fill-rule="evenodd" data-name="Path 2534"/><path d="M150.897 54.465c0 7.678-6.224 13.902-13.902 13.902-7.677 0-13.9-6.224-13.9-13.902 0-7.677 6.223-13.9 13.9-13.9 7.678 0 13.902 6.223 13.902 13.9" fill="#1c345a" fill-rule="evenodd" data-name="Path 2535"/><path d="M136.995 69.25c-8.152 0-14.784-6.633-14.784-14.785 0-8.152 6.632-14.784 14.784-14.784 8.152 0 14.785 6.632 14.785 14.784 0 8.152-6.633 14.784-14.785 14.784m0-27.802c-7.178 0-13.018 5.84-13.018 13.018 0 7.178 5.84 13.018 13.018 13.018 7.178 0 13.019-5.84 13.019-13.018 0-7.178-5.84-13.018-13.019-13.018" fill="#fff" fill-rule="evenodd" data-name="Path 2536"/><path d="M236.159 114.422c0 17.184-52.628 31.115-117.548 31.115S1.062 131.607 1.062 114.422c0-17.184 52.628-31.114 117.549-31.114 64.92 0 117.548 13.93 117.548 31.114" fill="#fff" fill-rule="evenodd" data-name="Path 2537"/><path d="M118.61 146.42c-31.472 0-61.07-3.247-83.345-9.143C12.64 131.288.18 123.172.18 114.422c0-8.749 12.46-16.865 35.086-22.854 22.274-5.896 51.873-9.143 83.346-9.143 31.472 0 61.071 3.247 83.345 9.142 22.626 5.99 35.086 14.106 35.086 22.855 0 8.75-12.46 16.866-35.086 22.855-22.274 5.896-51.873 9.143-83.345 9.143m0-62.23c-31.325 0-60.763 3.227-82.894 9.085-21.462 5.68-33.772 13.389-33.772 21.147 0 7.76 12.31 15.467 33.772 21.148 22.13 5.858 51.57 9.084 82.894 9.084 31.324 0 60.763-3.226 82.893-9.084 21.463-5.681 33.772-13.389 33.772-21.148 0-7.758-12.31-15.466-33.772-21.147-22.13-5.858-51.57-9.084-82.893-9.084" fill="#1c345a" fill-rule="evenodd" data-name="Path 2538"/><path d="M229.32 107.616c-73.235-10.534-148.183-10.534-221.418 0-3.15.451-5.791 2.551-6.645 5.386l-.017.055c-2.56 8.528 8.795 20.236 30.319 29.626 21.398 9.372 52.489 16.876 87.052 16.671 34.563.205 65.653-7.3 87.051-16.672 21.524-9.39 32.88-21.097 30.319-29.625l-.016-.055c-.854-2.834-3.496-4.935-6.645-5.386" fill="#1c345a" fill-rule="evenodd" data-name="Path 2539"/><path d="M117.26 160.241c-30.405 0-61.7-6.082-86.055-16.75-21.498-9.378-33.592-21.424-30.81-30.688l.016-.056c.947-3.142 3.838-5.5 7.365-6.005a778.131 778.131 0 0 1 221.67 0c3.527.505 6.417 2.863 7.364 6.005l.02.069c2.778 9.25-9.316 21.297-30.814 30.676-24.354 10.666-55.651 16.749-86.065 16.75-.45 0-.896-.002-1.345-.005-.449.003-.898.004-1.346.004m1.346-1.77c30.603.185 62.205-5.868 86.702-16.597 20.31-8.86 32.297-20.34 29.827-28.563l.835-.29-.846.255c-.754-2.507-3.08-4.378-5.93-4.786a776.749 776.749 0 0 0-110.583-7.916c-36.952 0-73.89 2.638-110.584 7.916-2.85.408-5.176 2.28-5.925 4.767l-.015.05c-2.47 8.228 9.516 19.706 29.825 28.566 24.498 10.73 56.09 16.788 86.694 16.598" fill="#1c345a" fill-rule="evenodd" data-name="Path 2540"/><path d="M168.315 150.491c0 6.51-21.545 11.789-48.121 11.789-26.577 0-48.121-5.278-48.121-11.789 0-6.51 21.544-11.789 48.12-11.789 26.577 0 48.122 5.278 48.122 11.79" fill="#fff" fill-rule="evenodd" data-name="Path 2541"/><path d="M120.194 163.163c-12.923 0-25.081-1.235-34.237-3.478-6.737-1.65-14.767-4.585-14.767-9.194 0-4.608 8.03-7.543 14.767-9.193 9.156-2.243 21.314-3.479 34.237-3.479 12.922 0 25.081 1.236 34.237 3.478 6.737 1.65 14.767 4.585 14.767 9.194 0 4.609-8.03 7.543-14.767 9.194-9.156 2.243-21.315 3.478-34.237 3.478m0-23.578c-12.785 0-24.795 1.218-33.817 3.428-8.404 2.059-13.421 4.854-13.421 7.478 0 2.624 5.017 5.42 13.421 7.478 9.022 2.21 21.032 3.428 33.817 3.428s24.794-1.217 33.816-3.428c8.405-2.059 13.422-4.854 13.422-7.478 0-2.624-5.017-5.42-13.422-7.478-9.022-2.21-21.031-3.428-33.816-3.428" fill="#1c345a" fill-rule="evenodd" data-name="Path 2542"/><path d="M120.194 157.99c-11.381 0-22.32-1.002-30.804-2.824-3.426-.735-6.031-1.513-7.983-2.242-2.25-.84-2.25-4.026 0-4.866 1.952-.729 4.557-1.507 7.983-2.243 8.483-1.82 19.422-2.824 30.804-2.824 11.38 0 22.32 1.003 30.803 2.824 3.426.736 6.032 1.514 7.983 2.243 2.251.84 2.251 4.025 0 4.866-1.951.729-4.557 1.507-7.983 2.242-8.482 1.822-19.422 2.825-30.803 2.825" fill="#1c345a" fill-rule="evenodd" data-name="Path 2543"/><path d="M120.194 158.874c-11.442 0-22.448-1.01-30.989-2.844-3.132-.673-5.86-1.44-8.107-2.28a3.45 3.45 0 0 1-2.262-3.259c0-1.467.888-2.747 2.262-3.26 2.247-.84 4.975-1.606 8.107-2.279 8.541-1.834 19.547-2.844 30.989-2.844s22.447 1.01 30.989 2.844c3.132.673 5.86 1.44 8.107 2.279a3.451 3.451 0 0 1 2.262 3.26 3.452 3.452 0 0 1-2.263 3.26c-2.247.84-4.974 1.606-8.107 2.279-8.54 1.834-19.546 2.844-30.988 2.844m0-15c-11.322 0-22.195.996-30.618 2.805-3.049.654-5.693 1.397-7.86 2.206-.821.307-1.114 1.03-1.114 1.606 0 .575.293 1.3 1.114 1.606 2.167.81 4.812 1.551 7.86 2.206 8.423 1.809 19.297 2.805 30.618 2.805 11.321 0 22.195-.996 30.618-2.805 3.048-.655 5.692-1.397 7.86-2.206.82-.307 1.114-1.03 1.114-1.606 0-.575-.293-1.3-1.115-1.606-2.166-.81-4.81-1.552-7.859-2.206-8.423-1.809-19.297-2.805-30.618-2.805" fill="#1c345a" fill-rule="evenodd" data-name="Path 2544"/><path d="M136.814 151.967c0 1.92-7.441 3.478-16.62 3.478-9.18 0-16.62-1.557-16.62-3.478 0-1.921 7.44-3.479 16.62-3.479 9.179 0 16.62 1.558 16.62 3.479" fill="#fff" fill-rule="evenodd" data-name="Path 2545"/><path d="M120.194 156.328c-4.499 0-8.736-.368-11.933-1.037-3.749-.785-5.57-1.872-5.57-3.324 0-1.453 1.822-2.54 5.57-3.325 3.197-.668 7.434-1.037 11.933-1.037 4.498 0 8.736.369 11.933 1.037 3.748.785 5.57 1.872 5.57 3.325 0 1.452-1.822 2.539-5.57 3.324-3.197.669-7.435 1.037-11.933 1.037m-15.72-4.361c.124.172.882.963 4.577 1.682 3.03.589 6.987.913 11.143.913 4.156 0 8.113-.324 11.142-.913 3.696-.72 4.454-1.51 4.578-1.682-.124-.173-.882-.964-4.578-1.682-3.029-.59-6.986-.914-11.142-.914s-8.114.324-11.143.914c-3.695.718-4.453 1.51-4.578 1.682" fill="#fff" fill-rule="evenodd" data-name="Path 2546"/><path d="M103.955 151.224 56.168 256.952h127.795l-47.528-105.728h-32.48Z" fill="#fff" fill-rule="evenodd" data-name="Path 2547"/><path d="M185.328 257.835H54.8l48.35-106.975 1.61.728-47.224 104.481h125.061L135.63 151.586l1.61-.724 48.088 106.973Z" fill="#1c345a" fill-rule="evenodd" data-name="Path 2548"/><path d="M183.963 256.952c0 4.662-28.608 8.442-63.898 8.442-35.29 0-63.897-3.78-63.897-8.442 0-4.662 28.608-8.441 63.897-8.441 35.29 0 63.898 3.78 63.898 8.441" fill="#fff" fill-rule="evenodd" data-name="Path 2549"/><path d="M178.941 256.583c-2.494-.872-7.361-2.079-16.709-3.18-11.602-1.365-26.577-2.117-42.167-2.117s-30.565.752-42.167 2.118c-9.347 1.1-14.214 2.307-16.709 3.179a.391.391 0 0 0 0 .739c2.495.87 7.362 2.078 16.71 3.179 11.601 1.365 26.576 2.117 42.166 2.117 15.59 0 30.565-.752 42.167-2.117 9.348-1.1 14.215-2.308 16.71-3.18a.391.391 0 0 0 0-.738" fill="#1c345a" fill-rule="evenodd" data-name="Path 2550"/><path d="M120.065 266.277c-17.105 0-33.192-.881-45.298-2.48-5.918-.782-10.575-1.696-13.841-2.716-3.849-1.202-5.641-2.514-5.641-4.129 0-1.614 1.792-2.927 5.64-4.128 3.267-1.02 7.924-1.934 13.842-2.716 12.106-1.6 28.193-2.48 45.298-2.48s33.192.88 45.298 2.48c5.918.782 10.575 1.695 13.842 2.716 3.848 1.201 5.64 2.514 5.64 4.128 0 1.615-1.792 2.927-5.64 4.129-3.267 1.02-7.924 1.934-13.842 2.716-12.106 1.599-28.193 2.48-45.298 2.48m0-16.883c-17.03 0-33.035.875-45.066 2.465-14.197 1.875-17.948 4.152-17.948 5.093 0 .942 3.75 3.218 17.948 5.094 12.031 1.59 28.036 2.465 45.066 2.465s33.035-.876 45.067-2.465c14.197-1.876 17.948-4.152 17.948-5.094 0-.941-3.751-3.218-17.948-5.093-12.032-1.59-28.037-2.465-45.067-2.465" fill="#1c345a" fill-rule="evenodd" data-name="Path 2551"/><path d="M1.061 115.305a.883.883 0 0 1-.117-1.758 876.636 876.636 0 0 1 235.333 0 .883.883 0 1 1-.237 1.75 874.883 874.883 0 0 0-234.86 0 .914.914 0 0 1-.119.008" fill="#fff" fill-rule="evenodd" data-name="Path 2552"/><path d="M107.38 49.444a.881.881 0 0 1-.678-.318 8.384 8.384 0 0 0-1.097-1.09.883.883 0 0 1 1.126-1.362c.485.402.932.847 1.328 1.322a.883.883 0 0 1-.678 1.448" fill="#fff" fill-rule="evenodd" data-name="Path 2553"/><path d="M91.354 51.293a.883.883 0 0 1-.788-1.28c1.572-3.136 4.715-5.334 8.2-5.736a10.522 10.522 0 0 1 4.347.434.883.883 0 1 1-.533 1.684 8.735 8.735 0 0 0-3.61-.364c-2.858.33-5.537 2.204-6.826 4.774a.882.882 0 0 1-.79.488" fill="#fff" fill-rule="evenodd" data-name="Path 2554"/><path d="M145.009 48.623a.88.88 0 0 1-.679-.318 8.416 8.416 0 0 0-1.097-1.091.883.883 0 1 1 1.125-1.36c.485.4.932.845 1.328 1.321a.882.882 0 0 1-.677 1.448" fill="#fff" fill-rule="evenodd" data-name="Path 2555"/><path d="M128.982 50.471a.882.882 0 0 1-.789-1.279c1.573-3.136 4.716-5.335 8.202-5.737a10.523 10.523 0 0 1 4.346.434.883.883 0 1 1-.533 1.684 8.742 8.742 0 0 0-3.61-.363c-2.858.33-5.537 2.203-6.826 4.774a.884.884 0 0 1-.79.487" fill="#fff" fill-rule="evenodd" data-name="Path 2556"/><path d="m112.29 65.48-.343.363a7.81 7.81 0 0 1-.432.429c-.173.168-.377.357-.618.558-.947.818-2.45 1.904-4.57 2.772a17.217 17.217 0 0 1-3.608 1.03c-1.34.223-2.81.312-4.343.173-3.06-.257-6.413-1.382-9.27-3.584l1.274-1.646c2.518 1.94 5.45 3.067 8.202 3.486 2.76.435 5.335.134 7.408-.444a18.183 18.183 0 0 0 5.404-2.495c.199-.13.365-.247.494-.347l.402-.296" fill="#1c345a" fill-rule="evenodd" data-name="Path 2557"/><path d="m113.087 45.416-.406-.403c-.067-.066-.14-.14-.223-.22l-.281-.254-.327-.294c-.118-.103-.25-.206-.386-.318a16.884 16.884 0 0 0-2.095-1.467 17.774 17.774 0 0 0-3.021-1.445 17.439 17.439 0 0 0-3.893-.942 16.423 16.423 0 0 0-4.533.093c-3.145.49-6.482 1.965-9.117 4.482l-1.44-1.502c1.5-1.42 3.204-2.54 4.978-3.31.44-.204.891-.364 1.335-.531.452-.143.896-.295 1.348-.403.447-.127.9-.207 1.343-.3.45-.065.89-.146 1.332-.178a16.684 16.684 0 0 1 4.983.245 17.193 17.193 0 0 1 7.058 3.247 15.71 15.71 0 0 1 1.944 1.773c.122.133.24.254.344.375l.286.343.243.293.189.254.34.462" fill="#1c345a" fill-rule="evenodd" data-name="Path 2558"/><path d="m124.969 65.48.343.363c.112.121.256.265.432.429.173.168.377.357.618.558.947.818 2.45 1.904 4.57 2.772 1.059.428 2.268.805 3.608 1.03 1.34.223 2.81.312 4.343.173 3.06-.257 6.413-1.382 9.27-3.584l-1.274-1.646c-2.518 1.94-5.451 3.067-8.202 3.486-2.76.435-5.335.134-7.408-.444a18.183 18.183 0 0 1-5.404-2.495 8.553 8.553 0 0 1-.494-.347l-.402-.296" fill="#1c345a" fill-rule="evenodd" data-name="Path 2559"/><path d="m123.65 44.898.414-.397.225-.217.286-.25.33-.289c.12-.1.254-.201.392-.312a16.87 16.87 0 0 1 2.117-1.435c.858-.498 1.875-.99 3.043-1.398a17.434 17.434 0 0 1 3.906-.884 16.424 16.424 0 0 1 4.53.161c3.138.539 6.452 2.064 9.05 4.62l1.462-1.48a17.332 17.332 0 0 0-4.928-3.386c-.436-.21-.886-.376-1.326-.55-.45-.15-.892-.309-1.342-.423-.445-.134-.897-.22-1.339-.32-.448-.072-.887-.16-1.328-.2a16.68 16.68 0 0 0-4.987.17 17.2 17.2 0 0 0-7.106 3.14c-.823.622-1.477 1.22-1.97 1.744-.125.131-.245.25-.35.37l-.291.338-.248.29-.193.251-.346.457" fill="#1c345a" fill-rule="evenodd" data-name="Path 2560"/><path d="M87.812 18.124c3.2 4.184-.464 12.36-8.183 18.262-7.719 5.902-16.57 7.295-19.769 3.111-3.199-4.184.465-12.36 8.184-18.262 7.718-5.902 16.57-7.295 19.768-3.111" fill="#fff" fill-rule="evenodd" data-name="Path 2561"/><path d="M57.191 48.561a2.312 2.312 0 1 1-4.624 0 2.312 2.312 0 0 1 4.624 0" fill="#fff" fill-rule="evenodd" data-name="Path 2562"/><path d="m83.98 176.847-4.955-.946a.61.61 0 0 1-.486-.485l-.946-4.956c-.127-.662-1.075-.662-1.201 0l-.946 4.956a.61.61 0 0 1-.486.485l-4.955.946c-.663.127-.663 1.075 0 1.201l4.955.946c.246.047.439.24.486.486l.946 4.956c.126.662 1.074.662 1.2 0l.947-4.956a.611.611 0 0 1 .486-.486l4.955-.946c.662-.126.662-1.074 0-1.2" fill="#1c345a" fill-rule="evenodd" data-name="Path 2563"/><path d="m142.752 230.566-3.475-.664a.516.516 0 0 1-.41-.41l-.663-3.474c-.107-.559-.907-.559-1.014 0l-.663 3.474a.516.516 0 0 1-.41.41l-3.474.664c-.56.106-.56.907 0 1.013l3.474.664c.208.04.37.202.41.41l.663 3.474c.107.559.907.559 1.014 0l.663-3.474a.516.516 0 0 1 .41-.41l3.475-.664c.559-.106.559-.907 0-1.013" fill="#1c345a" fill-rule="evenodd" data-name="Path 2564"/><path d="m160.63 167.695-3.528-.674a.507.507 0 0 1-.403-.403l-.674-3.528c-.104-.55-.89-.55-.995 0l-.674 3.528a.507.507 0 0 1-.402.403l-3.529.674c-.549.104-.549.89 0 .995l3.529.673c.204.04.364.2.402.403l.674 3.529c.105.549.89.549.995 0l.674-3.529a.507.507 0 0 1 .403-.403l3.528-.673c.55-.105.55-.89 0-.995" fill="#1c345a" fill-rule="evenodd" data-name="Path 2565"/><path d="m137.025 196.839-38.668 8.414c-2.615.568-3.97 3.51-2.65 5.838 5.204 9.165 15.93 14.307 26.77 11.948 10.809-2.351 18.415-11.438 19.376-21.897.248-2.704-2.175-4.88-4.828-4.303" fill="#1c345a" fill-rule="evenodd" data-name="Path 2566"/><path d="M165.038 190.743c.893 4.104-19.564 12.04-45.692 17.725-26.128 5.685-48.033 6.967-48.926 2.864-.893-4.104 19.564-12.04 45.692-17.725 26.128-5.686 48.033-6.968 48.926-2.864" fill="#fff" fill-rule="evenodd" data-name="Path 2567"/><path d="M80.28 214.617c-2.211 0-4.097-.109-5.637-.328-3.113-.443-4.776-1.349-5.086-2.77-.309-1.42.828-2.936 3.475-4.632 2.24-1.435 5.53-2.999 9.782-4.648 8.672-3.364 20.43-6.736 33.11-9.495 12.68-2.759 24.778-4.578 34.063-5.122 4.551-.266 8.195-.211 10.828.163 3.113.443 4.777 1.35 5.086 2.77.31 1.421-.828 2.936-3.475 4.633-2.24 1.434-5.53 2.998-9.782 4.648-8.671 3.363-20.43 6.735-33.11 9.494-12.68 2.76-24.777 4.578-34.062 5.122-1.89.11-3.623.165-5.192.165m74.85-25.392c-1.458 0-3.129.048-5.04.16-9.197.539-21.197 2.344-33.79 5.085-12.593 2.74-24.259 6.084-32.847 9.415-10.03 3.89-12.346 6.45-12.17 7.259.176.81 3.347 2.174 14.085 1.545 9.197-.539 21.197-2.344 33.79-5.084 12.594-2.74 24.259-6.085 32.847-9.416 10.03-3.89 12.347-6.45 12.17-7.258-.145-.666-2.313-1.706-9.046-1.706" fill="#1c345a" fill-rule="evenodd" data-name="Path 2568"/><path d="M111.751 174.747c-13.348 2.904-21.814 16.08-18.91 29.428a2.227 2.227 0 0 0 2.65 1.701l43.986-9.57a2.227 2.227 0 0 0 1.702-2.65c-2.904-13.348-16.08-21.814-29.428-18.91" fill="#1c345a" fill-rule="evenodd" data-name="Path 2569"/></g></g><defs><clipPath id="a"><path d="M0 0h237.224v266.277H0V0z" data-name="Rectangle 1399"/></clipPath></defs></svg>