<svg xmlns="http://www.w3.org/2000/svg" width="210.574" height="300.063" viewBox="82 443 210.574 300.063"><g data-name="Group 6863"><g data-name="Group 6862" transform="translate(82 443)" clip-path="url(&quot;#a&quot;)"><g data-name="Group 6861"><g data-name="Group 6860" clip-path="url(&quot;#b&quot;)"><path d="m90.53 212.99 8.88 10.578 3.573 4.256c13.184-8.507 17.871-19.006 17.59-28.308a26.306 26.306 0 0 0-3.488-12.31c-6.68-11.63-18.923-17.33-24.138-7.781-5.619 10.293 1.806 15.244 3.943 18.432 3.005 4.48 1.542 12.583-6.36 15.134" fill="#fff" fill-rule="evenodd" data-name="Path 3214"/><g data-name="Group 6715"><g data-name="Group 6714"><g data-name="Group 6713" transform="translate(99.41 199.516)" clip-path="url(&quot;#c&quot;)"><path d="m0 24.05 3.572 4.258C16.756 19.8 21.444 9.3 21.163 0 19.053 6.734 13.368 19.637 0 24.05" fill="#1c345a" fill-rule="evenodd" data-name="Path 3215"/></g></g></g><path d="M102.984 229.16a1.334 1.334 0 0 1-.725-2.458c19.375-12.5 19.473-28.73 13.669-38.83-4.046-7.042-10.384-11.934-15.446-11.934h-.084c-2.687.03-4.8 1.418-6.278 4.127-4.194 7.679-.458 11.947 2.27 15.064.611.698 1.188 1.357 1.61 1.985 1.767 2.637 2.162 6.301 1.03 9.563-1.253 3.611-4.126 6.305-8.089 7.583a1.335 1.335 0 1 1-.82-2.542c3.146-1.015 5.414-3.116 6.386-5.917.863-2.486.585-5.245-.726-7.2-.325-.485-.824-1.054-1.4-1.713-2.877-3.287-7.692-8.788-2.606-18.103 1.95-3.57 4.92-5.477 8.594-5.517 6.087-.062 13.275 5.268 17.875 13.273a27.465 27.465 0 0 1 2.787 20.695c-2.148 8.277-8.138 15.784-17.324 21.71a1.329 1.329 0 0 1-.723.213" fill="#1c345a" fill-rule="evenodd" data-name="Path 3216"/><path d="M110.121 211.212c-.22 0-.44-.003-.66-.01-5.024-.151-9.371-1.98-12.24-5.151a1.104 1.104 0 1 1 1.639-1.482c3.32 3.671 8.109 4.348 10.667 4.426 4.318.132 8.02-1.143 9.31-2.408a1.104 1.104 0 1 1 1.546 1.577c-1.867 1.829-6.018 3.048-10.262 3.048" fill="#1c345a" fill-rule="evenodd" data-name="Path 3217"/><path d="M38.068 222.484c-4.452 6.42-2.84 29.4 2.735 41.563 5.575 12.162 28.197 5.68 40.818 1.024 12.62-4.656 2.974-33.486.234-41.157-4.278-11.979-37.19-10.945-43.787-1.43" fill="#fff" fill-rule="evenodd" data-name="Path 3218"/><g data-name="Group 6718"><g data-name="Group 6717"><g data-name="Group 6716" transform="translate(38.822 215.139)" clip-path="url(&quot;#d&quot;)"><path d="M42.799 49.933c-12.621 4.656-35.242 11.136-40.82-1.026C1.25 47.314.587 45.537 0 43.635c4.446 1.597 8.534-2.502 7.999-6.086C4.692 15.426 9.807 4.81 12.659.811c12.012-2.213 27.53-.005 30.373 7.966 2.741 7.669 12.388 36.5-.233 41.156" fill="#1c345a" fill-rule="evenodd" data-name="Path 3219"/></g></g></g><path d="M55.085 272.369c-7.092 0-12.89-2.08-15.496-7.766-5.896-12.862-7.316-36.106-2.618-42.88 4.504-6.497 19.09-8.957 30.02-7.51 8.676 1.149 14.401 4.434 16.122 9.252 5.006 14.018 11.53 38.226-1.03 42.86-8.75 3.228-18.75 6.044-26.998 6.044m-15.92-49.124c-4.124 5.948-2.525 28.516 2.852 40.245 5.038 10.992 26.686 4.924 39.141.329 11.093-4.093 2.376-31.235-.56-39.456-1.347-3.772-6.435-6.506-13.958-7.502-11.444-1.517-24.025 1.408-27.475 6.384" fill="#1c345a" fill-rule="evenodd" data-name="Path 3220"/><path d="m46.37 243.24-6.413-.372a2.413 2.413 0 0 0-2.55 2.569c.337 4.984 1.672 15.103 6.936 15.513 6.38.496 6.216-6.618 4.247-15.813a2.411 2.411 0 0 0-2.22-1.897" fill="#fff" fill-rule="evenodd" data-name="Path 3221"/><g data-name="Group 6721"><g data-name="Group 6720"><g data-name="Group 6719" transform="translate(39.051 243.26)" clip-path="url(&quot;#e&quot;)"><path d="M9.522 1.867c1.99 9.19 2.172 16.306-4.21 15.822-2.62-.196-4.273-2.804-5.312-5.986.77.754 1.673 1.235 2.74 1.314C8.451 13.447 8.906 7.79 7.504 0a2.39 2.39 0 0 1 2.017 1.867" fill="#1c345a" fill-rule="evenodd" data-name="Path 3222"/></g></g></g><path d="M44.958 262.077c-.22 0-.445-.01-.677-.026-5.976-.452-7.571-10.546-7.99-16.522a3.516 3.516 0 0 1 3.707-3.754l6.414.358a3.524 3.524 0 0 1 3.243 2.76c1.811 8.37 1.673 12.986-.462 15.438-1.01 1.16-2.433 1.746-4.235 1.746m-5.16-18.099c-.352 0-.681.137-.932.391-.266.27-.398.628-.372 1.006.619 8.828 2.845 14.239 5.954 14.473 1.412.105 2.42-.21 3.08-.967 2.318-2.663.55-10.835-.032-13.52-.123-.57-.62-.99-1.207-1.023l-6.414-.358a1.148 1.148 0 0 0-.076-.002" fill="#1c345a" fill-rule="evenodd" data-name="Path 3223"/><path d="M37.16 223.318a89.552 89.552 0 0 1 4.643.632c1.534.253 3.061.548 4.556.93-1.541.057-3.065.206-4.582.395-.759.096-1.515.201-2.269.316-.75.116-1.512.24-2.242.376a1.339 1.339 0 1 1-.114-2.65l.009.001Z" fill="#1c345a" fill-rule="evenodd" data-name="Path 3224"/><path d="m94.913 215.99-3.105-9.26a69.604 69.604 0 0 0 3.105 9.26" fill="#fff" fill-rule="evenodd" data-name="Path 3225"/><path d="M129.359 275.907s-6.244-4.347-13.075-7.226c-4.479-1.89-9.209-3.146-12.597-2.134 0 0-26.752 17.416-42.186-16.359-4.896-10.712-6.276-18.845-5.377-25.012a21.24 21.24 0 0 1 .51-2.484c.223-.835.496-1.627.81-2.38a17.826 17.826 0 0 1 3.454-5.365 20.466 20.466 0 0 1 3.587-3.021c12.093-8.066 32.636-5.002 32.636-5.002a85.63 85.63 0 0 0 .752 4.449 81.656 81.656 0 0 0 1.866 7.622c.204.681.41 1.345.625 1.995 2.509 7.665 5.712 13.319 8.357 17.118 2.845 4.088 5.045 6.035 5.045 6.035 18.56-3.833 22.568 11.742 22.568 11.742s13.156-8.936 13.328 3.434c.13 9.151-12.894 21.19-20.303 16.588" fill="#fff" fill-rule="evenodd" data-name="Path 3226"/><g data-name="Group 6724"><g data-name="Group 6723"><g data-name="Group 6722" transform="translate(55.867 218.644)" clip-path="url(&quot;#f&quot;)"><path d="M73.492 57.264s-17.115-11.919-25.671-9.361c0 0-26.752 17.416-42.187-16.358C.738 20.832-.642 12.699.257 6.532a20.067 20.067 0 0 1 1.32-4.864c.24-.58.505-1.135.792-1.668a21.37 21.37 0 0 0-.276 1.522c-.899 6.167.481 14.3 5.377 25.013 15.434 33.774 41.273 13.07 41.273 13.07C63.298 34.876 68.419 50.34 74.45 53.108c6.03 2.767 15.277-3.397 19.19-10.497-1.492 8.804-13.252 18.935-20.148 14.653" fill="#1c345a" fill-rule="evenodd" data-name="Path 3227"/></g></g></g><path d="M101.584 222.846c.887 1.863 1.73 3.729 2.688 5.536l.707 1.358c.238.45.5.888.741 1.337.477.9 1.025 1.758 1.53 2.64a75.27 75.27 0 0 0 3.398 5.037c.6.813 1.227 1.604 1.874 2.371.317.391.649.765.98 1.137.33.361.686.746.995 1.053l-.955-.253c2.377-.492 4.835-.73 7.304-.572 2.465.145 4.947.742 7.2 1.857 2.265 1.095 4.248 2.739 5.826 4.668a19.34 19.34 0 0 1 2.071 3.1 19.117 19.117 0 0 1 1.156 2.556c.11.304.204.579.303.94l-1.69-.64a24.944 24.944 0 0 1 4.445-2.31c.783-.307 1.595-.57 2.447-.754.851-.181 1.747-.29 2.687-.22.931.068 1.932.343 2.78.93.853.58 1.468 1.429 1.85 2.284.39.86.605 1.745.71 2.605l.08.647.031.64c.033.42.018.863.002 1.305-.104 1.76-.6 3.423-1.257 4.977a22.764 22.764 0 0 1-2.529 4.327 25.082 25.082 0 0 1-3.333 3.697 23.137 23.137 0 0 1-4.032 2.969c-1.472.817-3.062 1.504-4.804 1.798-.864.166-1.774.183-2.678.104-.912-.086-1.807-.359-2.655-.756l-.63-.343a1.22 1.22 0 0 1-.158-.099l-.118-.08-.242-.164-.98-.644a89.28 89.28 0 0 0-6.084-3.59c-2.765-1.478-5.611-2.81-8.54-3.786-1.463-.482-2.95-.87-4.432-1.077-1.478-.214-2.958-.186-4.268.174l-.045.012a1.104 1.104 0 0 1-.587-2.128c1.763-.488 3.534-.48 5.196-.246 1.67.232 3.273.656 4.829 1.169 3.11 1.036 6.046 2.417 8.89 3.934a91.703 91.703 0 0 1 6.24 3.683l1.012.666.253.17.128.088a.53.53 0 0 0 .096.057l.42.224c.59.27 1.233.48 1.91.54.675.054 1.371.053 2.071-.085 1.402-.232 2.783-.818 4.084-1.54 2.586-1.505 4.883-3.62 6.68-6.06a20.553 20.553 0 0 0 2.28-3.892c.58-1.37.996-2.804 1.078-4.226.01-.352.028-.704-.003-1.078l-.026-.552-.067-.537a6.71 6.71 0 0 0-.529-1.98c-.264-.59-.628-1.07-1.097-1.388-.466-.321-1.047-.498-1.696-.547-1.306-.093-2.773.286-4.158.829a22.9 22.9 0 0 0-4.01 2.08l-1.28.834-.41-1.471a9.94 9.94 0 0 0-.24-.737 16.856 16.856 0 0 0-1.023-2.259c-.524-.976-1.14-1.9-1.84-2.754-1.395-1.703-3.118-3.131-5.092-4.084-1.963-.97-4.141-1.502-6.365-1.632-2.224-.144-4.489.069-6.714.53l-.53.112-.425-.367c-.453-.391-.819-.75-1.199-1.141a33.29 33.29 0 0 1-1.09-1.177c-.357-.396-.69-.81-1.021-1.225-.338-.41-.654-.835-.973-1.258-1.276-1.693-2.398-3.487-3.44-5.32-.5-.927-1.007-1.85-1.451-2.805a45.132 45.132 0 0 1-1.286-2.878 25.843 25.843 0 0 1-.57-1.468l-.542-1.475c-.18-.491-.314-1-.472-1.499-.155-.5-.304-1.001-.446-1.504a.554.554 0 0 1 1.033-.388l.007.014Z" fill="#1c345a" fill-rule="evenodd" data-name="Path 3228"/><path d="M125.914 291.344c-2.31 5.808-10.41 9.458-17.518 6.152-4.697-2.184-7.537-6.104-9.134-9.41-1.865-3.868-3.143-7.83-6.551-9.632-3.887-2.054-10.98 5.012-24.188-2.502-4.12-2.341-8.909-7.351-12.505-14.77a51.097 51.097 0 0 1-3.043-7.92c-1.834-6.233-2.794-13.6-2.251-22.015.237-3.65.758-7.5 1.614-11.539.395-1.875.865-3.79 1.412-5.745a103.447 103.447 0 0 1 2.633-8.097l3.37 6.779 1.145 2.302.825 1.656 5.156 10.372 7.88 15.852 9.2 18.503.638 1.283a24.339 24.339 0 0 1 3.123-2.673c3.382-2.425 7.357-3.954 11.528-4.29.09-.008.175-.014.263-.02 1.952-.132 3.975-.013 5.9.549 5.486 1.602 9.778 7.454 10.873 12.502.31 1.42.367 2.776.125 3.956-.436 2.116-.875 4.446-.875 4.446 1.546.774 13.018 7.628 10.38 14.26" fill="#fff" fill-rule="evenodd" data-name="Path 3229"/><g data-name="Group 6727"><g data-name="Group 6726"><g data-name="Group 6725" transform="translate(50.572 205.866)" clip-path="url(&quot;#g&quot;)"><path d="M75.342 85.477c-2.31 5.808-10.411 9.459-17.518 6.153-4.697-2.184-7.537-6.104-9.134-9.411-1.865-3.868-3.143-7.83-6.552-9.632-3.887-2.053-10.98 5.013-24.187-2.502-4.12-2.34-8.91-7.35-12.505-14.77a45.584 45.584 0 0 1-.845-1.842A56.138 56.138 0 0 1 4.395 53c-.22-.52-.432-1.052-.642-1.594l-.15-.404a27.05 27.05 0 0 1-.17-.46 43.922 43.922 0 0 1-.704-2.083c-.114-.35-.22-.705-.326-1.062C-1.094 35.512-1.417 19.516 5.81 0l.312.626c-6 20.452-3.558 36.59 1.557 47.633 7.202.105 14.467-3.527 16.519-4.643l-.758-2.035a4.747 4.747 0 0 1 .746-4.62 4.693 4.693 0 0 1 2.05-1.489l20.673-7.694c2.45-.914 5.2.342 6.111 2.795l.784 2.106a4.17 4.17 0 0 1 5.638 2.612 4.172 4.172 0 0 1-2.73 5.2l.406 1.085c.91 2.45-.35 5.196-2.798 6.108l-5.645 2.1-11.528 4.29-3.503 1.305a4.76 4.76 0 0 1-6.109-2.795l-.615-1.653c-6.334 2.78-11.457 3.927-15.213 4.34 2.862 4.053 6.012 6.925 8.846 8.536 13.208 7.515 20.3.449 24.185 2.502 3.41 1.803 4.688 5.764 6.554 9.632 1.597 3.307 4.436 7.227 9.133 9.41 5.556 2.586 11.723.918 15.25-2.71.132.94.044 1.891-.334 2.836" fill="#1c345a" fill-rule="evenodd" data-name="Path 3230"/></g></g></g><path d="M84.283 262.303c2.454-3.383 6.16-5.89 10.254-7.15a20.433 20.433 0 0 1 3.138-.731 20.125 20.125 0 0 1 3.223-.264c1.085 0 2.182.084 3.273.28a14.85 14.85 0 0 1 1.625.383c.53.198 1.074.376 1.589.603 2.055.938 3.811 2.326 5.293 3.91a21.312 21.312 0 0 1 3.616 5.362c.92 1.958 1.576 4.093 1.573 6.417.031.572-.084 1.174-.157 1.762l-.29 1.487-.583 2.966-.71-1.43c.46.237.832.458 1.225.696a37.607 37.607 0 0 1 3.331 2.295c1.422 1.105 2.786 2.31 3.995 3.726 1.19 1.414 2.297 3.049 2.766 5.084a7.053 7.053 0 0 1 0 3.166 6.792 6.792 0 0 1-.528 1.463l-.315.667c-.12.213-.254.418-.38.626-1.036 1.659-2.453 3.022-4.052 4.056a14.988 14.988 0 0 1-5.26 2.112c-1.864.363-3.803.369-5.672 0-1.871-.369-3.66-1.118-5.242-2.08-3.2-1.953-5.703-4.855-7.425-8.074-.867-1.632-1.514-3.227-2.253-4.75-.725-1.515-1.524-2.93-2.563-3.994a6.735 6.735 0 0 0-1.711-1.284c-.422-.217-1.061-.26-1.815-.174-1.517.186-3.25.685-5.018.982-1.774.313-3.622.48-5.463.39a22.769 22.769 0 0 1-5.425-.917 28.7 28.7 0 0 1-5.048-2.028c-.402-.205-.793-.426-1.19-.64-.395-.211-.792-.476-1.187-.713-.39-.25-.756-.525-1.134-.788-.37-.271-.72-.564-1.079-.846-2.796-2.34-5.109-5.131-7.052-8.129a48.245 48.245 0 0 1-4.74-9.555 57.58 57.58 0 0 1-2.727-10.273c-1.193-6.99-1.138-14.133-.224-21.114l.374-2.615c.134-.87.305-1.734.447-2.603.138-.87.32-1.731.516-2.59l.294-1.286c.093-.43.204-.856.333-1.277.24-.846.499-1.687.76-2.526.273-.835.589-1.656.92-2.47.169-.407.323-.818.506-1.218.189-.399.374-.798.58-1.189.397-.787.823-1.562 1.298-2.314a.452.452 0 0 1 .83.298l-.001.009c-.455 3.508-1.391 6.783-2.163 10.115-.223.825-.384 1.663-.591 2.49-.2.83-.412 1.657-.574 2.494-.17.835-.361 1.668-.5 2.509l-.402 2.525c-.885 6.754-.932 13.629.21 20.318a54.913 54.913 0 0 0 2.598 9.797 45.605 45.605 0 0 0 4.48 9.035c1.822 2.814 3.991 5.415 6.517 7.526.323.251.637.518.966.759.334.23.66.477 1 .694.349.207.672.428 1.04.625.367.196.73.404 1.1.591a26.037 26.037 0 0 0 4.585 1.845c3.147.946 6.426 1.062 9.688.46.82-.142 1.643-.322 2.492-.51.85-.183 1.723-.382 2.693-.495.492-.048 1-.089 1.561-.032.553.055 1.155.173 1.714.461a9.313 9.313 0 0 1 2.436 1.81c1.387 1.429 2.286 3.099 3.056 4.696.772 1.597 1.437 3.217 2.2 4.646 1.541 2.88 3.739 5.4 6.474 7.068.349.195.685.413 1.048.582l.536.268.544.217c.362.148.722.303 1.103.39.378.098.746.237 1.135.283 1.53.302 3.12.299 4.658-.001 3.065-.589 5.96-2.39 7.569-4.968.097-.16.205-.317.297-.481l.237-.51c.178-.35.283-.653.36-.972a4.392 4.392 0 0 0-.008-1.984c-.304-1.365-1.16-2.72-2.195-3.936-1.042-1.224-2.287-2.33-3.6-3.35a35.015 35.015 0 0 0-3.087-2.128c-.348-.211-.722-.43-1.034-.59l-.899-.463.19-.968.588-2.993.292-1.493c.036-.417.136-.814.104-1.257.033-.862-.155-1.768-.352-2.656-.143-.441-.258-.889-.424-1.324-.186-.43-.321-.878-.546-1.294a17.684 17.684 0 0 0-3.175-4.643c-1.287-1.36-2.804-2.487-4.455-3.196-1.621-.699-3.493-.983-5.361-.976-1.882.02-3.783.248-5.621.74-3.695.97-7.138 2.8-10.37 5.179l-.003.002a.447.447 0 0 1-.626-.623" fill="#1c345a" fill-rule="evenodd" data-name="Path 3231"/><path d="M93.994 280.414c-.429 0-.837-.252-1.016-.672-3.047-7.142.14-14.615 4.65-18.852 4.098-3.85 9.154-4.98 13.195-2.949a1.104 1.104 0 1 1-.991 1.974c-3.24-1.628-7.237-.661-10.692 2.584-3.822 3.592-6.745 10.248-4.13 16.376a1.105 1.105 0 0 1-1.016 1.539" fill="#1c345a" fill-rule="evenodd" data-name="Path 3232"/><path d="M116.368 277.638a20.891 20.891 0 0 1-2.282 2.39 17.799 17.799 0 0 1-2.603 1.966c-.927.568-1.927 1.036-2.982 1.295-1.05.268-2.16.288-3.178.024a6.175 6.175 0 0 0 3.021-.5c.938-.396 1.784-.973 2.553-1.631a16.555 16.555 0 0 0 2.102-2.19c.628-.781 1.232-1.64 1.702-2.464l.01-.02a1.006 1.006 0 1 1 1.657 1.13" fill="#1c345a" fill-rule="evenodd" data-name="Path 3233"/><path d="M119.982 271.497c-.373 0-.737-.19-.945-.53-3.624-5.96-4.752-11.567-3.354-16.668 2.004-7.313 8.458-10.823 8.731-10.969a1.105 1.105 0 0 1 1.04 1.95c-.058.03-5.91 3.237-7.648 9.627-1.22 4.485-.171 9.502 3.118 14.912a1.104 1.104 0 0 1-.942 1.678" fill="#1c345a" fill-rule="evenodd" data-name="Path 3234"/><path d="M110.129 237.392a4.173 4.173 0 1 1-7.982 2.442 4.173 4.173 0 0 1 7.982-2.442" fill="#fff" fill-rule="evenodd" data-name="Path 3235"/><g data-name="Group 6730"><g data-name="Group 6729"><g data-name="Group 6728" transform="translate(101.962 235.803)" clip-path="url(&quot;#h&quot;)"><path d="M8.165 1.589a4.175 4.175 0 1 1-8.12.618A4.172 4.172 0 0 0 7.26 0c.405.441.719.98.905 1.589" fill="#1c345a" fill-rule="evenodd" data-name="Path 3236"/></g></g></g><path d="M106.14 243.891a5.287 5.287 0 0 1-5.049-3.734 5.284 5.284 0 0 1 3.503-6.59 5.284 5.284 0 0 1 6.59 3.502 5.284 5.284 0 0 1-5.043 6.822m-.005-8.347a3.073 3.073 0 0 0-2.933 3.967 3.072 3.072 0 0 0 3.833 2.037 3.072 3.072 0 0 0 2.037-3.833 3.075 3.075 0 0 0-2.937-2.171" fill="#1c345a" fill-rule="evenodd" data-name="Path 3237"/><path d="M105.006 249.786 84.33 257.48c-2.447.912-5.197-.345-6.11-2.795l-4.094-11.004c-.798-2.145.068-4.518 1.94-5.688.264-.168.55-.307.856-.421l20.674-7.695c2.45-.912 5.2.345 6.11 2.796l3.244 8.714.853 2.289c.912 2.45-.349 5.197-2.796 6.109" fill="#fff" fill-rule="evenodd" data-name="Path 3238"/><g data-name="Group 6733"><g data-name="Group 6732"><g data-name="Group 6731" transform="translate(73.828 237.994)" clip-path="url(&quot;#i&quot;)"><path d="m31.178 11.791-20.677 7.696c-2.447.912-5.197-.345-6.11-2.795L.298 5.688C-.5 3.543.364 1.169 2.237 0 3.7.343 4.632.564 4.632.564c4.294 8.458 6.343 15.15 19.71 9.141 4.607-2.071 7.255-4.638 8.78-6.311l.852 2.288c.912 2.45-.349 5.198-2.796 6.11" fill="#1c345a" fill-rule="evenodd" data-name="Path 3239"/></g></g></g><path d="M82.682 258.885c-.832 0-1.661-.179-2.442-.536a5.814 5.814 0 0 1-3.054-3.277l-4.096-11.005a5.813 5.813 0 0 1 .168-4.475 5.815 5.815 0 0 1 3.277-3.054l20.676-7.696a5.862 5.862 0 0 1 7.53 3.445l4.095 11.005a5.862 5.862 0 0 1-3.445 7.53l-20.675 7.695a5.833 5.833 0 0 1-2.034.368m16.567-28.202c-.422 0-.85.074-1.268.23l-20.675 7.695a3.618 3.618 0 0 0-2.039 1.902 3.62 3.62 0 0 0-.107 2.787l4.096 11.005a3.62 3.62 0 0 0 1.903 2.039 3.62 3.62 0 0 0 2.786.106l20.676-7.695a3.65 3.65 0 0 0 2.145-4.69l-4.096-11.004a3.654 3.654 0 0 0-3.421-2.375" fill="#1c345a" fill-rule="evenodd" data-name="Path 3240"/><path d="M105.806 249.396a4.228 4.228 0 0 1-.8.39L84.33 257.48a4.76 4.76 0 0 1-6.106-2.796l-1.821-4.888-.601-1.612-1.676-4.503c-.912-2.45.349-5.198 2.796-6.11l4.468-1.66c-1.915 1.154-2.807 3.552-2.002 5.72l2.21 5.944 1.885 5.063c.912 2.447 3.663 3.707 6.11 2.795l16.214-6.038Z" fill="#fff" fill-rule="evenodd" data-name="Path 3241"/><g data-name="Group 6736"><g data-name="Group 6735"><g data-name="Group 6734" transform="translate(75.8 247.577)" clip-path="url(&quot;#j&quot;)"><path d="M30.005 1.82a4.227 4.227 0 0 1-.8.39L8.528 9.904a4.759 4.759 0 0 1-6.106-2.797L0 .608c.948.955 2.407 2.017 3.957 1.61.85-.223 1.438-1.114 1.84-2.218l1.885 5.063c.911 2.447 3.662 3.707 6.109 2.795L30.005 1.82Z" fill="#1c345a" fill-rule="evenodd" data-name="Path 3242"/></g></g></g><path d="M82.682 258.886c-.831 0-1.66-.18-2.442-.537a5.81 5.81 0 0 1-3.053-3.278l-4.096-11.004a5.81 5.81 0 0 1 .168-4.476 5.82 5.82 0 0 1 3.276-3.054l4.467-1.662.956 1.98a3.65 3.65 0 0 0-1.536 4.393l4.096 11.005a3.616 3.616 0 0 0 1.902 2.04 3.61 3.61 0 0 0 2.785.106l16.217-6.037.966 1.974a5.48 5.48 0 0 1-1.002.487l-20.672 7.694a5.817 5.817 0 0 1-2.032.369m-4.436-20.629-.94.35a3.622 3.622 0 0 0-2.039 1.903 3.616 3.616 0 0 0-.106 2.786l4.096 11.006a3.617 3.617 0 0 0 1.902 2.039 3.612 3.612 0 0 0 2.785.107l1.069-.398a5.798 5.798 0 0 1-2.565-3.028l-4.095-11.003a5.835 5.835 0 0 1-.107-3.762" fill="#1c345a" fill-rule="evenodd" data-name="Path 3243"/><path d="M89.62 244.19c.15.408.78 3.91.78 3.91l-2.323.849c-1.6.585-3.502-.597-4.25-2.64-.746-2.043-.055-4.174 1.545-4.759l2.323-.85s1.683 2.826 1.926 3.49" fill="#00aeef" fill-rule="evenodd" data-name="Path 3244"/><g data-name="Group 6739"><g data-name="Group 6738"><g data-name="Group 6737" transform="translate(83.527 240.7)" clip-path="url(&quot;#k&quot;)"><path d="M6.094 3.49c.15.408.78 3.91.78 3.91l-2.324.849c-1.6.584-3.502-.597-4.249-2.64C-.446 3.564.245 1.434 1.845.848L4.168 0s1.683 2.826 1.926 3.49" fill="#1c345a" fill-rule="evenodd" data-name="Path 3245"/></g></g></g><path d="M87.221 249.763c-.65 0-1.313-.197-1.938-.586-.928-.576-1.665-1.514-2.077-2.64-.412-1.127-.454-2.32-.117-3.359.356-1.097 1.086-1.896 2.055-2.25l2.839-1.038.281.471c.175.295 1.722 2.9 1.979 3.602.157.428.659 3.184.81 4.02l.098.548-2.846 1.04a3.14 3.14 0 0 1-1.084.192m.184-8.251-1.806.66c-.578.212-1.022.714-1.25 1.415-.245.758-.21 1.644.101 2.494.31.85.855 1.55 1.532 1.97.626.39 1.29.487 1.868.276l1.799-.658c-.276-1.507-.573-3.022-.65-3.252-.142-.385-.962-1.83-1.594-2.905" fill="#1c345a" fill-rule="evenodd" data-name="Path 3246"/><path d="M91.944 243.341c.747 2.043.056 4.173-1.544 4.759-1.6.585-3.502-.598-4.249-2.64-.747-2.044-.056-4.174 1.544-4.76 1.6-.584 3.502.598 4.25 2.641" fill="#00aeef" fill-rule="evenodd" data-name="Path 3247"/><g data-name="Group 6742"><g data-name="Group 6741"><g data-name="Group 6740" transform="translate(85.86 242.56)" clip-path="url(&quot;#l&quot;)"><path d="M.291 2.9c.746 2.042 2.65 3.225 4.249 2.64C6.14 4.956 6.832 2.825 6.083.78A4.809 4.809 0 0 0 5.718 0c.102 1.554-.592 2.941-1.835 3.394C2.5 3.899.893 3.087 0 1.535c.029.448.126.908.291 1.365" fill="#1c345a" fill-rule="evenodd" data-name="Path 3248"/></g></g></g><path d="M86.151 245.46c.05.14.107.274.17.404-.267-1.717.437-3.316 1.788-3.81 1.491-.543 3.247.445 4.08 2.24a4.988 4.988 0 0 0-.246-.954c-.746-2.042-2.649-3.225-4.248-2.64-1.599.586-2.29 2.716-1.544 4.76" fill="#fff" fill-rule="evenodd" data-name="Path 3249"/><path d="M89.56 248.91c-1.648 0-3.316-1.267-4.031-3.223-.872-2.383-.002-4.899 1.938-5.608 1.94-.71 4.228.652 5.1 3.035.87 2.383.001 4.899-1.94 5.608a3.099 3.099 0 0 1-1.067.188m-1.006-7.698c-.215 0-.427.036-.632.111-1.254.459-1.769 2.212-1.149 3.91.62 1.696 2.144 2.704 3.4 2.245 1.254-.459 1.77-2.212 1.149-3.91-.52-1.419-1.671-2.356-2.768-2.356" fill="#1c345a" fill-rule="evenodd" data-name="Path 3250"/><path d="M98.549 252.982a.884.884 0 0 1-.835-.595l-1.94-5.615a4.975 4.975 0 0 1 .753-4.66 3.205 3.205 0 0 0 .465-3.07l-2.894-7.858a.883.883 0 1 1 1.658-.611l2.894 7.858a4.961 4.961 0 0 1-.72 4.755 3.213 3.213 0 0 0-.486 3.01l1.94 5.614a.883.883 0 0 1-.835 1.172" fill="#1c345a" fill-rule="evenodd" data-name="Path 3251"/><path d="M52.2 249.162s-1.654 2.175-.748 4.627c1.047 2.835 3.568 3.436 3.568 3.436s8.647 2.274 23.894-4.784c0 0 2.33-5.689-3.459-7.042 0 0-13.363 7.912-23.255 3.763" fill="#fff" fill-rule="evenodd" data-name="Path 3252"/><g data-name="Group 6745"><g data-name="Group 6744"><g data-name="Group 6743" transform="translate(51.432 246.095)" clip-path="url(&quot;#m&quot;)"><path d="M0 7.639c1.035 2.882 3.59 3.492 3.59 3.492s8.645 2.272 23.892-4.784c0 0 1.78-4.349-1.637-6.347l.012.055c.39 1.871-.635 3.76-2.394 4.51C9.485 10.514 1.605 8.444 1.605 8.444S.852 8.264 0 7.639" fill="#1c345a" fill-rule="evenodd" data-name="Path 3253"/></g></g></g><path d="M58.897 258.686c-2.594 0-4.017-.355-4.158-.393-.102-.023-3.085-.77-4.323-4.121-.442-1.198-.45-2.523-.023-3.83.464-1.42 1.986-2.216 3.394-1.775 8.164 2.553 18.563-2.73 20.565-3.816a2.733 2.733 0 0 1 2.164-.199c3.197 1.072 4.587 3.821 3.718 7.353a2.765 2.765 0 0 1-1.536 1.849c-9.089 4.097-15.822 4.932-19.801 4.932m-5.904-8.032a.54.54 0 0 0-.5.374c-.276.842-.277 1.642-.005 2.379.817 2.212 2.717 2.726 2.798 2.747.091.023 8.285 1.996 22.505-4.414a.541.541 0 0 0 .298-.363c.599-2.432-.167-4.024-2.275-4.731a.52.52 0 0 0-.41.047c-3.005 1.629-13.492 6.73-22.276 3.982a.46.46 0 0 0-.135-.02" fill="#1c345a" fill-rule="evenodd" data-name="Path 3254"/><g data-name="Group 6748"><g data-name="Group 6747"><g data-name="Group 6746" transform="translate(99.446 250.63)" clip-path="url(&quot;#n&quot;)"><path d="M1.023 4.089C.95 3.786.576 2.327 0 0c.576 2.327.946 3.787 1.023 4.089" fill="#1c345a" fill-rule="evenodd" data-name="Path 3255"/></g></g></g><g data-name="Group 6751"><g data-name="Group 6750"><g data-name="Group 6749" transform="translate(100.47 254.722)" clip-path="url(&quot;#o&quot;)"><path d="M.013.058.016.056S.009.036 0 0a.371.371 0 0 0 .013.058" fill="#1c345a" fill-rule="evenodd" data-name="Path 3256"/></g></g></g><path d="M137.01 256.624c-.443.297-.906.646-1.345.99-.442.35-.88.71-1.298 1.09-.835.762-1.636 1.573-2.243 2.56.3-1.123.86-2.187 1.47-3.196.306-.507.636-.998.977-1.484.347-.488.69-.955 1.086-1.438l.004-.005a1.013 1.013 0 1 1 1.348 1.483" fill="#1c345a" fill-rule="evenodd" data-name="Path 3257"/><g data-name="Group 6754"><g data-name="Group 6753"><g data-name="Group 6752" transform="translate(44.046 253.437)" clip-path="url(&quot;#p&quot;)"><path d="M.046 0A.984.984 0 0 1 0 .375C.024.255.039.13.046 0" fill="#1c345a" fill-rule="evenodd" data-name="Path 3258"/></g></g></g><path d="M132.276 276.882c-.503-.593-.766-1.493-.596-2.839.817-6.491 11.652-21.132 17.665-17.466.191.768.303 1.675.317 2.742.114 8.04-9.924 18.308-17.386 17.563" fill="#848484" fill-rule="evenodd" data-name="Path 3259"/><g data-name="Group 6757"><g data-name="Group 6756"><g data-name="Group 6755" transform="translate(131.629 262.582)" clip-path="url(&quot;#q&quot;)"><path d="M14.285 6.382c-3.58 4.733-9.09 8.372-13.638 7.918-.503-.593-.765-1.493-.595-2.84C.424 8.5 2.882 3.84 6.019 0c-1.112 2.415-3.035 8.507-.427 9.84 2.609 1.332 6.064-1.967 8.693-3.458" fill="#1c345a" fill-rule="evenodd" data-name="Path 3260"/></g></g></g><g data-name="Group 6760"><g data-name="Group 6759"><g data-name="Group 6758" transform="translate(132.958 255.996)" clip-path="url(&quot;#r&quot;)"><path d="M14.402 10.812c.755-1.763 1.18-3.553 1.156-5.242l-.002-.15c-.045-2.038-2.011-3.504-3.97-2.939C7.528 3.653 2.807 9.029 0 14.016 3.194 6.98 11.43-2.442 16.387.581c.191.768.304 1.675.317 2.742.034 2.414-.847 5.031-2.302 7.489" fill="#fff" fill-rule="evenodd" data-name="Path 3261"/></g></g></g><path d="M133.056 277.803c-.294 0-.583-.014-.868-.042l-.355-.036-.23-.271c-.719-.846-.987-2.03-.8-3.521.667-5.293 7.313-15.156 13.198-17.992 2.192-1.056 4.199-1.097 5.804-.118l.31.188.088.353c.213.858.328 1.849.343 2.944.061 4.35-2.629 9.558-7.021 13.59-3.435 3.154-7.197 4.905-10.469 4.905m-.295-1.772c2.85.11 6.395-1.521 9.569-4.434 3.971-3.646 6.503-8.46 6.449-12.265-.01-.8-.08-1.528-.208-2.168-1.032-.474-2.31-.351-3.803.368-5.344 2.576-11.61 11.842-12.211 16.621-.1.798-.032 1.427.204 1.878" fill="#1c345a" fill-rule="evenodd" data-name="Path 3262"/><path d="M147.179 261.017c-2.773 0-6.05-.847-6.544-.979a.884.884 0 0 1 .457-1.707c2.365.632 6.676 1.354 8.17.6a.884.884 0 0 1 .795 1.579c-.738.372-1.768.507-2.878.507" fill="#1c345a" fill-rule="evenodd" data-name="Path 3263"/><path d="M144.606 265.518c-4.033 0-7.386-1.829-7.575-1.935a.883.883 0 0 1 .857-1.544c.056.03 5.65 3.066 10.57.96a.884.884 0 0 1 .695 1.625c-1.526.652-3.081.894-4.547.894" fill="#1c345a" fill-rule="evenodd" data-name="Path 3264"/><path d="M142.396 269.669c-5.712 0-8.053-2.493-8.17-2.622a.883.883 0 0 1 1.304-1.193c.052.055 3.01 3.04 10.628 1.697a.883.883 0 1 1 .306 1.74 23.447 23.447 0 0 1-4.068.378" fill="#1c345a" fill-rule="evenodd" data-name="Path 3265"/><path d="M139.324 274.561c-4.598 0-7.305-2.8-7.436-2.938a.883.883 0 0 1 1.283-1.215c.133.138 3.133 3.184 8.154 2.184a.882.882 0 1 1 .346 1.732c-.829.166-1.612.237-2.347.237" fill="#1c345a" fill-rule="evenodd" data-name="Path 3266"/><path d="M29.538 196.467a.833.833 0 0 0 .65-.98l-4.758-23.5a.832.832 0 0 0-.98-.651 8.733 8.733 0 0 0-6.827 10.292l1.623 8.013a8.733 8.733 0 0 0 10.292 6.826" fill="#fff" fill-rule="evenodd" data-name="Path 3267"/><path d="M27.786 196.9a8.925 8.925 0 0 1-4.95-1.5 8.93 8.93 0 0 1-3.842-5.707l-1.622-8.014a8.93 8.93 0 0 1 1.319-6.753 8.93 8.93 0 0 1 5.707-3.842c.286-.057.576 0 .818.16.243.161.408.407.466.692l4.758 23.5c.057.285 0 .575-.16.818a1.08 1.08 0 0 1-.691.465c-.6.122-1.204.182-1.803.182m-3.17-25.325a.597.597 0 0 0-.116.011 8.421 8.421 0 0 0-5.382 3.623 8.42 8.42 0 0 0-1.244 6.367l1.623 8.014c.928 4.58 5.41 7.552 9.99 6.625a.572.572 0 0 0 .45-.678l-4.758-23.5a.571.571 0 0 0-.563-.462" fill="#1c345a" fill-rule="evenodd" data-name="Path 3268"/><g data-name="Group 6763"><g data-name="Group 6762"><g data-name="Group 6761" transform="translate(17.658 186.22)" clip-path="url(&quot;#s&quot;)"><path d="m0 0 .76 3.759c.957 4.725 5.565 7.782 10.294 6.826a.835.835 0 0 0 .65-.983l-1.263-6.247a.834.834 0 0 1-.644.634l-.558.112A8.726 8.726 0 0 1 0 0" fill="#1c345a" fill-rule="evenodd" data-name="Path 3269"/></g></g></g><path d="M27.802 198.07c-4.733 0-8.981-3.331-9.956-8.145l-1.622-8.014c-.539-2.66-.01-5.37 1.49-7.632a10.095 10.095 0 0 1 6.452-4.343 2.244 2.244 0 0 1 1.698.332c.503.334.846.843.966 1.435l4.758 23.5c.12.592.002 1.195-.332 1.698a2.246 2.246 0 0 1-1.435.966c-.678.137-1.354.203-2.02.203m-3.647-25.193a7.25 7.25 0 0 0-4.06 2.98 7.256 7.256 0 0 0-1.071 5.487l1.622 8.014c.76 3.75 4.286 6.25 8.02 5.804l-4.511-22.285Zm5.1 22.19v.001" fill="#1c345a" fill-rule="evenodd" data-name="Path 3270"/><path d="M102.017 155.631a.832.832 0 0 0-.65.981l4.758 23.5c.09.45.53.742.98.65a8.733 8.733 0 0 0 6.827-10.291l-1.623-8.014a8.733 8.733 0 0 0-10.292-6.826" fill="#fff" fill-rule="evenodd" data-name="Path 3271"/><path d="M106.938 181.036a1.08 1.08 0 0 1-.6-.182 1.082 1.082 0 0 1-.465-.691l-4.758-23.5a1.08 1.08 0 0 1 .16-.818c.16-.242.407-.408.692-.465 4.86-.985 9.61 2.168 10.594 7.026l1.622 8.014a8.93 8.93 0 0 1-1.319 6.752 8.93 8.93 0 0 1-5.707 3.842 1.098 1.098 0 0 1-.219.022m-4.87-25.154a.572.572 0 0 0-.45.679l4.758 23.5a.572.572 0 0 0 .679.45 8.42 8.42 0 0 0 5.382-3.622 8.42 8.42 0 0 0 1.243-6.367l-1.622-8.014c-.928-4.58-5.408-7.553-9.99-6.626" fill="#1c345a" fill-rule="evenodd" data-name="Path 3272"/><g data-name="Group 6766"><g data-name="Group 6765"><g data-name="Group 6764" transform="translate(104.803 167.096)" clip-path="url(&quot;#t&quot;)"><path d="m0 6.497 1.321 6.52c.09.45.532.74.983.65A8.715 8.715 0 0 0 8.03 9.65a8.701 8.701 0 0 0 1.099-6.273L8.445 0a8.736 8.736 0 0 1-6.78 6.606l-.857.173A.843.843 0 0 1 0 6.497" fill="#1c345a" fill-rule="evenodd" data-name="Path 3273"/></g></g></g><path d="M106.936 182.208c-.44 0-.87-.129-1.245-.377a2.246 2.246 0 0 1-.966-1.436l-4.757-23.5a2.244 2.244 0 0 1 .331-1.697 2.246 2.246 0 0 1 1.435-.967c5.49-1.112 10.863 2.452 11.975 7.943l1.622 8.014c.54 2.66.01 5.37-1.49 7.632a10.092 10.092 0 0 1-6.452 4.342c-.15.03-.302.046-.453.046m-4.046-25.272 4.511 22.286a7.25 7.25 0 0 0 4.06-2.98 7.257 7.257 0 0 0 1.071-5.488l-1.622-8.013c-.76-3.751-4.285-6.25-8.02-5.805" fill="#1c345a" fill-rule="evenodd" data-name="Path 3274"/><path d="M26.403 186.978c6.035 21.743 28.554 34.478 50.297 28.442 21.744-6.035 34.478-28.554 28.443-50.298-6.036-21.743-28.555-34.477-50.298-28.442-21.744 6.035-34.478 28.555-28.442 50.298" fill="#fff" fill-rule="evenodd" data-name="Path 3275"/><path d="M65.71 217.184c-7 0-13.917-1.805-20.175-5.344-9.56-5.406-16.442-14.211-19.38-24.793-2.937-10.582-1.577-21.675 3.828-31.235 5.406-9.56 14.211-16.442 24.793-19.379 21.846-6.063 44.55 6.776 50.614 28.621 2.937 10.582 1.578 21.675-3.828 31.234-5.406 9.56-14.21 16.442-24.793 19.38a41.31 41.31 0 0 1-11.06 1.516m.126-81.754c-3.645 0-7.313.496-10.922 1.497-10.45 2.9-19.145 9.698-24.483 19.138-5.338 9.44-6.681 20.394-3.78 30.844 2.9 10.45 9.697 19.146 19.137 24.484 9.44 5.338 20.394 6.681 30.845 3.78 10.45-2.9 19.145-9.697 24.483-19.137 5.339-9.44 6.681-20.395 3.78-30.845-2.9-10.45-9.696-19.145-19.137-24.483-6.18-3.496-13.01-5.278-19.923-5.278" fill="#1c345a" fill-rule="evenodd" data-name="Path 3276"/><g data-name="Group 6769"><g data-name="Group 6768"><g data-name="Group 6767" transform="translate(25.267 163.267)" clip-path="url(&quot;#u&quot;)"><path d="M0 18.156c.243 1.85.621 3.705 1.135 5.555 6.038 21.743 28.556 34.476 50.3 28.444 21.741-6.039 34.475-28.557 28.442-50.3A39.564 39.564 0 0 0 79.315 0c2.665 19.902-9.684 39.221-29.578 44.744C28.619 50.604 6.774 38.761 0 18.156" fill="#1c345a" fill-rule="evenodd" data-name="Path 3277"/></g></g></g><path d="M65.708 218.355c-7.2.001-14.312-1.855-20.75-5.496-9.832-5.56-16.91-14.615-19.931-25.499-3.021-10.884-1.623-22.292 3.937-32.124s14.615-16.91 25.499-19.932c10.883-3.02 22.292-1.622 32.124 3.937 9.832 5.56 16.91 14.616 19.932 25.5 3.02 10.883 1.622 22.292-3.937 32.124-5.56 9.832-14.616 16.91-25.5 19.931a42.509 42.509 0 0 1-11.374 1.56m.125-81.754c-3.54 0-7.102.482-10.606 1.454-10.149 2.817-18.593 9.418-23.777 18.585-5.185 9.169-6.488 19.807-3.672 29.955 2.817 10.149 9.418 18.593 18.586 23.777 9.168 5.184 19.806 6.488 29.954 3.672 10.15-2.817 18.593-9.418 23.778-18.586 5.184-9.168 6.488-19.806 3.67-29.954-2.816-10.15-9.416-18.593-18.585-23.778-6.002-3.394-12.635-5.125-19.348-5.125" fill="#1c345a" fill-rule="evenodd" data-name="Path 3278"/><path d="M26.81 187.954c2.02 7.736 6.41 14.261 12.257 19.08 4.383 3.614 19.656 7.952 36.038 3.827 15.19-3.825 26.865-15.508 28.92-20.804 2.742-7.064 3.376-14.902 1.354-22.638-5.35-20.47-25.156-24.36-46.853-18.689-21.698 5.67-37.067 18.754-31.717 39.224" fill="#1c345a" fill-rule="evenodd" data-name="Path 3279"/><g data-name="Group 6772"><g data-name="Group 6771"><g data-name="Group 6770" transform="translate(33.205 174.915)" clip-path="url(&quot;#v&quot;)"><path d="M10.397 4.714c1.682 3.621.919 7.545-1.705 8.765-2.625 1.219-6.116-.729-7.799-4.35C-.789 5.506-.026 1.582 2.6.362c2.624-1.219 6.115.729 7.798 4.35" fill="#fff" fill-rule="evenodd" data-name="Path 3280"/></g></g></g><g data-name="Group 6775"><g data-name="Group 6774"><g data-name="Group 6773" transform="translate(45.687 190.884)" clip-path="url(&quot;#w&quot;)"><path d="M5.387 1.642c.994 1.54.73 3.48-.592 4.333-1.32.854-3.198.297-4.193-1.242-.994-1.54-.73-3.48.592-4.333C2.515-.454 4.392.103 5.387 1.642" fill="#fff" fill-rule="evenodd" data-name="Path 3281"/></g></g></g><g data-name="Group 6778"><g data-name="Group 6777"><g data-name="Group 6776" transform="translate(25.74 166.86)" clip-path="url(&quot;#x&quot;)"><path d="M3.718 0C.113 5.838-1.079 12.871 1.068 21.093 3.092 28.83 7.48 35.355 13.326 40.175c4.385 3.613 19.66 7.95 36.04 3.827 5.785-1.455 11.058-4.05 15.486-7.002-20.245 4.638-38.868-.717-44.305-5.198-7.422-6.117-12.991-14.4-15.555-24.216A41.367 41.367 0 0 1 3.718 0" fill="#1c345a" fill-rule="evenodd" data-name="Path 3282"/></g></g></g><path d="M25.495 170.297a1.179 1.179 0 0 1-1.076-1.663c4.496-11.728 16.503-20.918 32.954-25.218 16.58-4.333 31.613-1.994 41.245 6.419.462.393.556 1.083.197 1.586a1.178 1.178 0 0 1-1.644.277l-.097-.076c-9.034-7.897-23.287-10.056-39.104-5.921-15.731 4.112-27.164 12.799-31.366 23.833l-.055.143-.088.123a1.185 1.185 0 0 1-.966.497" fill="#1c345a" fill-rule="evenodd" data-name="Path 3283"/><g data-name="Group 6781"><g data-name="Group 6780"><g data-name="Group 6779" transform="translate(59.789 152.27)" clip-path="url(&quot;#y&quot;)"><path d="M39.95 29.634S41.014 7.782 28.027 2.579C15.039-2.623-.61 1.501.018 2.41c0 0 18.432-.334 28.796 11.597 7.992 9.2 11.137 15.627 11.137 15.627" fill="#fff" fill-rule="evenodd" data-name="Path 3284"/></g></g></g><path d="M114.347 183.146s-5.77-8.056-15.418-7.583c-6.823.335-9.933 13.154-2.554 20.04 3.47 3.239 6.599 4.209 7.523 11.16" fill="#fff" fill-rule="evenodd" data-name="Path 3285"/><path d="M103.896 208.1c-.659 0-1.232-.489-1.322-1.16-.666-5.013-2.476-6.49-4.982-8.536-.683-.558-1.389-1.134-2.128-1.824-5.001-4.668-5.51-11.484-3.795-16.169 1.36-3.716 4.05-6.027 7.195-6.182 10.254-.504 16.316 7.786 16.569 8.139a1.336 1.336 0 0 1-2.17 1.557c-.054-.074-5.495-7.46-14.268-7.028-2.037.1-3.839 1.757-4.818 4.432-1.366 3.733-.976 9.486 3.11 13.299.674.628 1.345 1.177 1.994 1.707 2.64 2.156 5.135 4.192 5.941 10.252a1.336 1.336 0 0 1-1.326 1.512" fill="#1c345a" fill-rule="evenodd" data-name="Path 3286"/><g data-name="Group 6784"><g data-name="Group 6783"><g data-name="Group 6782" transform="translate(56.615 196.35)" clip-path="url(&quot;#z&quot;)"><path d="m0 25.412 1.227 13.15c29.122 20.973 40.445-8.948 43.47-14.701.624-1.186 2.667-4.71 3.929-5.539 1.365-.898 2.708-3.989 2.858-6.236 0 0-.849-8.125-3.613-10.569-2.835-2.504-9.268-1.556-12.48.304-4.44 2.57-7.572 8.637-12.87 13.959C16.014 22.31 2.02 19.907 0 25.412" fill="#1c345a" fill-rule="evenodd" data-name="Path 3287"/></g></g></g><path d="m54.977 219.007 2.751 15.267.114.638c27.45 9.702 39.262-13.321 44.143-19.601.821-1.058 3.228-2.447 4.49-3.275 1.366-.898 2.057-2.785 2.207-5.031V207c.294-4.343-1.432-10.03-4.197-12.473-2.834-2.504-9.268-1.556-12.48.304-4.44 2.571-7.571 8.637-12.87 13.959-6.507 6.53-22.138 4.71-24.158 10.216" fill="#fff" fill-rule="evenodd" data-name="Path 3288"/><g data-name="Group 6787"><g data-name="Group 6786"><g data-name="Group 6785" transform="translate(57.728 207.004)" clip-path="url(&quot;#A&quot;)"><path d="m0 27.27.113.638c27.45 9.701 39.262-13.322 44.143-19.601.822-1.059 3.229-2.448 4.49-3.275 1.366-.899 2.057-2.785 2.207-5.032-.764 1.058-1.759 1.973-2.96 2.09-3.035.294-7.276.177-8.484 1.766C38.3 5.45 36.083 13.425 28.224 20.16 20.292 26.953 6.667 29.163 0 27.269" fill="#1c345a" fill-rule="evenodd" data-name="Path 3289"/></g></g></g><path d="M54.458 218.817c.21-.814.724-1.54 1.325-2.077.6-.55 1.277-.954 1.959-1.303 1.374-.671 2.79-1.105 4.193-1.475 2.81-.73 5.61-1.21 8.295-1.959 2.668-.741 5.293-1.704 7.297-3.338.261-.191.476-.425.714-.637.236-.23.478-.496.717-.742.48-.502.942-1.024 1.402-1.55.918-1.052 1.794-2.155 2.672-3.268 1.762-2.223 3.459-4.565 5.666-6.65 1.1-1.028 2.38-1.996 3.857-2.623 1.436-.634 2.917-1.008 4.43-1.234 1.512-.22 3.068-.268 4.655.014.791.132 1.595.377 2.37.765l.576.317.544.405c.356.277.633.57.909.878 1.073 1.236 1.81 2.616 2.378 4.029.57 1.415.964 2.877 1.22 4.367.245 1.492.356 3.014.224 4.567-.067.775-.192 1.56-.428 2.345-.237.783-.584 1.577-1.15 2.299-.14.18-.288.355-.464.516-.162.17-.352.316-.547.457l-.145.107-.118.076-.233.149-.458.288c-.603.38-1.196.75-1.759 1.135-.554.38-1.115.79-1.49 1.176-.143.136-.365.453-.57.718l-.613.848c-1.622 2.315-3.276 4.708-5.113 6.956a57.47 57.47 0 0 1-2.888 3.28c-1.022 1.045-2.072 2.068-3.198 3.012a33.096 33.096 0 0 1-7.393 4.81c-2.67 1.276-5.564 2.074-8.487 2.458-2.93.36-5.893.266-8.775-.182-2.881-.465-5.684-1.27-8.374-2.318a.553.553 0 0 1 .358-1.045l.01.003c2.704.813 5.448 1.452 8.222 1.751 2.768.32 5.564.293 8.284-.15a27.377 27.377 0 0 0 7.839-2.454c.609-.319 1.233-.607 1.818-.971l.89-.523.862-.57c.585-.364 1.125-.799 1.688-1.196.54-.433 1.09-.85 1.61-1.31 1.055-.896 2.046-1.873 3.013-2.872A55.093 55.093 0 0 0 95 222.937c1.763-2.182 3.344-4.496 4.982-6.863l.636-.89c.232-.298.405-.58.76-.955.624-.636 1.232-1.06 1.847-1.494.613-.424 1.228-.813 1.83-1.196l.445-.284.217-.141.107-.07.068-.055c.093-.07.188-.137.27-.23.09-.078.17-.177.248-.279.64-.818.958-2.098 1.055-3.376.105-1.293.003-2.639-.222-3.959a18.867 18.867 0 0 0-1.1-3.854c-.496-1.228-1.149-2.39-1.956-3.304a4.753 4.753 0 0 0-.628-.606 8.713 8.713 0 0 1-.311-.237l-.363-.197a5.893 5.893 0 0 0-1.687-.54c-1.223-.225-2.558-.2-3.866-.01-1.305.189-2.617.52-3.793 1.04-1.16.485-2.2 1.256-3.183 2.167-1.961 1.831-3.649 4.123-5.447 6.351-.897 1.12-1.806 2.245-2.773 3.334a48.417 48.417 0 0 1-1.482 1.612c-.26.264-.5.524-.776.79-.294.262-.573.549-.888.78-1.226.979-2.582 1.721-3.963 2.302-1.384.582-2.796 1.026-4.207 1.404-2.822.753-5.654 1.252-8.397 1.834-1.37.288-2.72.603-3.973 1.052-1.23.467-2.398 1.065-2.956 2.135l-.007.015a.555.555 0 0 1-1.03-.396" fill="#1c345a" fill-rule="evenodd" data-name="Path 3290"/><path d="M86.518 233.53a1.1 1.1 0 0 1-.65-.212c-11.127-8.11-7.618-24.432-7.463-25.123a1.103 1.103 0 1 1 2.155.482c-.034.155-3.339 15.605 6.61 22.856a1.104 1.104 0 0 1-.652 1.997" fill="#1c345a" fill-rule="evenodd" data-name="Path 3291"/><path d="M104.654 177.296c-.61 0-1.104-.495-1.104-1.105v-81.96a1.104 1.104 0 1 1 2.209 0v81.96c0 .61-.495 1.105-1.105 1.105" fill="#1c345a" fill-rule="evenodd" data-name="Path 3292"/><path d="M129.79 233.53c-.08 0-.163-.009-.245-.028-3.22-.728-4.839-2.874-6.403-4.949-2.089-2.769-4.062-5.386-10.059-5.236-3.317.077-5.827-.844-7.44-2.751-2.625-3.1-1.796-7.59-1.76-7.78a1.104 1.104 0 0 1 2.169.417c-.013.071-.65 3.673 1.284 5.945 1.161 1.366 3.077 2.028 5.693 1.961 7.13-.167 9.653 3.167 11.876 6.114 1.447 1.919 2.696 3.575 5.128 4.125a1.104 1.104 0 0 1-.243 2.182" fill="#1c345a" fill-rule="evenodd" data-name="Path 3293"/><path d="M119.424 110.89c0 3.198-6.33 5.79-14.137 5.79s-14.137-2.592-14.137-5.79 6.33-5.79 14.137-5.79c7.808 0 14.137 2.592 14.137 5.79" fill="#e2e2e2" fill-rule="evenodd" data-name="Path 3294"/><path d="M105.287 116.851c-7.89 0-14.308-2.674-14.308-5.961 0-3.287 6.419-5.962 14.308-5.962 7.89 0 14.308 2.675 14.308 5.962s-6.418 5.961-14.308 5.961m0-11.58c-7.7 0-13.966 2.52-13.966 5.619 0 3.099 6.265 5.62 13.966 5.62s13.966-2.521 13.966-5.62-6.265-5.62-13.966-5.62" fill="#1c345a" fill-rule="evenodd" data-name="Path 3295"/><path d="M119.424 110.89c0 3.198-6.33 5.79-14.137 5.79s-14.137-2.592-14.137-5.79 6.33-5.79 14.137-5.79c7.808 0 14.137 2.592 14.137 5.79" fill="#fff" fill-rule="evenodd" data-name="Path 3296"/><path d="M105.287 116.851c-7.89 0-14.308-2.674-14.308-5.961 0-3.287 6.419-5.962 14.308-5.962 7.89 0 14.308 2.675 14.308 5.962s-6.418 5.961-14.308 5.961m0-11.58c-7.7 0-13.966 2.52-13.966 5.619 0 3.099 6.265 5.62 13.966 5.62s13.966-2.521 13.966-5.62-6.265-5.62-13.966-5.62" fill="#1c345a" fill-rule="evenodd" data-name="Path 3297"/><g data-name="Group 6790"><g data-name="Group 6789"><g data-name="Group 6788" transform="translate(91.15 105.1)" clip-path="url(&quot;#B&quot;)"><path d="M28.273 5.79c0 3.199-6.329 5.79-14.137 5.79C6.33 11.58 0 8.99 0 5.79 0 2.592 6.33 0 14.136 0c7.808 0 14.137 2.592 14.137 5.79" fill="#1c345a" fill-rule="evenodd" data-name="Path 3298"/></g></g></g><path d="M105.287 117.739c-8.662 0-15.195-2.945-15.195-6.85 0-3.903 6.533-6.848 15.195-6.848 8.663 0 15.195 2.945 15.195 6.849 0 3.904-6.532 6.849-15.195 6.849m0-11.581c-7.485 0-13.078 2.498-13.078 4.732s5.593 4.732 13.078 4.732c7.486 0 13.079-2.498 13.079-4.732s-5.593-4.732-13.079-4.732" fill="#1c345a" fill-rule="evenodd" data-name="Path 3299"/><path d="M154.953 104.973c.497 3.16-5.353 6.703-13.065 7.916-7.713 1.213-14.368-.365-14.865-3.524-.497-3.16 5.353-6.703 13.066-7.916 7.712-1.213 14.367.365 14.864 3.524" fill="#fff" fill-rule="evenodd" data-name="Path 3300"/><path d="M136.816 113.47c-1.861 0-3.597-.18-5.106-.537-2.88-.683-4.604-1.94-4.856-3.541-.252-1.601 1.003-3.328 3.534-4.861 2.487-1.507 5.922-2.661 9.674-3.251 3.752-.59 7.376-.546 10.204.125 2.88.683 4.604 1.94 4.856 3.541.252 1.601-1.004 3.328-3.534 4.861-2.487 1.506-5.922 2.661-9.674 3.251a33.02 33.02 0 0 1-5.098.412m8.345-12.26a32.66 32.66 0 0 0-5.046.408c-3.709.583-7.1 1.721-9.55 3.205-2.404 1.457-3.602 3.06-3.373 4.515.228 1.455 1.861 2.614 4.597 3.262 2.786.661 6.364.703 10.072.12 3.709-.583 7.1-1.721 9.55-3.205 2.404-1.457 3.602-3.06 3.373-4.515-.229-1.455-1.861-2.614-4.597-3.263-1.484-.351-3.193-.528-5.026-.528" fill="#1c345a" fill-rule="evenodd" data-name="Path 3301"/><path d="M136.818 114.357c-1.932 0-3.738-.187-5.313-.56-3.253-.772-5.216-2.287-5.527-4.267-.312-1.98 1.091-4.026 3.95-5.758 2.583-1.565 6.133-2.761 9.996-3.368 3.862-.608 7.609-.559 10.547.138 3.253.771 5.216 2.286 5.528 4.267.311 1.98-1.092 4.025-3.952 5.757-2.582 1.565-6.132 2.761-9.995 3.369-1.793.282-3.56.422-5.234.422m8.346-12.261c-1.562 0-3.22.133-4.911.398-3.598.566-6.874 1.663-9.227 3.088-2.016 1.222-3.122 2.574-2.958 3.619.165 1.044 1.632 1.992 3.925 2.536 2.677.635 6.133.673 9.73.107 3.598-.566 6.875-1.663 9.227-3.088 2.016-1.222 3.122-2.574 2.958-3.619-.165-1.044-1.632-1.992-3.925-2.536-1.42-.336-3.057-.505-4.82-.505" fill="#1c345a" fill-rule="evenodd" data-name="Path 3302"/><path d="M55.621 104.973c-.497 3.16 5.353 6.703 13.066 7.916 7.712 1.213 14.368-.365 14.864-3.524.497-3.16-5.353-6.703-13.065-7.916-7.713-1.213-14.368.365-14.865 3.524" fill="#fff" fill-rule="evenodd" data-name="Path 3303"/><path d="M73.759 113.47c-1.627 0-3.35-.137-5.1-.412-3.75-.59-7.186-1.745-9.672-3.25-2.531-1.534-3.787-3.26-3.535-4.862.252-1.6 1.976-2.858 4.856-3.541 2.829-.67 6.452-.715 10.204-.125 3.752.59 7.187 1.744 9.674 3.25 2.53 1.534 3.786 3.26 3.534 4.862-.252 1.6-1.976 2.858-4.856 3.541-1.509.358-3.245.537-5.105.537m-8.346-12.26c-1.834 0-3.542.176-5.026.528-2.736.648-4.368 1.807-4.597 3.261-.229 1.455.97 3.059 3.374 4.516 2.449 1.484 5.84 2.622 9.55 3.205 3.708.584 7.285.54 10.072-.12 2.735-.648 4.368-1.807 4.597-3.262.228-1.454-.97-3.058-3.374-4.515-2.45-1.484-5.841-2.622-9.55-3.205a32.661 32.661 0 0 0-5.046-.409" fill="#1c345a" fill-rule="evenodd" data-name="Path 3304"/><g data-name="Group 6793"><g data-name="Group 6792"><g data-name="Group 6791" transform="translate(126.994 101.04)" clip-path="url(&quot;#C&quot;)"><path d="M27.96 3.932c.496 3.16-5.354 6.704-13.066 7.917C7.18 13.062.526 11.484.029 8.325-.468 5.165 5.382 1.62 13.095.408c7.712-1.212 14.367.365 14.864 3.524" fill="#1c345a" fill-rule="evenodd" data-name="Path 3305"/></g></g></g><g data-name="Group 6796"><g data-name="Group 6795"><g data-name="Group 6794" transform="translate(55.592 101.04)" clip-path="url(&quot;#D&quot;)"><path d="M.03 3.932c-.497 3.16 5.352 6.704 13.065 7.917 7.713 1.213 14.368-.365 14.865-3.524.497-3.16-5.353-6.704-13.066-7.917C7.181-.804.526.773.03 3.932" fill="#1c345a" fill-rule="evenodd" data-name="Path 3306"/></g></g></g><path d="M73.756 114.357c-1.673 0-3.44-.14-5.234-.422-3.862-.608-7.412-1.804-9.995-3.369-2.86-1.732-4.263-3.777-3.951-5.757.31-1.98 2.274-3.496 5.527-4.267 2.939-.697 6.684-.746 10.547-.138 3.863.607 7.413 1.803 9.996 3.368 2.859 1.733 4.262 3.777 3.95 5.758-.31 1.98-2.274 3.495-5.527 4.267-1.574.373-3.38.56-5.313.56m-8.346-12.261c-1.762 0-3.4.169-4.818.505-2.294.544-3.761 1.492-3.926 2.536-.164 1.045.942 2.398 2.958 3.619 2.353 1.425 5.63 2.522 9.227 3.088 3.598.565 7.053.527 9.73-.107 2.293-.544 3.76-1.492 3.925-2.536.164-1.045-.941-2.397-2.957-3.619-2.353-1.425-5.63-2.522-9.228-3.088a31.85 31.85 0 0 0-4.91-.398" fill="#1c345a" fill-rule="evenodd" data-name="Path 3307"/><path d="M168.625 94.92c0 8.82-28.357 15.97-63.338 15.97-34.98 0-63.338-7.15-63.338-15.97s28.357-15.97 63.338-15.97c34.98 0 63.338 7.15 63.338 15.97" fill="#999" fill-rule="evenodd" data-name="Path 3308"/><path d="M105.287 111.061c-16.932 0-32.852-1.663-44.828-4.683-12.047-3.037-18.68-7.106-18.68-11.458s6.633-8.42 18.68-11.458c11.976-3.02 27.896-4.683 44.828-4.683 16.932 0 32.852 1.663 44.829 4.683 12.046 3.037 18.68 7.106 18.68 11.458s-6.634 8.42-18.68 11.458c-11.977 3.02-27.897 4.683-44.829 4.683m0-31.94c-34.83 0-63.167 7.087-63.167 15.799s28.337 15.799 63.167 15.799 63.167-7.087 63.167-15.8c0-8.71-28.336-15.798-63.167-15.798" fill="#1c345a" fill-rule="evenodd" data-name="Path 3309"/><path d="M168.464 96.063c-.357 1.276-1.31 2.511-2.786 3.686-8.117 6.458-32.086 11.142-60.39 11.142-28.306 0-52.274-4.684-60.392-11.142-1.476-1.175-2.429-2.41-2.786-3.686 2.331-5.109 29.726-9.141 63.177-9.141s60.846 4.032 63.177 9.141" fill="#fff" fill-rule="evenodd" data-name="Path 3310"/><path d="M105.287 111.112c-27.792 0-52.116-4.497-60.528-11.19-1.535-1.221-2.497-2.5-2.861-3.8l-.022-.077.033-.073c2.411-5.285 29.658-9.27 63.378-9.27s60.967 3.985 63.378 9.27l.034.073-.022.078c-.364 1.3-1.327 2.578-2.861 3.799-8.413 6.693-32.737 11.19-60.529 11.19m-62.941-15.03c.355 1.183 1.26 2.358 2.688 3.494 8.34 6.636 32.554 11.094 60.253 11.094 27.7 0 51.914-4.458 60.254-11.094 1.428-1.136 2.332-2.311 2.688-3.493-2.535-5.02-30.091-8.94-62.942-8.94-32.85 0-60.407 3.92-62.941 8.94" fill="#1c345a" fill-rule="evenodd" data-name="Path 3311"/><g data-name="Group 6799"><g data-name="Group 6798"><g data-name="Group 6797" transform="translate(42.11 86.922)" clip-path="url(&quot;#E&quot;)"><path d="M126.354 9.141c-.357 1.276-1.31 2.511-2.786 3.686-8.117 3.985-32.086 6.871-60.39 6.871-28.306 0-52.275-2.886-60.392-6.871C1.31 11.652.357 10.417 0 9.141 2.33 4.032 29.726 0 63.177 0s60.846 4.032 63.177 9.141" fill="#1c345a" fill-rule="evenodd" data-name="Path 3312"/></g></g></g><path d="M105.287 111.948c-17.003 0-33-1.672-45.045-4.71-8.828-2.225-19.351-6.17-19.351-12.318 0-6.15 10.523-10.093 19.35-12.319 12.046-3.037 28.043-4.71 45.046-4.71s33 1.673 45.046 4.71c8.827 2.226 19.35 6.17 19.35 12.319 0 6.149-10.523 10.093-19.35 12.319-12.045 3.037-28.043 4.71-45.046 4.71m0-31.94c-37.254 0-62.28 7.71-62.28 14.911s25.026 14.912 62.28 14.912c37.254 0 62.28-7.71 62.28-14.912 0-7.201-25.026-14.912-62.28-14.912" fill="#1c345a" fill-rule="evenodd" data-name="Path 3313"/><path d="M209.516 76.052v6.086c0 11.325-46.665 20.505-104.229 20.505S1.058 93.463 1.058 82.138v-6.086" fill="#00aeef" fill-rule="evenodd" data-name="Path 3314"/><path d="M105.287 102.815c-27.851 0-54.037-2.135-73.734-6.01C11.778 92.915.887 87.705.887 82.137v-6.085h.342v6.085c0 11.213 46.68 20.335 104.058 20.335 57.378 0 104.058-9.122 104.058-20.335v-6.085h.342v6.085c0 5.568-10.89 10.778-30.666 14.668-19.697 3.875-45.882 6.01-73.734 6.01" fill="#1c345a" fill-rule="evenodd" data-name="Path 3315"/><g data-name="Group 6802"><g data-name="Group 6801"><g data-name="Group 6800" transform="translate(1.057 79.315)" clip-path="url(&quot;#F&quot;)"><path d="M208.46 0v2.823c0 11.324-46.665 20.505-104.23 20.505C46.664 23.328 0 14.148 0 2.823V0c0 11.324 46.664 20.505 104.23 20.505 57.565 0 104.23-9.181 104.23-20.505" fill="#1c345a" fill-rule="evenodd" data-name="Path 3316"/></g></g></g><path d="M105.287 103.702c-27.907 0-54.154-2.14-73.905-6.026C17.066 94.859 0 89.877 0 82.137v-6.085a1.059 1.059 0 0 1 2.117 0v6.085c0 9.392 41.456 19.448 103.17 19.448s103.17-10.056 103.17-19.448v-6.085a1.059 1.059 0 0 1 2.117 0v6.085c0 7.74-17.065 12.722-31.382 15.539-19.751 3.886-45.998 6.026-73.905 6.026" fill="#1c345a" fill-rule="evenodd" data-name="Path 3317"/><path d="M209.395 76.052c0 11.325-46.665 20.506-104.23 20.506C47.603 96.558.938 87.378.938 76.052c0-11.325 46.665-20.506 104.229-20.506s104.229 9.18 104.229 20.506" fill="#b8c5d3" fill-rule="evenodd" data-name="Path 3318"/><g data-name="Group 6805"><g data-name="Group 6804"><g data-name="Group 6803" transform="translate(100.085 82.478)" clip-path="url(&quot;#G&quot;)"><path d="M6.57 9.573C2.886 9.573 0 7.47 0 4.786 0 2.102 2.886 0 6.57 0s6.57 2.102 6.57 4.786c0 2.684-2.886 4.787-6.57 4.787m0-7.456c-2.414 0-4.453 1.222-4.453 2.67 0 1.446 2.04 2.669 4.453 2.669 2.413 0 4.453-1.223 4.453-2.67 0-1.447-2.04-2.67-4.453-2.67" fill="#fff" fill-rule="evenodd" data-name="Path 3319"/></g></g></g><g data-name="Group 6808"><g data-name="Group 6807"><g data-name="Group 6806" transform="translate(141.18 81.166)" clip-path="url(&quot;#H&quot;)"><path d="M6.359 9.582c-1.525 0-2.973-.377-4.117-1.076C.881 7.673.066 6.429.004 5.092c-.061-1.337.637-2.65 1.916-3.604C3.096.612 4.667.087 6.347.01c3.675-.17 6.659 1.799 6.782 4.48.123 2.681-2.663 4.914-6.343 5.082-.143.007-.286.01-.427.01m.412-7.465a7.18 7.18 0 0 0-.327.007c-1.243.057-2.43.444-3.259 1.06-.415.31-1.106.957-1.066 1.811.039.854.786 1.435 1.228 1.705.88.539 2.097.814 3.342.758 2.41-.11 4.392-1.426 4.325-2.871-.063-1.38-1.973-2.47-4.243-2.47" fill="#fff" fill-rule="evenodd" data-name="Path 3320"/></g></g></g><g data-name="Group 6811"><g data-name="Group 6810"><g data-name="Group 6809" transform="translate(176.056 75.242)" clip-path="url(&quot;#I&quot;)"><path d="M6.344 9.583c-3.473 0-6.22-1.915-6.34-4.487-.062-1.337.635-2.651 1.914-3.606C3.093.614 4.665.088 6.344.01c1.678-.077 3.293.3 4.544 1.064 1.362.832 2.178 2.076 2.24 3.413.062 1.337-.636 2.65-1.914 3.605-1.175.877-2.747 1.403-4.426 1.48-.15.008-.297.01-.444.01m.424-7.465c-.109 0-.217.003-.326.008-1.243.057-2.43.444-3.258 1.062-.415.31-1.106.957-1.066 1.81.067 1.446 2.168 2.575 4.572 2.461 1.243-.058 2.43-.445 3.258-1.062.415-.31 1.105-.957 1.066-1.811-.04-.854-.787-1.435-1.23-1.704-.803-.492-1.888-.764-3.016-.764" fill="#fff" fill-rule="evenodd" data-name="Path 3321"/></g></g></g><g data-name="Group 6814"><g data-name="Group 6813"><g data-name="Group 6812" transform="translate(60.009 81.165)" clip-path="url(&quot;#J&quot;)"><path d="M6.786 9.583c-.145 0-.291-.003-.439-.01C2.667 9.404-.119 7.172.004 4.491.127 1.809 3.109-.16 6.786.01c1.68.077 3.251.601 4.427 1.478 1.279.953 1.977 2.267 1.916 3.604-.118 2.574-2.868 4.49-6.343 4.49M2.119 4.588c-.067 1.445 1.914 2.76 4.325 2.87 2.414.11 4.504-1.017 4.57-2.462.04-.854-.651-1.5-1.066-1.81-.828-.618-2.016-1.004-3.26-1.061-2.41-.109-4.503 1.017-4.57 2.463" fill="#fff" fill-rule="evenodd" data-name="Path 3322"/></g></g></g><g data-name="Group 6817"><g data-name="Group 6816"><g data-name="Group 6815" transform="translate(25.133 75.242)" clip-path="url(&quot;#K&quot;)"><path d="M6.788 9.583c-.147 0-.295-.003-.444-.01-1.68-.078-3.251-.604-4.426-1.48C.64 7.137-.058 5.822.004 4.486c.062-1.337.879-2.581 2.24-3.413C3.494.31 5.109-.068 6.788.01c1.68.078 3.251.604 4.426 1.48 1.279.955 1.976 2.269 1.915 3.606-.12 2.572-2.869 4.487-6.341 4.487m-.423-7.466c-1.129 0-2.214.272-3.018.764-.442.27-1.19.85-1.229 1.704-.04.854.651 1.5 1.066 1.81.828.618 2.015 1.005 3.258 1.063 2.408.11 4.505-1.015 4.572-2.46.04-.854-.65-1.501-1.066-1.811-.828-.618-2.015-1.005-3.258-1.062a7.074 7.074 0 0 0-.325-.008M1.06 4.536h.003-.003Z" fill="#fff" fill-rule="evenodd" data-name="Path 3323"/></g></g></g><g data-name="Group 6820"><g data-name="Group 6819"><g data-name="Group 6818" transform="translate(45.246 57.306)" clip-path="url(&quot;#L&quot;)"><path d="M121.095 9.584c0 5.294-27.108 12.802-60.548 12.802C27.108 22.386 0 14.878 0 9.584 0 4.291 27.108 0 60.547 0c33.44 0 60.548 4.291 60.548 9.584" fill="#fff" fill-rule="evenodd" data-name="Path 3324"/></g></g></g><g data-name="Group 6823"><g data-name="Group 6822"><g data-name="Group 6821" transform="translate(148.29 68.813)" clip-path="url(&quot;#M&quot;)"><path d="M0 1.115s16.26 8.187 19.252 12.394c2.993 4.206 8.66 8.759 8.66 8.759S80.346 11.97 53.469 0c0 0 6.793 4.375 4.935 7.603-2.69 4.672-14.336 8.866-22.02 10.515-4.104.88-8.388-.276-11.462-3.132-4.076-3.789-11.12-9.333-21.262-13.871-3.486-1.56-3.66 0-3.66 0" fill="#1c345a" fill-rule="evenodd" data-name="Path 3325"/></g></g></g><g data-name="Group 6826"><g data-name="Group 6825"><g data-name="Group 6824" transform="translate(2.161 68.813)" clip-path="url(&quot;#N&quot;)"><path d="M61.134 1.115S44.875 9.302 41.882 13.509c-2.993 4.206-8.66 8.759-8.66 8.759S-19.21 11.97 7.666 0c0 0-6.954 4.473-4.934 7.603 3.394 5.262 13.858 8.725 21.53 10.408a13.777 13.777 0 0 0 12.267-3.317c4.119-3.777 11.061-9.156 20.946-13.58 3.487-1.56 3.66 0 3.66 0" fill="#1c345a" fill-rule="evenodd" data-name="Path 3326"/></g></g></g><g data-name="Group 6829"><g data-name="Group 6828"><g data-name="Group 6827" transform="translate(35.595 69.927)" clip-path="url(&quot;#O&quot;)"><path d="M27.111.541S3.587 12.961 0 21.373c0 0 28.632 5.258 69.692 5.258 41.061 0 70.078-5.908 70.078-5.908S122.543 1.09 111.077.24c-11.467-.85-3.317.83-3.317.83s16.081 7.105 24.431 15.127c1.275 1.225.592 3.376-1.159 3.62-9.251 1.288-33.893 4.306-61.695 4.306-27.45 0-51.101-2.836-60.296-4.103-1.756-.242-2.45-2.412-1.157-3.624a65.773 65.773 0 0 1 5.961-4.932c4.228-3.114 15.531-9.667 15.531-9.667L27.111.541Z" fill="#1c345a" fill-rule="evenodd" data-name="Path 3327"/></g></g></g><path d="M161.45 64.816c0 6.102-25.145 11.05-56.163 11.05-31.017 0-56.162-4.948-56.162-11.05 0-6.103 56.162-6.375 56.162-6.375s56.162.272 56.162 6.375" fill="#1c345a" fill-rule="evenodd" data-name="Path 3328"/><path d="M105.287 76.086c-31.616 0-56.383-4.95-56.383-11.27 0-6.145 50.611-6.568 56.382-6.596 5.773.028 56.384.451 56.384 6.596 0 6.32-24.766 11.27-56.383 11.27m-.001-17.424c-15.558.076-55.94 1.328-55.94 6.154 0 2.793 5.93 5.562 16.271 7.596 10.594 2.085 24.683 3.232 39.67 3.232 14.988 0 29.076-1.147 39.67-3.232 10.34-2.034 16.271-4.803 16.271-7.596 0-4.826-40.382-6.078-55.942-6.154" fill="#1c345a" fill-rule="evenodd" data-name="Path 3329"/><path d="M98.993 75.943c.402.015.806.028 1.211.039h.03a180.275 180.275 0 0 0 13.603-.132h.002c15.754-.755 27.446-3.548 27.446-6.88 0-2.825-18.77-3.7-29.203-3.969-.137-.004-.274-.005-.407-.01-.86-.021-1.659-.038-2.379-.051-2.458-.048-4.009-.055-4.009-.055s-1.188.005-3.132.038l-.38.006c-1.092.02-2.395.048-3.84.087-10.53.285-28.648 1.18-28.648 3.954 0 3.25 11.13 5.99 26.3 6.823.06.002.117.005.176.01l3.23.14Z" fill="#1c345a" fill-rule="evenodd" data-name="Path 3330"/><path d="M105.287 76.273a180.535 180.535 0 0 1-6.302-.11h-.001l-3.23-.14-.173-.01c-13.2-.724-26.515-3.183-26.515-7.043 0-2.252 9.711-3.656 28.863-4.175 1.446-.039 2.75-.067 3.842-.087l.38-.006c1.946-.033 3.135-.038 3.135-.038.018 0 1.583.008 4.015.055.72.013 1.518.03 2.38.052l.408.01c13.42.345 29.417 1.351 29.417 4.189 0 3.99-13.89 6.441-27.656 7.101-2.797.134-5.678.202-8.563.202m-6.284-.55a182.075 182.075 0 0 0 14.824-.093c15.783-.757 27.237-3.558 27.237-6.66 0-1.88-10.836-3.281-28.987-3.748l-.408-.01c-.86-.021-1.657-.038-2.377-.051-2.428-.048-3.99-.056-4.006-.056.001 0-1.186.006-3.127.04l-.38.005c-1.091.02-2.394.048-3.838.087-17.804.482-28.433 1.877-28.433 3.733 0 2.995 10.973 5.772 26.091 6.602l.155.008 3.249.142Z" fill="#1c345a" fill-rule="evenodd" data-name="Path 3331"/><path d="M161.45 64.815c0 .71-.34 1.403-.986 2.076-7.494-4.815-55.177-5.044-55.177-5.044s-47.682.23-55.176 5.044c-.646-.673-.986-1.367-.986-2.076 0-6.1 56.162-6.374 56.162-6.374s56.163.274 56.163 6.374" fill="#7a7a7a" fill-rule="evenodd" data-name="Path 3332"/><path d="m50.077 67.175-.126-.131c-.694-.724-1.047-1.474-1.047-2.228 0-6.144 50.611-6.568 56.382-6.596 5.773.028 56.385.452 56.385 6.596 0 .755-.353 1.504-1.048 2.228l-.126.13-.152-.097c-7.355-4.725-54.583-5.007-55.059-5.009-.474.002-47.701.284-55.056 5.009l-.153.098Zm55.21-5.549c1.938.01 47.21.281 55.138 4.982.534-.597.804-1.199.804-1.792 0-4.825-40.383-6.078-55.943-6.154-15.558.076-55.94 1.33-55.94 6.154 0 .593.27 1.195.803 1.792 7.93-4.7 53.201-4.972 55.137-4.982" fill="#1c345a" fill-rule="evenodd" data-name="Path 3333"/><path d="M105.287 97.616c-27.907 0-54.154-2.14-73.905-6.026C17.066 88.774 0 83.792 0 76.052S17.066 63.33 31.382 60.514c19.751-3.886 45.998-6.026 73.905-6.026 27.907 0 54.154 2.14 73.905 6.026 14.317 2.816 31.382 7.798 31.382 15.538S193.51 88.774 179.192 91.59c-19.751 3.886-45.998 6.026-73.905 6.026m0-41.012c-61.714 0-103.17 10.056-103.17 19.448 0 9.392 41.456 19.448 103.17 19.448s103.17-10.056 103.17-19.448c0-9.392-41.456-19.448-103.17-19.448" fill="#1c345a" fill-rule="evenodd" data-name="Path 3334"/><path d="M160.7 65.803c0 6.021-24.81 10.902-55.413 10.902-30.603 0-55.412-4.88-55.412-10.902 0-21.098 10.873-64.375 55.412-64.375 44.54 0 55.412 43.277 55.412 64.375" fill="#00aeef" fill-rule="evenodd" data-name="Path 3335"/><g data-name="Group 6832"><g data-name="Group 6831"><g data-name="Group 6830" transform="translate(49.875 1.428)" clip-path="url(&quot;#P&quot;)"><path d="M2.051 66.427c0-21.099 10.873-64.376 55.412-64.376 15.664 0 27.159 5.356 35.486 13.214C84.49 6.302 72.404 0 55.412 0 10.872 0 0 43.277 0 64.375c0 1.088.814 2.138 2.32 3.13a2.4 2.4 0 0 1-.269-1.078" fill="#fff" fill-rule="evenodd" data-name="Path 3336"/></g></g></g><path d="M105.287 78.133c-22.848 0-56.84-3.284-56.84-12.33 0-5.31.81-23.946 11.216-40.848C69.715 8.629 85.492 0 105.287 0c44.96 0 56.84 43.043 56.84 65.803 0 9.046-33.992 12.33-56.84 12.33m0-75.277c-42.701 0-53.984 41.175-53.984 62.947 0 1.241 3.176 3.966 15.078 6.308 10.378 2.042 24.195 3.166 38.906 3.166 14.711 0 28.529-1.124 38.907-3.166 11.902-2.342 15.077-5.067 15.077-6.308 0-10.55-2.835-26.428-10.791-39.35-9.641-15.658-24.173-23.597-43.193-23.597" fill="#1c345a" fill-rule="evenodd" data-name="Path 3337"/><path d="M110.798 86.922c0 2.059-2.467 3.728-5.51 3.728-3.044 0-5.512-1.669-5.512-3.728s2.468-3.728 5.511-3.728c3.044 0 5.511 1.67 5.511 3.728" fill="#fff" fill-rule="evenodd" data-name="Path 3338"/><path d="M105.287 90.871c-3.16 0-5.732-1.772-5.732-3.95 0-2.176 2.572-3.948 5.732-3.948s5.732 1.772 5.732 3.949c0 2.177-2.571 3.949-5.732 3.949m0-7.456c-2.917 0-5.29 1.573-5.29 3.507 0 1.934 2.373 3.507 5.29 3.507s5.29-1.573 5.29-3.507c0-1.934-2.373-3.507-5.29-3.507" fill="#1c345a" fill-rule="evenodd" data-name="Path 3339"/><g data-name="Group 6835"><g data-name="Group 6834"><g data-name="Group 6833" transform="translate(99.555 82.973)" clip-path="url(&quot;#Q&quot;)"><path d="M11.244 3.95c0 .399-.093.782-.265 1.142-.714-1.5-2.794-2.585-5.247-2.585C3.28 2.507 1.2 3.592.486 5.092A2.634 2.634 0 0 1 .22 3.95C.221 1.891 2.69.221 5.732.221c3.043 0 5.512 1.67 5.512 3.728" fill="#1c345a" fill-rule="evenodd" data-name="Path 3340"/><path d="m10.98 5.605-.2-.418c-.7-1.47-2.729-2.459-5.047-2.459-2.32 0-4.347.988-5.048 2.459l-.199.418-.2-.418A2.855 2.855 0 0 1 0 3.95C0 1.772 2.572 0 5.733 0c3.16 0 5.732 1.772 5.732 3.949 0 .424-.096.84-.286 1.238l-.2.418ZM5.732.442C2.816.442.443 2.015.443 3.95c0 .211.028.42.084.626.926-1.386 2.943-2.289 5.206-2.289 2.262 0 4.28.903 5.205 2.289.057-.206.085-.415.085-.626 0-1.934-2.373-3.507-5.29-3.507" fill="#1c345a" fill-rule="evenodd" data-name="Path 3341"/></g></g></g><path d="M105.287 91.708c-3.684 0-6.57-2.102-6.57-4.786 0-2.684 2.886-4.786 6.57-4.786s6.57 2.102 6.57 4.786c0 2.684-2.886 4.786-6.57 4.786m0-7.455c-2.413 0-4.452 1.222-4.452 2.669s2.039 2.67 4.452 2.67c2.414 0 4.453-1.223 4.453-2.67 0-1.447-2.04-2.67-4.453-2.67" fill="#1c345a" fill-rule="evenodd" data-name="Path 3342"/><path d="M151.884 85.362c.094 2.057-2.294 3.838-5.335 3.977-3.04.14-5.581-1.415-5.676-3.471-.094-2.057 2.294-3.838 5.335-3.977 3.04-.14 5.581 1.415 5.676 3.471" fill="#fff" fill-rule="evenodd" data-name="Path 3343"/><path d="M146.169 89.569c-1.371 0-2.664-.334-3.678-.954-1.136-.695-1.79-1.667-1.839-2.737-.048-1.07.513-2.099 1.58-2.895 1.043-.777 2.451-1.243 3.966-1.313 1.511-.069 2.958.266 4.068.945 1.136.695 1.79 1.667 1.838 2.737.05 1.07-.512 2.099-1.58 2.895-1.043.777-2.45 1.243-3.965 1.313a8.47 8.47 0 0 1-.39.009m.42-7.466c-.123 0-.247.003-.371.009-1.427.065-2.749.5-3.721 1.225-.947.706-1.445 1.601-1.403 2.52.042.92.62 1.765 1.628 2.382 1.034.632 2.39.946 3.817.88 1.427-.066 2.748-.501 3.721-1.226.947-.706 1.445-1.601 1.403-2.52-.042-.92-.62-1.765-1.628-2.381-.944-.578-2.156-.889-3.446-.889" fill="#1c345a" fill-rule="evenodd" data-name="Path 3344"/><g data-name="Group 6838"><g data-name="Group 6837"><g data-name="Group 6836" transform="translate(140.65 81.926)" clip-path="url(&quot;#R&quot;)"><path d="M11.233 3.702c.037.8-.302 1.556-.908 2.194 0-.037 0-.074-.003-.111-.092-2.056-2.635-3.61-5.675-3.472-1.857.085-3.474.783-4.426 1.784C.213 2.089 2.57.367 5.557.229c3.04-.138 5.583 1.415 5.676 3.473" fill="#1c345a" fill-rule="evenodd" data-name="Path 3345"/><path d="M10.104 6.449v-.553c0-.032 0-.064-.002-.096-.042-.924-.62-1.769-1.627-2.385-1.035-.632-2.39-.945-3.818-.88-1.73.078-3.329.72-4.276 1.714l-.379.398L0 4.097C-.01 1.948 2.428.153 5.547.008c1.516-.065 2.96.268 4.068.947 1.137.695 1.79 1.668 1.838 2.739.039.834-.296 1.648-.968 2.355l-.38.4ZM5.023 2.084c1.372 0 2.668.334 3.682.954.985.602 1.606 1.412 1.786 2.312.368-.515.547-1.073.521-1.637-.041-.92-.62-1.766-1.627-2.383C8.35.697 6.995.386 5.567.45 3.021.565.906 1.9.51 3.532c1.037-.839 2.534-1.368 4.128-1.44.13-.006.258-.01.386-.01" fill="#1c345a" fill-rule="evenodd" data-name="Path 3346"/></g></g></g><path d="M146.17 90.406c-1.524 0-2.972-.376-4.116-1.076-1.36-.833-2.177-2.077-2.238-3.414-.061-1.337.637-2.65 1.916-3.604 1.175-.876 2.747-1.401 4.427-1.478 1.676-.076 3.293.301 4.544 1.066 1.36.833 2.176 2.077 2.238 3.414.061 1.337-.637 2.65-1.917 3.604-1.175.876-2.747 1.401-4.426 1.478-.143.007-.286.01-.428.01m.408-7.465a7.18 7.18 0 0 0-.322.007c-1.243.057-2.43.444-3.259 1.06-.415.31-1.106.957-1.067 1.811.04.854.787 1.435 1.229 1.705.88.539 2.1.815 3.342.758 1.243-.057 2.43-.444 3.259-1.06.415-.31 1.105-.957 1.066-1.811-.039-.854-.786-1.435-1.228-1.705-.804-.492-1.89-.765-3.02-.765" fill="#1c345a" fill-rule="evenodd" data-name="Path 3347"/><path d="M186.76 79.436c.095 2.057-2.292 3.838-5.333 3.98-3.04.14-5.582-1.412-5.677-3.469-.096-2.057 2.291-3.838 5.332-3.98 3.04-.14 5.582 1.412 5.678 3.469" fill="#fff" fill-rule="evenodd" data-name="Path 3348"/><path d="M181.043 83.645c-1.37 0-2.661-.333-3.674-.951-1.137-.695-1.79-1.667-1.84-2.737-.05-1.07.51-2.098 1.578-2.895 1.043-.778 2.45-1.245 3.964-1.315 3.155-.148 5.808 1.503 5.91 3.679.049 1.07-.512 2.098-1.58 2.895-1.042.778-2.45 1.245-3.963 1.315-.133.006-.265.01-.395.01m.422-7.466a7.9 7.9 0 0 0-.373.008c-1.427.066-2.748.502-3.72 1.228-.947.706-1.445 1.602-1.402 2.52.043.92.621 1.765 1.63 2.381 1.035.632 2.387.945 3.817.878 1.427-.066 2.748-.502 3.72-1.228.947-.706 1.445-1.602 1.402-2.52-.086-1.85-2.328-3.267-5.074-3.267" fill="#1c345a" fill-rule="evenodd" data-name="Path 3349"/><g data-name="Group 6841"><g data-name="Group 6840"><g data-name="Group 6839" transform="translate(175.714 75.738)" clip-path="url(&quot;#S&quot;)"><path d="M11.046 3.699c.066 1.434-1.076 2.736-2.807 3.44.437-.567.672-1.21.64-1.882-.095-2.056-2.637-3.609-5.677-3.469-.921.043-1.781.236-2.53.543C1.566 1.164 3.32.325 5.368.23c3.04-.143 5.583 1.41 5.678 3.469" fill="#1c345a" fill-rule="evenodd" data-name="Path 3350"/><path d="m7.565 7.651.5-.647c.416-.542.622-1.142.594-1.736-.09-1.931-2.53-3.396-5.447-3.259a7.45 7.45 0 0 0-2.456.526L0 2.845l.497-.648C1.458.942 3.32.104 5.358.009c1.513-.07 2.96.264 4.069.942 1.137.694 1.79 1.667 1.84 2.738.069 1.487-1.06 2.888-2.945 3.654l-.757.308ZM3.578 1.56c2.984 0 5.425 1.603 5.522 3.688a2.89 2.89 0 0 1-.284 1.373c1.306-.719 2.061-1.793 2.01-2.91-.043-.92-.621-1.767-1.63-2.382C8.161.695 6.804.383 5.38.45c-1.537.071-2.961.585-3.92 1.383a8.189 8.189 0 0 1 2.12-.275" fill="#1c345a" fill-rule="evenodd" data-name="Path 3351"/></g></g></g><path d="M181.044 84.483c-1.522 0-2.968-.376-4.112-1.074-1.361-.832-2.178-2.076-2.24-3.413-.062-1.337.636-2.65 1.915-3.605 1.174-.877 2.746-1.403 4.426-1.48 3.676-.176 6.66 1.795 6.784 4.476.062 1.337-.636 2.65-1.915 3.605-1.174.877-2.746 1.403-4.426 1.48-.144.007-.288.01-.432.01m.417-7.465c-.11 0-.22.003-.33.008-1.244.058-2.431.445-3.258 1.062-.415.31-1.106.957-1.066 1.81.04.855.787 1.435 1.229 1.705.88.538 2.102.814 3.342.756 1.244-.057 2.431-.445 3.258-1.062.415-.31 1.106-.957 1.066-1.811-.064-1.379-1.972-2.468-4.241-2.468" fill="#1c345a" fill-rule="evenodd" data-name="Path 3352"/><path d="M59.703 85.362c-.095 2.057 2.294 3.838 5.334 3.977 3.04.14 5.582-1.415 5.676-3.471.095-2.057-2.294-3.838-5.334-3.977-3.04-.14-5.582 1.415-5.676 3.471" fill="#fff" fill-rule="evenodd" data-name="Path 3353"/><path d="M65.418 89.569c-.13 0-.26-.003-.391-.01-1.514-.069-2.922-.535-3.965-1.312-1.068-.796-1.629-1.825-1.58-2.895.05-1.07.702-2.042 1.839-2.737 1.11-.679 2.555-1.013 4.068-.945 1.514.07 2.922.536 3.965 1.313 1.068.796 1.629 1.825 1.58 2.895-.05 1.07-.702 2.042-1.839 2.737-1.013.62-2.307.954-3.677.954m-.42-7.466c-1.29 0-2.502.31-3.447.889-1.007.616-1.585 1.461-1.627 2.38-.043.92.455 1.815 1.402 2.52.973.726 2.294 1.16 3.721 1.226 1.427.067 2.783-.247 3.818-.88 1.007-.616 1.586-1.461 1.627-2.38.043-.92-.455-1.815-1.402-2.52-.973-.726-2.294-1.161-3.721-1.226a8.242 8.242 0 0 0-.372-.009" fill="#1c345a" fill-rule="evenodd" data-name="Path 3354"/><g data-name="Group 6844"><g data-name="Group 6843"><g data-name="Group 6842" transform="translate(59.423 81.66)" clip-path="url(&quot;#T&quot;)"><path d="M11.291 4.206c-.045.96-.621 1.81-1.532 2.426.059-.195.093-.4.104-.605C9.955 3.97 7.569 2.19 4.529 2.05c-1.622-.074-3.104.333-4.144 1.042C.895 1.346 3.225.105 5.955.23c3.042.14 5.429 1.92 5.336 3.976" fill="#1c345a" fill-rule="evenodd" data-name="Path 3355"/><path d="m9.371 7.162.177-.593c.052-.177.084-.364.094-.554.087-1.93-2.212-3.61-5.124-3.745-1.51-.07-2.972.297-4.008 1.005L0 3.622l.173-.592C.723 1.152 3.16-.12 5.965.01c3.156.145 5.645 2.033 5.547 4.207-.047.996-.625 1.92-1.629 2.6l-.512.346ZM4.16 1.82c.126 0 .253.003.38.009 3.155.146 5.642 2.033 5.544 4.207a4.361 4.361 0 0 1-.004.069c.611-.547.959-1.21.992-1.91.086-1.93-2.213-3.61-5.127-3.745C3.7.345 1.662 1.225.861 2.557 1.804 2.08 2.96 1.82 4.16 1.82" fill="#1c345a" fill-rule="evenodd" data-name="Path 3356"/></g></g></g><path d="M65.416 90.406c-.142 0-.284-.003-.428-.01-1.679-.077-3.251-.602-4.426-1.478-1.28-.953-1.978-2.267-1.916-3.604.06-1.337.877-2.581 2.238-3.414 1.25-.765 2.866-1.143 4.543-1.066 1.68.077 3.252.602 4.427 1.478 1.28.953 1.978 2.267 1.916 3.604-.06 1.337-.877 2.581-2.238 3.414-1.144.7-2.592 1.076-4.116 1.076m-.407-7.465c-1.13 0-2.216.273-3.02.765-.443.27-1.19.85-1.23 1.705-.038.854.653 1.5 1.068 1.81.828.617 2.015 1.004 3.259 1.06 1.242.057 2.461-.218 3.342-.757.442-.27 1.189-.851 1.228-1.705.039-.854-.652-1.5-1.067-1.81-.828-.617-2.015-1.004-3.259-1.06a7.079 7.079 0 0 0-.321-.008m-5.306 2.421h.004-.004Z" fill="#1c345a" fill-rule="evenodd" data-name="Path 3357"/><path d="M24.827 79.436c-.096 2.057 2.292 3.838 5.332 3.98 3.04.14 5.583-1.412 5.678-3.469.095-2.057-2.292-3.838-5.332-3.98-3.04-.14-5.583 1.412-5.678 3.469" fill="#fff" fill-rule="evenodd" data-name="Path 3358"/><path d="M30.539 83.595c-.129 0-.258-.003-.388-.009-1.504-.07-2.902-.533-3.936-1.305-1.054-.787-1.608-1.8-1.559-2.853.1-2.148 2.73-3.772 5.857-3.631 1.504.07 2.902.533 3.936 1.305 1.054.787 1.607 1.8 1.559 2.853-.096 2.058-2.513 3.64-5.47 3.64m-.416-7.465c-2.773 0-5.037 1.438-5.124 3.314-.044.936.461 1.846 1.421 2.563.98.731 2.311 1.171 3.748 1.238 2.937.139 5.408-1.347 5.5-3.306.043-.936-.462-1.846-1.422-2.563-.98-.731-2.311-1.17-3.748-1.238a7.978 7.978 0 0 0-.375-.008" fill="#1c345a" fill-rule="evenodd" data-name="Path 3359"/><path d="M30.554 84.483c-.147 0-.295-.003-.444-.01-1.68-.078-3.251-.604-4.426-1.48-1.279-.955-1.977-2.27-1.914-3.606.124-2.681 3.109-4.651 6.784-4.477 1.68.078 3.25.604 4.426 1.48 1.278.955 1.976 2.27 1.914 3.606-.12 2.572-2.868 4.487-6.34 4.487m-.428-7.466c-2.27 0-4.178 1.089-4.242 2.468-.04.854.651 1.501 1.066 1.81.827.618 2.015 1.005 3.258 1.063 2.41.11 4.504-1.015 4.572-2.46.04-.854-.651-1.501-1.066-1.81-.828-.618-2.015-1.005-3.258-1.063a7.074 7.074 0 0 0-.33-.008" fill="#1c345a" fill-rule="evenodd" data-name="Path 3360"/><path d="M24.827 79.436c-.096 2.057 2.292 3.838 5.332 3.98 3.04.14 5.583-1.412 5.678-3.469.095-2.057-2.292-3.838-5.332-3.98-3.04-.14-5.583 1.412-5.678 3.469" fill="#fff" fill-rule="evenodd" data-name="Path 3361"/><path d="M30.538 83.645c-.129 0-.258-.003-.39-.009-1.513-.07-2.921-.537-3.963-1.315-1.068-.797-1.629-1.825-1.579-2.895.101-2.175 2.751-3.823 5.909-3.68 1.514.071 2.922.538 3.964 1.316 1.067.797 1.628 1.825 1.579 2.895-.097 2.085-2.537 3.688-5.52 3.688m-.417-7.466c-2.746 0-4.988 1.418-5.074 3.267-.042.92.456 1.815 1.402 2.521.972.726 2.293 1.162 3.72 1.228 2.913.14 5.358-1.327 5.447-3.258.043-.92-.455-1.815-1.401-2.521-.973-.726-2.294-1.162-3.72-1.228a7.829 7.829 0 0 0-.374-.009" fill="#1c345a" fill-rule="evenodd" data-name="Path 3362"/><g data-name="Group 6847"><g data-name="Group 6846"><g data-name="Group 6845" transform="translate(25.005 75.738)" clip-path="url(&quot;#U&quot;)"><path d="M10.832 4.21c-.069 1.5-1.442 2.73-3.36 3.23.56-.548.9-1.212.934-1.937.095-2.056-2.292-3.839-5.332-3.98a7.674 7.674 0 0 0-2.323.239C1.773.757 3.532.138 5.501.23c3.04.14 5.426 1.921 5.33 3.98" fill="#1c345a" fill-rule="evenodd" data-name="Path 3363"/><path d="m6.722 7.864.595-.582c.537-.524.837-1.143.868-1.79.043-.918-.455-1.813-1.401-2.52-.973-.726-2.294-1.162-3.72-1.227a7.427 7.427 0 0 0-2.256.23L0 2.192l.596-.587C1.706.513 3.542-.081 5.511.009c1.514.07 2.921.537 3.963 1.314 1.067.797 1.628 1.826 1.579 2.897-.071 1.546-1.455 2.894-3.526 3.434l-.805.21Zm-4.027-6.57c.129 0 .258.003.389.01 1.514.07 2.922.536 3.964 1.314 1.067.797 1.628 1.826 1.578 2.896a2.922 2.922 0 0 1-.5 1.483c1.48-.577 2.431-1.627 2.485-2.798.043-.92-.455-1.815-1.401-2.522C8.238.952 6.917.517 5.49.451c-1.476-.07-2.863.266-3.883.915a8.118 8.118 0 0 1 1.088-.072" fill="#1c345a" fill-rule="evenodd" data-name="Path 3364"/></g></g></g><path d="M30.554 84.483c-.147 0-.295-.003-.444-.01-1.68-.078-3.251-.604-4.426-1.48-1.279-.955-1.977-2.27-1.914-3.606.124-2.681 3.109-4.651 6.784-4.477 1.68.078 3.25.604 4.426 1.48 1.278.955 1.976 2.27 1.914 3.606-.12 2.572-2.868 4.487-6.34 4.487m-.428-7.466c-2.27 0-4.178 1.089-4.242 2.468-.04.854.651 1.501 1.066 1.81.827.618 2.015 1.005 3.258 1.063 2.41.11 4.504-1.015 4.572-2.46.04-.854-.651-1.501-1.066-1.81-.828-.618-2.015-1.005-3.258-1.063a7.074 7.074 0 0 0-.33-.008" fill="#1c345a" fill-rule="evenodd" data-name="Path 3365"/><path d="M175.719 92.226c-.342 0-.677-.165-.881-.47-8.301-12.422-24.826-18.513-24.992-18.573a1.059 1.059 0 0 1 .72-1.99c.704.254 17.338 6.376 26.031 19.387a1.058 1.058 0 0 1-.878 1.646" fill="#1c345a" fill-rule="evenodd" data-name="Path 3366"/><path d="M35.784 92.226a1.058 1.058 0 0 1-.879-1.647c7.967-11.922 22.742-18.112 25.624-19.232a1.057 1.057 0 1 1 .766 1.973c-2.777 1.08-17.016 7.041-24.63 18.436-.204.305-.54.47-.881.47" fill="#1c345a" fill-rule="evenodd" data-name="Path 3367"/><g data-name="Group 6850"><g data-name="Group 6849"><g data-name="Group 6848" transform="translate(58.938 28.817)" clip-path="url(&quot;#V&quot;)"><path d="M.113 24.75s-1.5-9.288 6.416-19.914c6.761-9.077 11.41-3.556 8.51 1.782-3.977 7.323-5.72 14.315-7.167 21.754C7.043 32.629.506 34.57.113 24.75" fill="#fff" fill-rule="evenodd" data-name="Path 3368"/></g></g></g><g data-name="Group 6853"><g data-name="Group 6852"><g data-name="Group 6851" transform="translate(72.924 16.37)" clip-path="url(&quot;#W&quot;)"><path d="M5.734 9.896c-1.607.747-6.588 1.332-5.607-4.065C1.108.433 6.949-1.11 9.053.757c1.228 1.089 1.133 7.071-3.319 9.14" fill="#fff" fill-rule="evenodd" data-name="Path 3369"/></g></g></g><g data-name="Group 6856"><g data-name="Group 6855"><g data-name="Group 6854" transform="translate(15.415 64.15)" clip-path="url(&quot;#X&quot;)"><path d="M2.635 4.795C7.827 1.745 15.988-.326 23.441.042c6.746.333-5.557 2.723-9.883 3.74-3.116.732-8.912 2.95-11.65 3.462-2.74.512-2.556-.52.727-2.45" fill="#fff" fill-rule="evenodd" data-name="Path 3370"/></g></g></g><g data-name="Group 6859"><g data-name="Group 6858"><g data-name="Group 6857" transform="translate(49.875 5.036)" clip-path="url(&quot;#Y&quot;)"><path d="M106.636 61.716c0-18.283-8.292-53.448-40.118-61.69L66.484 0c1.036.808 4.926 3.932 9.592 8.817C94.75 28.365 82.833 60.835 55.95 63.664c-16.338 1.72-35.715 1.65-54.461-3.528-.504-.14-.993-.267-1.483-.396-.002.224-.005.45-.005.67 0 5.935 24.456 10.746 54.624 10.746 21.846 0 40.694-2.523 49.432-6.169 1.674-1.031 2.58-2.13 2.58-3.271" fill="#1c345a" fill-rule="evenodd" data-name="Path 3371"/></g></g></g></g></g></g></g><defs><clipPath id="c"><path d="M0 0h21.175v28.308H0V0z" data-name="Rectangle 1661"/></clipPath><clipPath id="d"><path d="M0 0h49.142v55.883H0V0z" data-name="Rectangle 1662"/></clipPath><clipPath id="e"><path d="M0 0h10.748v17.712H0V0z" data-name="Rectangle 1663"/></clipPath><clipPath id="f"><path d="M0 0h93.64v58.277H0V0z" data-name="Rectangle 1664"/></clipPath><clipPath id="g"><path d="M0 0h75.734v92.882H0V0z" data-name="Rectangle 1665"/></clipPath><clipPath id="h"><path d="M0 0h8.35v6.985H0V0z" data-name="Rectangle 1666"/></clipPath><clipPath id="i"><path d="M0 0h34.271v19.784H0V0z" data-name="Rectangle 1667"/></clipPath><clipPath id="j"><path d="M0 0h30.005v10.202H0V0z" data-name="Rectangle 1668"/></clipPath><clipPath id="k"><path d="M0 0h6.874v8.398H0V0z" data-name="Rectangle 1669"/></clipPath><clipPath id="l"><path d="M0 0h6.385v5.69H0V0z" data-name="Rectangle 1670"/></clipPath><clipPath id="m"><path d="M0 0h27.946v11.48H0V0z" data-name="Rectangle 1671"/></clipPath><clipPath id="n"><path d="M0 0h1.023v4.089H0V0z" data-name="Rectangle 1672"/></clipPath><clipPath id="o"><path d="M0 0h.016v.057H0V0z" data-name="Rectangle 1673"/></clipPath><clipPath id="p"><path d="M0 0h.048v.375H0V0z" data-name="Rectangle 1674"/></clipPath><clipPath id="q"><path d="M0 0h14.285v14.338H0V0z" data-name="Rectangle 1675"/></clipPath><clipPath id="r"><path d="M0 0h16.705v14.016H0V0z" data-name="Rectangle 1676"/></clipPath><clipPath id="s"><path d="M0 0h11.72v10.76H0V0z" data-name="Rectangle 1677"/></clipPath><clipPath id="t"><path d="M0 0h9.304v13.683H0V0z" data-name="Rectangle 1678"/></clipPath><clipPath id="u"><path d="M0 0h81.375v53.652H0V0z" data-name="Rectangle 1679"/></clipPath><clipPath id="v"><path d="M0 0h11.29v13.842H0V0z" data-name="Rectangle 1680"/></clipPath><clipPath id="w"><path d="M0 0h5.99v6.375H0V0z" data-name="Rectangle 1681"/></clipPath><clipPath id="x"><path d="M0 0h64.851v45.679H0V0z" data-name="Rectangle 1682"/></clipPath><clipPath id="y"><path d="M0 0h39.971v29.634H0V0z" data-name="Rectangle 1683"/></clipPath><clipPath id="z"><path d="M0 0h51.485v45.923H0V0z" data-name="Rectangle 1684"/></clipPath><clipPath id="A"><path d="M0 0h50.953v30.261H0V0z" data-name="Rectangle 1685"/></clipPath><clipPath id="B"><path d="M0 0h28.273v11.581H0V0z" data-name="Rectangle 1686"/></clipPath><clipPath id="C"><path d="M0 0h27.989v12.257H0V0z" data-name="Rectangle 1687"/></clipPath><clipPath id="D"><path d="M0 0h27.99v12.257H0V0z" data-name="Rectangle 1688"/></clipPath><clipPath id="E"><path d="M0 0h126.354v19.698H0V0z" data-name="Rectangle 1689"/></clipPath><clipPath id="F"><path d="M0 0h208.46v23.328H0V0z" data-name="Rectangle 1690"/></clipPath><clipPath id="G"><path d="M0 0h13.14v9.573H0V0z" data-name="Rectangle 1691"/></clipPath><clipPath id="H"><path d="M0 0h13.133v9.582H0V0z" data-name="Rectangle 1692"/></clipPath><clipPath id="I"><path d="M0 0h13.132v9.583H0V0z" data-name="Rectangle 1693"/></clipPath><clipPath id="J"><path d="M0 0h13.133v9.583H0V0z" data-name="Rectangle 1694"/></clipPath><clipPath id="K"><path d="M0 0h13.132v9.583H0V0z" data-name="Rectangle 1695"/></clipPath><clipPath id="L"><path d="M0 0h121.094v22.386H0V0z" data-name="Rectangle 1696"/></clipPath><clipPath id="M"><path d="M0 0h61.134v22.267H0V0z" data-name="Rectangle 1697"/></clipPath><clipPath id="N"><path d="M0 0h61.134v22.267H0V0z" data-name="Rectangle 1698"/></clipPath><clipPath id="O"><path d="M0 0h139.77v26.631H0V0z" data-name="Rectangle 1699"/></clipPath><clipPath id="P"><path d="M0 0h92.949v67.504H0V0z" data-name="Rectangle 1700"/></clipPath><clipPath id="Q"><path d="M0 0h11.465v5.605H0V0z" data-name="Rectangle 1701"/></clipPath><clipPath id="R"><path d="M0 0h11.456v6.449H0V0z" data-name="Rectangle 1702"/></clipPath><clipPath id="S"><path d="M0 0h11.27v7.651H0V0z" data-name="Rectangle 1703"/></clipPath><clipPath id="T"><path d="M0 0h11.515v7.161H0V0z" data-name="Rectangle 1704"/></clipPath><clipPath id="U"><path d="M0 0h11.056v7.863H0V0z" data-name="Rectangle 1705"/></clipPath><clipPath id="V"><path d="M0 0h15.917v31.86H0V0z" data-name="Rectangle 1706"/></clipPath><clipPath id="W"><path d="M0 0h9.728v10.373H0V0z" data-name="Rectangle 1707"/></clipPath><clipPath id="X"><path d="M0 0h25.421v7.374H0V0z" data-name="Rectangle 1708"/></clipPath><clipPath id="Y"><path d="M0 0h106.636v71.157H0V0z" data-name="Rectangle 1709"/></clipPath><clipPath id="b"><path d="M0 0h210.574v300.063H0V0z" data-name="Rectangle 1710"/></clipPath><clipPath id="a"><path d="M0 0h210.574v300.063H0V0z" data-name="Rectangle 1711"/></clipPath></defs></svg>