<svg xmlns="http://www.w3.org/2000/svg" width="20.583" height="19" viewBox="-12570 -23715 20.583 19"><g data-name="Icon ionic-ios-qr-scanner"><path d="M-12563.766-23715h-2.909a3.326 3.326 0 0 0-3.325 3.325v2.91c0 .38.312.692.693.692a.695.695 0 0 0 .692-.693v-2.958c0-.45.213-.926.58-1.297.37-.376.85-.594 1.31-.594h2.96a.695.695 0 0 0 .692-.692.695.695 0 0 0-.693-.693Z" fill="#1c345a" fill-rule="evenodd" data-name="Path 3372"/><path d="M-12552.692-23715h-2.959a.695.695 0 0 0-.693.693c0 .38.312.692.693.692h2.959c.46 0 .94.218 1.311.594.366.371.579.846.579 1.297v2.958c0 .381.312.693.693.693a.695.695 0 0 0 .692-.693v-2.958a3.28 3.28 0 0 0-3.275-3.276Z" fill="#1c345a" fill-rule="evenodd" data-name="Path 3373"/><path d="M-12563.766-23697.385h-2.958c-.46 0-.94-.218-1.312-.594-.366-.371-.579-.846-.579-1.297v-2.958a.695.695 0 0 0-.692-.693.695.695 0 0 0-.693.693v2.958a3.28 3.28 0 0 0 3.276 3.276h2.958a.695.695 0 0 0 .693-.693.695.695 0 0 0-.693-.692Z" fill="#1c345a" fill-rule="evenodd" data-name="Path 3374"/><path d="M-12550.11-23702.927a.695.695 0 0 0-.692.693v2.958c0 .45-.213.926-.579 1.297-.371.376-.851.594-1.311.594h-2.959a.695.695 0 0 0-.693.692c0 .381.312.693.693.693h2.91c1.83 0 3.324-1.49 3.324-3.325v-2.91a.695.695 0 0 0-.692-.692Z" fill="#1c345a" fill-rule="evenodd" data-name="Path 3375"/></g></svg>