<svg xmlns="http://www.w3.org/2000/svg" width="22.508" height="21.007" viewBox="28 865.5 22.508 21.007"><path d="M50.508 870.002v.75a.375.375 0 0 1-.376.375h-1.125v.563c0 .31-.252.562-.563.562h-18.38a.563.563 0 0 1-.563-.562v-.563h-1.126a.375.375 0 0 1-.375-.375v-.75c0-.152.091-.29.232-.347l10.878-4.126a.375.375 0 0 1 .287 0l10.879 4.126c.14.058.232.195.232.347Zm-1.126 14.254H29.125c-.621 0-1.125.504-1.125 1.126v.75c0 .207.168.375.375.375h21.757a.375.375 0 0 0 .376-.375v-.75c0-.622-.504-1.126-1.126-1.126Zm-17.63-11.253v9.003h-1.689a.563.563 0 0 0-.562.562v.938h19.506v-.938a.563.563 0 0 0-.563-.562h-1.688v-9.003h-3v9.003h-3.002v-9.003h-3v9.003h-3.002v-9.003h-3Z" fill="#1c345a" fill-rule="evenodd" data-name="Icon awesome-university"/></svg>