<svg xmlns="http://www.w3.org/2000/svg" width="14.275" height="20" viewBox="22 183 14.275 20"><path d="M35.87 200.043a.535.535 0 0 0-.643-.418 9.379 9.379 0 0 1-2.028.241c-2.534 0-4.55-1.553-5.422-3.814h5.075c.25 0 .468-.174.523-.418l.284-1.267a.536.536 0 0 0-.523-.653h-5.992a9.637 9.637 0 0 1 .006-1.886h6.544c.252 0 .47-.175.524-.42l.29-1.33a.536.536 0 0 0-.523-.65h-6.173c.92-2.008 2.798-3.349 5.25-3.349.647 0 1.276.1 1.69.185a.536.536 0 0 0 .626-.385l.535-1.98a.535.535 0 0 0-.417-.667 13 13 0 0 0-2.352-.232c-4.338 0-7.84 2.69-9.132 6.429h-1.476a.536.536 0 0 0-.536.535v1.329c0 .295.24.535.536.535h.963a13.253 13.253 0 0 0-.008 1.886h-.955a.536.536 0 0 0-.536.536v1.266c0 .296.24.536.536.536h1.344c1.117 4.032 4.605 6.948 9.264 6.948 1.175 0 2.168-.203 2.728-.348a.536.536 0 0 0 .392-.623l-.393-1.986Z" fill="#1c345a" fill-rule="evenodd" data-name="Icon awesome-euro-sign"/></svg>