<svg xmlns="http://www.w3.org/2000/svg" width="24.352" height="22.478" viewBox="214 1083 24.352 22.478"><g data-name="Icon ionic-ios-filing"><path d="M236.01 1083h-19.669a2.348 2.348 0 0 0-2.341 2.341v17.796a2.348 2.348 0 0 0 2.341 2.341h19.67a2.348 2.348 0 0 0 2.34-2.341v-17.796a2.348 2.348 0 0 0-2.34-2.341Zm.703 10.303a.94.94 0 0 1-.937.936h-5.081a.935.935 0 0 0-.884.62c-.24.68-.837 1.253-1.528 1.253h-4.215c-.696 0-1.293-.573-1.527-1.252a.93.93 0 0 0-.884-.62h-5.081a.94.94 0 0 1-.937-.937v-7.727a.94.94 0 0 1 .937-.937h19.2a.94.94 0 0 1 .937.937v7.727Z" fill="#fff" fill-rule="evenodd" data-name="Path 1921"/><path d="M233.786 1088.385h-15.22a.822.822 0 0 1-.82-.82c0-.45.37-.819.82-.819h15.22c.45 0 .82.37.82.82 0 .45-.37.82-.82.82Z" fill="#fff" fill-rule="evenodd" data-name="Path 1922"/><path d="M233.786 1092.132h-15.22a.822.822 0 0 1-.82-.82c0-.45.37-.82.82-.82h15.22c.45 0 .82.37.82.82 0 .451-.37.82-.82.82Z" fill="#fff" fill-rule="evenodd" data-name="Path 1923"/></g></svg>