<svg xmlns="http://www.w3.org/2000/svg" width="23" height="18.4" viewBox="315.002 566.73 23 18.4"><path d="M326.502 581.105c-2.726 0-4.932-2.11-5.135-4.783l-3.77-2.914a11.978 11.978 0 0 0-1.32 1.998c-.167.33-.167.72 0 1.049 1.949 3.803 5.807 6.375 10.225 6.375.967 0 1.9-.143 2.8-.376l-1.866-1.443c-.308.06-.62.091-.934.094Zm11.278 2.088-3.973-3.07a11.904 11.904 0 0 0 2.92-3.668c.167-.33.167-.72 0-1.05-1.95-3.802-5.807-6.375-10.225-6.375-1.85.003-3.67.468-5.294 1.355l-4.572-3.534a.575.575 0 0 0-.807.101l-.706.909a.575.575 0 0 0 .101.806l21.144 16.342c.25.195.612.15.807-.1l.706-.909a.575.575 0 0 0-.101-.807Zm-6.603-5.103-1.412-1.092a3.405 3.405 0 0 0-4.173-4.381c.217.293.334.648.335 1.013a1.676 1.676 0 0 1-.055.36l-2.646-2.045a5.114 5.114 0 0 1 3.276-1.19 5.172 5.172 0 0 1 5.175 5.175c0 .778-.19 1.502-.5 2.16Z" fill="#1c345a" fill-rule="evenodd" data-name="Icon awesome-eye-slash"/></svg>