<svg xmlns="http://www.w3.org/2000/svg" width="17.943" height="17.943" viewBox="27 486 17.943 17.943"><g data-name="Symbol 62 – 17"><path d="m44.943 502.363-3.724-3.724a7.726 7.726 0 0 0 1.58-4.74 7.85 7.85 0 0 0-7.9-7.899A7.85 7.85 0 0 0 27 493.9a7.85 7.85 0 0 0 7.9 7.899 7.726 7.726 0 0 0 4.739-1.58l3.724 3.724 1.58-1.58Zm-15.686-8.464c0-3.16 2.483-5.642 5.642-5.642 3.16 0 5.643 2.483 5.643 5.642 0 3.16-2.483 5.643-5.643 5.643-3.16 0-5.642-2.483-5.642-5.643Z" fill="#1c345a" fill-rule="evenodd" data-name="Path 99"/></g></svg>