<svg xmlns="http://www.w3.org/2000/svg" width="16.285" height="18.612" viewBox="29 533 16.285 18.612"><path d="M29 549.867c0 .963.782 1.745 1.745 1.745H43.54c.964 0 1.745-.782 1.745-1.745v-9.888H29v9.888Zm2.326-6.98c0-.32.262-.581.582-.581h3.49c.32 0 .581.262.581.581v3.49c0 .32-.261.582-.581.582h-3.49a.583.583 0 0 1-.582-.582v-3.49Zm12.214-7.56h-1.745v-1.745a.583.583 0 0 0-.581-.582H40.05a.583.583 0 0 0-.582.582v1.744h-4.653v-1.744a.583.583 0 0 0-.581-.582H33.07a.583.583 0 0 0-.581.582v1.744h-1.745c-.963 0-1.745.782-1.745 1.745v1.745h16.285v-1.745c0-.963-.781-1.745-1.745-1.745Z" fill="#1c345a" fill-rule="evenodd" data-name="Icon awesome-calendar-day"/></svg>