<svg xmlns="http://www.w3.org/2000/svg" width="23.14" height="23.112"><g data-name="Group 4602" clip-path="url(&quot;#a&quot;)"><path d="M11.57 23.112c2.242 0 4.327-.648 6.1-1.752H5.47a11.497 11.497 0 0 0 6.1 1.752" fill="#e30613" fill-rule="evenodd" data-name="Path 1931"/><path d="M5.471 21.361H17.67a11.59 11.59 0 0 0 2.212-1.78H3.259c.66.681 1.403 1.277 2.212 1.78" fill="#fff" fill-rule="evenodd" data-name="Path 1932"/><path d="M3.259 19.58h16.622a11.56 11.56 0 0 0 1.411-1.78H1.848a11.62 11.62 0 0 0 1.411 1.78" fill="#e30613" fill-rule="evenodd" data-name="Path 1933"/><path d="M1.848 17.8h19.444c.364-.563.686-1.155.948-1.78H.9c.262.625.585 1.217.948 1.78" fill="#fff" fill-rule="evenodd" data-name="Path 1934"/><path d="M.9 16.02h21.34c.24-.57.425-1.168.571-1.78H.329c.147.612.331 1.21.571 1.78" fill="#e30613" fill-rule="evenodd" data-name="Path 1935"/><path d="M.046 12.46c.048.608.145 1.202.283 1.78h22.482c.138-.578.235-1.172.283-1.78H.046Z" fill="#fff" fill-rule="evenodd" data-name="Path 1936"/><path d="M11.57 12.46h11.524c.024-.304.046-.608.046-.919 0-.29-.022-.576-.043-.861H11.57v1.78Z" fill="#e30613" fill-rule="evenodd" data-name="Path 1937"/><path d="M11.57 10.68h11.527a11.576 11.576 0 0 0-.271-1.78H11.57v1.78Z" fill="#fff" fill-rule="evenodd" data-name="Path 1938"/><path d="M11.57 8.9h11.256a11.49 11.49 0 0 0-.565-1.78H11.57V8.9Z" fill="#e30613" fill-rule="evenodd" data-name="Path 1939"/><path d="M11.57 7.12h10.691a11.503 11.503 0 0 0-.934-1.78H11.57v1.78Z" fill="#fff" fill-rule="evenodd" data-name="Path 1940"/><path d="M11.57 5.34h9.757a11.563 11.563 0 0 0-1.394-1.78H11.57v1.78Z" fill="#e30613" fill-rule="evenodd" data-name="Path 1941"/><path d="M11.57 3.56h8.363a11.578 11.578 0 0 0-2.17-1.78H11.57v1.78Z" fill="#fff" fill-rule="evenodd" data-name="Path 1942"/><path d="M11.57 1.78h6.193A11.493 11.493 0 0 0 12.134 0h-.564v1.78Z" fill="#e30613" fill-rule="evenodd" data-name="Path 1943"/><path d="M11.57 10.68h-1.3l.132.35h.497l-.38.322.118.483-.423-.262-.423.262.118-.483-.38-.322h.497l.132-.35H7.291l.133.35h.497l-.381.322.119.483-.423-.262-.423.262.118-.483-.38-.322h.497l.132-.35H4.313l.133.35h.496l-.38.322.119.483-.424-.262-.423.262.119-.483-.38-.322h.496l.133-.35H1.335l.132.35h.497l-.38.322.118.483-.423-.262-.423.262.118-.483-.38-.322h.497l.133-.35H.043c-.021.285-.043.571-.043.862 0 .31.022.614.046.918H11.57v-1.78Z" fill="#002b90" fill-rule="evenodd" data-name="Path 1944"/><path d="M8.326 10.68h.798l-.399-.247-.399.247Z" fill="#002b90" fill-rule="evenodd" data-name="Path 1945"/><path d="M5.348 10.68h.798l-.399-.247-.399.247Z" fill="#002b90" fill-rule="evenodd" data-name="Path 1946"/><path d="m10.638 9.378-.423-.262-.423.262.117-.477H7.543l.117.477-.424-.262-.423.262.117-.477H4.564l.117.477-.423-.262-.423.262.117-.477H1.586l.117.477-.423-.262-.423.262.117-.477H.315c-.076.325-.135.655-.183.989l.343.001-.38.321.115.469h1.014l.056-.147.055.147H2.35l.114-.469-.38-.321.497-.001.188-.497.188.497.497.001-.38.321.114.469h1.014l.056-.147.056.147h1.014l.115-.469-.381-.321.497-.001.188-.497.189.497.496.001-.38.321.115.469h1.014l.055-.147.056.147h1.014l.115-.469-.38-.321.496-.001.189-.497.188.497.496.001-.38.321.115.469h1.014l.056-.147.055.147h1.301v-1.78h-1.05l.117.477Z" fill="#002b90" fill-rule="evenodd" data-name="Path 1947"/><path d="M.043 10.68h.145l-.141-.087-.004.087" fill="#002b90" fill-rule="evenodd" data-name="Path 1948"/><path d="M2.37 10.68h.798l-.4-.247-.398.247Z" fill="#002b90" fill-rule="evenodd" data-name="Path 1949"/><path d="M8.913 7.432h.496l-.38.322.119.483-.423-.262-.423.262.118-.483-.38-.322h.496l.119-.312H5.817l.118.312h.496l-.38.322.119.483-.424-.262-.423.262.119-.483-.38-.322h.496l.118-.312H2.839l.118.312h.496l-.38.322.118.483-.423-.262-.423.262.119-.483-.381-.322h.497l.118-.312H.879A11.383 11.383 0 0 0 .314 8.9h.659c.001-.006-.379-.327-.379-.327l.497-.001.189-.497.187.497.497.001-.38.321c.001.006 2.367.006 2.367.006.002-.006-.378-.327-.378-.327l.496-.001.188-.497.189.497.496.001-.379.321c0 .006 2.366.006 2.366.006.002-.006-.378-.327-.378-.327l.496-.001.188-.497.189.497.496.001-.38.321c.002.006 2.368.006 2.368.006.001-.006-.379-.327-.379-.327l.497-.001.188-.497.188.497.497.001-.381.321a61.61 61.61 0 0 0 1.052.006V7.12H8.795l.118.312Z" fill="#002b90" fill-rule="evenodd" data-name="Path 1950"/><path d="m9.148 5.779-.423-.262-.423.262.108-.439H6.062l.108.439-.423-.262-.423.262.107-.439H3.084l.108.439-.424-.262-.423.262.108-.439h-.64c-.135.213-.271.426-.393.648l.048.126h.496l-.38.322.118.483-.423-.262-.266.165c-.045.1-.092.197-.134.298h1.819l.07-.185.071.185h2.838l.07-.185.07.185h2.838l.07-.185.07.185h2.775V5.34H9.041l.107.439Zm-4.467 1.14-.423-.262-.424.262.119-.483-.38-.322h.496l.189-.497.188.497h.496l-.38.322.119.483Zm2.978 0-.423-.262-.423.262.118-.483-.38-.322h.497l.188-.497.188.497h.497l-.38.322.118.483Zm2.367-.805.188-.497.188.497h.497l-.38.322.118.483-.423-.262-.423.262.119-.483-.381-.322h.497Z" fill="#002b90" fill-rule="evenodd" data-name="Path 1951"/><path d="M10.403 3.656h.496l-.38.322.119.483-.423-.262-.423.262.118-.483-.38-.322h.497l.036-.096H7.388l.037.096h.496l-.38.322.119.483-.424-.262-.423.262.119-.483-.38-.322h.496l.037-.096H4.41l.036.096h.497l-.38.322.118.483-.423-.262-.423.262.118-.483-.38-.322h.497l.036-.096h-.898a11.563 11.563 0 0 0-1.394 1.78h.639c.011-.044-.369-.366-.369-.366h.497l.188-.497.188.497h.497l-.38.322c.01.044 2.358.044 2.358.044.011-.044-.369-.366-.369-.366h.496l.188-.497.189.497h.496l-.38.322c.011.044 2.358.044 2.358.044.011-.044-.369-.366-.369-.366h.496l.189-.497.188.497h.496l-.38.322c.011.044 2.541.044 2.541.044V3.56h-1.204l.036.096Z" fill="#002b90" fill-rule="evenodd" data-name="Path 1952"/><path d="M3.208 3.56h.898l.152-.401.152.401h2.675l.151-.401.152.401h2.675l.152-.401.152.401h1.204V1.78h-.988l.055.224-.361-.224h-.125l-.36.224.054-.224H7.605l.055.224-.361-.224h-.125l-.361.224.055-.224H5.377a11.604 11.604 0 0 0-2.169 1.78m5.329-1.044.189-.497.188.497h.496l-.38.322.119.483-.423-.262-.424.262.119-.483-.38-.322h.496Zm-2.978 0 .188-.497.189.497h.496l-.38.322.118.483-.423-.262-.423.262.119-.483-.38-.322h.496Z" fill="#002b90" fill-rule="evenodd" data-name="Path 1953"/><path d="M7.174 1.78h.125l-.063-.039-.062.039Z" fill="#002b90" fill-rule="evenodd" data-name="Path 1954"/><path d="m7.921 1.199-.38.322.064.259h2.241l.064-.259-.38-.322h.496l.189-.497.188.497h.496l-.38.322.064.259h.987V0h-.564C9.693.064 8.438.34 7.275.805l.149.394h.497Z" fill="#002b90" fill-rule="evenodd" data-name="Path 1955"/><path d="M10.152 1.78h.125l-.063-.039-.062.039Z" fill="#002b90" fill-rule="evenodd" data-name="Path 1956"/><path d="m6.931 1.52-.38-.322h.496l.137-.36a11.43 11.43 0 0 0-1.807.942h1.49l.064-.26Z" fill="#002b90" fill-rule="evenodd" data-name="Path 1957"/><path d="m5.324 3.321.423-.262.423.262-.118-.483.38-.322h-.497l-.188-.497-.188.497h-.497l.38.322-.118.483Z" fill="#fff" fill-rule="evenodd" data-name="Path 1958"/><path d="m8.302 3.321.423-.262.423.262-.118-.483.38-.322h-.497l-.188-.497-.188.497H8.04l.381.322-.119.483Z" fill="#fff" fill-rule="evenodd" data-name="Path 1959"/><path d="m6.813 2.003.36-.223h-.305l-.055.223Z" fill="#fff" fill-rule="evenodd" data-name="Path 1960"/><path d="m7.66 2.003-.056-.223h-.306l.361.223Z" fill="#fff" fill-rule="evenodd" data-name="Path 1961"/><path d="m6.551 1.199.38.322-.064.259h.306l.063-.038.062.038h.306l-.064-.259.381-.322h-.497L7.275.805c-.03.012-.061.021-.091.033l-.136.361h-.497Z" fill="#fff" fill-rule="evenodd" data-name="Path 1962"/><path d="m9.791 2.003.361-.223h-.306l-.055.223Z" fill="#fff" fill-rule="evenodd" data-name="Path 1963"/><path d="m10.638 2.003-.055-.223h-.306l.36.223Z" fill="#fff" fill-rule="evenodd" data-name="Path 1964"/><path d="M10.9 1.199h-.497l-.189-.497-.188.497H9.53l.38.322-.064.259h.306l.062-.038.063.038h.306l-.064-.26.38-.321Z" fill="#fff" fill-rule="evenodd" data-name="Path 1965"/><path d="m2.769 5.517.423.262-.108-.439h-.631l-.107.44.423-.263Z" fill="#fff" fill-rule="evenodd" data-name="Path 1966"/><path d="m3.073 5.296.38-.322h-.496l-.189-.497-.188.497h-.496l.38.322c-.011.044.62.044.62.044l-.011-.044Z" fill="#fff" fill-rule="evenodd" data-name="Path 1967"/><path d="m5.747 5.517.423.262-.108-.439H5.43l-.107.44.423-.263Z" fill="#fff" fill-rule="evenodd" data-name="Path 1968"/><path d="m6.051 5.296.38-.322h-.496l-.189-.497-.188.497h-.496l.38.322c-.011.044.62.044.62.044l-.011-.044Z" fill="#fff" fill-rule="evenodd" data-name="Path 1969"/><path d="m8.725 5.517.423.262-.108-.439h-.63l-.108.44.423-.263Z" fill="#fff" fill-rule="evenodd" data-name="Path 1970"/><path d="m9.03 5.296.38-.322h-.496l-.189-.497-.188.497h-.496l.38.322c-.011.044.62.044.62.044l-.011-.044Z" fill="#fff" fill-rule="evenodd" data-name="Path 1971"/><path d="m3.573 3.657.38.32-.118.485.423-.262.423.262-.119-.484.38-.321h-.496L4.41 3.56h-.304l-.036.096h-.497Z" fill="#fff" fill-rule="evenodd" data-name="Path 1972"/><path d="m4.258 3.16-.152.4h.304l-.152-.4Z" fill="#fff" fill-rule="evenodd" data-name="Path 1973"/><path d="m6.551 3.657.38.32-.118.485.423-.262.423.262-.119-.484.381-.321h-.497l-.036-.096h-.304l-.036.096h-.497Z" fill="#fff" fill-rule="evenodd" data-name="Path 1974"/><path d="m7.236 3.16-.152.4h.304l-.152-.4Z" fill="#fff" fill-rule="evenodd" data-name="Path 1975"/><path d="m9.53 3.657.38.32-.118.485.423-.262.423.262-.12-.484.38-.321h-.495l-.036-.096h-.304l-.036.096H9.53Z" fill="#fff" fill-rule="evenodd" data-name="Path 1976"/><path d="m10.214 3.16-.152.4h.304l-.152-.4Z" fill="#fff" fill-rule="evenodd" data-name="Path 1977"/><path d="m2.084 7.432.38.322-.118.483.423-.262.423.262-.12-.483.38-.322h-.495l-.118-.312h-.14l-.118.312h-.497Z" fill="#fff" fill-rule="evenodd" data-name="Path 1978"/><path d="m2.769 6.935-.07.185h.14l-.07-.185Z" fill="#fff" fill-rule="evenodd" data-name="Path 1979"/><path d="m5.062 7.432.38.322-.118.483.423-.262.423.262-.119-.483.38-.322h-.496l-.118-.312h-.14l-.119.312h-.496Z" fill="#fff" fill-rule="evenodd" data-name="Path 1980"/><path d="m5.747 6.935-.07.185h.14l-.07-.185Z" fill="#fff" fill-rule="evenodd" data-name="Path 1981"/><path d="m8.04 7.432.38.322-.118.483.423-.262.423.262-.119-.483.38-.322h-.496l-.118-.312h-.14l-.119.312H8.04Z" fill="#fff" fill-rule="evenodd" data-name="Path 1982"/><path d="m8.725 6.935-.07.185h.14l-.07-.185Z" fill="#fff" fill-rule="evenodd" data-name="Path 1983"/><path d="m1.703 6.92-.119-.484.381-.321h-.497l-.048-.127c-.148.271-.28.552-.406.835l.266-.165.423.262Z" fill="#fff" fill-rule="evenodd" data-name="Path 1984"/><path d="m4.446 6.114-.188-.497-.188.497h-.497l.38.322-.118.483.423-.262.423.262-.119-.483.38-.322h-.496Z" fill="#fff" fill-rule="evenodd" data-name="Path 1985"/><path d="m7.424 6.114-.188-.497-.188.497h-.497l.38.322-.118.483.423-.262.423.262-.119-.483.381-.322h-.497Z" fill="#fff" fill-rule="evenodd" data-name="Path 1986"/><path d="m9.791 6.92.423-.262.423.262-.118-.484.38-.321h-.497l-.188-.497-.188.497H9.53l.381.32-.119.485Z" fill="#fff" fill-rule="evenodd" data-name="Path 1987"/><path d="M.475 9.89H.131c-.033.232-.064.465-.083.702l.141.088c.021 0-.094-.469-.094-.469l.38-.321Z" fill="#fff" fill-rule="evenodd" data-name="Path 1988"/><path d="M3.453 9.89h-.496l-.189-.498-.188.498h-.496l.38.321-.115.469c.021 0 .419-.247.419-.247l.399.247c.021 0-.094-.469-.094-.469l.38-.321Z" fill="#fff" fill-rule="evenodd" data-name="Path 1989"/><path d="M6.432 9.89h-.496l-.189-.498-.188.498h-.496l.38.321-.115.469c.021 0 .419-.247.419-.247l.399.247c.021 0-.094-.469-.094-.469l.38-.321Z" fill="#fff" fill-rule="evenodd" data-name="Path 1990"/><path d="M9.41 9.89h-.496l-.189-.498-.188.498h-.496l.38.321-.115.469c.021 0 .419-.247.419-.247l.399.247c.021 0-.094-.469-.094-.469l.38-.321Z" fill="#fff" fill-rule="evenodd" data-name="Path 1991"/><path d="m1.28 9.115.422.262-.117-.477H.973l-.117.477.423-.262Z" fill="#fff" fill-rule="evenodd" data-name="Path 1992"/><path d="m1.584 8.894.38-.322h-.496l-.189-.497-.188.497H.595l.38.322c-.002.006.611.006.611.006l-.002-.006Z" fill="#fff" fill-rule="evenodd" data-name="Path 1993"/><path d="m4.258 9.115.423.262-.117-.477h-.612l-.117.477.423-.262Z" fill="#fff" fill-rule="evenodd" data-name="Path 1994"/><path d="m4.562 8.894.38-.322h-.496l-.189-.497-.188.497h-.496l.38.322c-.002.006.61.006.61.006l-.001-.006Z" fill="#fff" fill-rule="evenodd" data-name="Path 1995"/><path d="m7.236 9.115.423.262-.117-.477H6.93l-.117.477.423-.262Z" fill="#fff" fill-rule="evenodd" data-name="Path 1996"/><path d="m7.541 8.894.38-.322h-.496l-.189-.497-.188.497h-.496l.38.322c-.002.006.611.006.611.006l-.002-.006Z" fill="#fff" fill-rule="evenodd" data-name="Path 1997"/><path d="m10.214 9.115.423.262-.117-.477h-.612l-.117.477.423-.262Z" fill="#fff" fill-rule="evenodd" data-name="Path 1998"/><path d="m10.519 8.894.38-.322h-.496l-.189-.497-.188.497H9.53l.38.322c-.002.006.611.006.611.006l-.002-.006Z" fill="#fff" fill-rule="evenodd" data-name="Path 1999"/><path d="M1.091 11.03H.595l.38.322-.119.483.423-.262.424.262-.119-.483.38-.322h-.496l-.133-.35h-.11l-.134.35Z" fill="#fff" fill-rule="evenodd" data-name="Path 2000"/><path d="M1.224 10.68h.11l-.054-.147-.056.147Z" fill="#fff" fill-rule="evenodd" data-name="Path 2001"/><path d="M4.07 11.03h-.498l.381.322-.119.483.423-.262.423.262-.118-.483.38-.322h-.497l-.132-.35h-.112l-.132.35Z" fill="#fff" fill-rule="evenodd" data-name="Path 2002"/><path d="M4.202 10.68h.111l-.055-.147-.056.147Z" fill="#fff" fill-rule="evenodd" data-name="Path 2003"/><path d="M7.048 11.03H6.55l.38.322-.118.483.423-.262.423.262-.118-.483.38-.322h-.497l-.132-.35H7.18l-.133.35Z" fill="#fff" fill-rule="evenodd" data-name="Path 2004"/><path d="M7.18 10.68h.111l-.055-.147-.056.147Z" fill="#fff" fill-rule="evenodd" data-name="Path 2005"/><path d="M10.026 11.03H9.53l.381.322-.119.483.423-.262.423.262-.118-.483.38-.322h-.497l-.132-.35h-.11l-.134.35Z" fill="#fff" fill-rule="evenodd" data-name="Path 2006"/><path d="M10.159 10.68h.11l-.054-.147-.056.147Z" fill="#fff" fill-rule="evenodd" data-name="Path 2007"/></g><defs><clipPath id="a"><path d="M0 0h23.141v23.112H0V0z" data-name="Rectangle 1317"/></clipPath></defs></svg>