<svg xmlns="http://www.w3.org/2000/svg" width="10.413" height="20" viewBox="22 217 10.413 20"><path d="M32.414 230.226c0 1.138-.37 2.118-1.11 2.94-.741.823-1.703 1.33-2.886 1.524v1.953c0 .104-.033.19-.1.257a.348.348 0 0 1-.257.1h-1.507a.343.343 0 0 1-.25-.106.343.343 0 0 1-.107-.25v-1.954a7.035 7.035 0 0 1-1.423-.346 7.492 7.492 0 0 1-1.133-.497 7.517 7.517 0 0 1-.826-.535 6.361 6.361 0 0 1-.519-.419 2.854 2.854 0 0 1-.195-.2c-.126-.157-.134-.31-.022-.458l1.15-1.507c.051-.074.137-.12.256-.134.112-.015.2.019.268.1l.022.023c.841.736 1.745 1.201 2.712 1.395.276.06.55.09.826.09.603 0 1.133-.16 1.59-.48.458-.32.687-.775.687-1.362 0-.209-.056-.406-.167-.592a2.091 2.091 0 0 0-.374-.469c-.138-.126-.356-.266-.653-.418a14.858 14.858 0 0 0-.737-.357 23.302 23.302 0 0 0-.893-.363 89.14 89.14 0 0 0-.686-.279 19.236 19.236 0 0 1-.686-.296 8.12 8.12 0 0 1-.698-.346c-.175-.1-.385-.232-.63-.396a3.93 3.93 0 0 1-.598-.474 6.956 6.956 0 0 1-.485-.547 2.73 2.73 0 0 1-.396-.648 4.476 4.476 0 0 1-.235-.742 3.874 3.874 0 0 1-.095-.87c0-1.027.365-1.927 1.094-2.701.73-.774 1.678-1.272 2.846-1.496v-2.009c0-.096.035-.18.106-.25a.343.343 0 0 1 .251-.107h1.507c.104 0 .19.034.257.1.067.068.1.153.1.257v1.965c.424.044.835.13 1.233.256.398.127.722.252.971.374.25.123.486.263.71.419.222.156.367.264.434.323.067.06.123.112.168.157.126.134.145.275.056.424l-.904 1.63c-.06.11-.146.17-.257.178a.356.356 0 0 1-.302-.078 2.293 2.293 0 0 0-.161-.134 6.099 6.099 0 0 0-.436-.296 4.985 4.985 0 0 0-1.484-.647 3.724 3.724 0 0 0-.954-.129c-.707 0-1.284.16-1.73.48-.447.32-.67.733-.67 1.24 0 .193.032.371.095.535.063.164.173.318.33.463.156.145.302.268.44.368.138.1.346.216.625.346a17.336 17.336 0 0 0 1.457.609c.394.148.695.266.904.351.208.086.49.216.848.39.357.176.638.334.842.475.205.141.436.327.692.558.257.23.454.467.592.709.138.242.255.526.352.854.096.327.145.677.145 1.049Z" fill="#1c345a" fill-rule="evenodd" data-name="Icon metro-dollar2"/></svg>