<svg xmlns="http://www.w3.org/2000/svg" width="21.002" height="21.007" viewBox="28 1018.316 21.002 21.007"><path d="M47.268 1028.817c0-1.148.716-2.127 1.734-2.521a10.712 10.712 0 0 0-1.297-3.123 2.705 2.705 0 0 1-3.008-.552 2.704 2.704 0 0 1-.558-3.008 10.68 10.68 0 0 0-3.117-1.297 2.705 2.705 0 0 1-2.521 1.734 2.705 2.705 0 0 1-2.522-1.734 10.712 10.712 0 0 0-3.122 1.297 2.697 2.697 0 0 1-3.566 3.56 10.949 10.949 0 0 0-1.291 3.128 2.7 2.7 0 0 1 1.734 2.522 2.706 2.706 0 0 1-1.729 2.52 10.712 10.712 0 0 0 1.297 3.124 2.705 2.705 0 0 1 3.003.558c.809.81.995 2.012.557 3.002a10.775 10.775 0 0 0 3.123 1.296 2.693 2.693 0 0 1 2.516-1.728c1.148 0 2.127.717 2.516 1.728a10.712 10.712 0 0 0 3.122-1.296 2.707 2.707 0 0 1 .558-3.002 2.686 2.686 0 0 1 1.91-.788c.371 0 .748.077 1.093.23a10.775 10.775 0 0 0 1.296-3.123 2.715 2.715 0 0 1-1.728-2.527Zm-8.718 4.37a4.374 4.374 0 0 1-4.375-4.375 4.374 4.374 0 0 1 4.375-4.376 4.374 4.374 0 0 1 4.375 4.376 4.374 4.374 0 0 1-4.375 4.375Z" fill="#1c345a" fill-rule="evenodd" data-name="Icon ionic-ios-settings"/></svg>