<svg xmlns="http://www.w3.org/2000/svg" width="19" height="19" viewBox="-12570 -23758 19 19"><path d="M-12564.062-23756.812h-4.75v4.75h4.75v-4.75Zm1.187-1.188v7.125h-7.125v-7.125h7.125Zm-4.75 2.375h2.375v2.375h-2.375v-2.375Zm15.438-1.187h-4.75v4.75h4.75v-4.75Zm1.187-1.188v7.125h-7.125v-7.125h7.125Zm-4.75 2.375h2.375v2.375h-2.375v-2.375Zm-8.312 10.688h-4.75v4.75h4.75v-4.75Zm1.187-1.188v7.125h-7.125v-7.125h7.125Zm-4.75 2.375h2.375v2.375h-2.375v-2.375Zm5.938-14.25h1.187v1.188h-1.187v-1.188Zm1.187 1.188h1.188v1.187h-1.188v-1.187Zm-1.187 1.187h1.187v1.188h-1.187v-1.188Zm1.187 1.188h1.188v1.187h-1.188v-1.187Zm-1.187 1.187h1.187v1.188h-1.187v-1.188Zm1.187 1.188h1.188v1.187h-1.188v-1.187Zm-1.187 1.187h1.187v1.188h-1.187v-1.188Zm0 2.375h1.187v1.188h-1.187v-1.188Zm1.187 1.188h1.188v1.187h-1.188v-1.187Zm-1.187 1.187h1.187v1.188h-1.187v-1.188Zm1.187 1.188h1.188v1.187h-1.188v-1.187Zm-1.187 1.187h1.187v1.187h-1.187v-1.187Zm1.187 1.187h1.188v1.188h-1.188v-1.188Zm-1.187 1.188h1.187v1.187h-1.187v-1.187Zm1.187 1.187h1.188v1.188h-1.188v-1.188Zm8.313-8.312h1.187v1.188h-1.187v-1.188Zm-16.625 0h1.187v1.188h-1.187v-1.188Zm1.187-1.187h1.188v1.187h-1.188v-1.187Zm-2.375 0h1.188v1.187h-1.188v-1.187Zm4.75 0h1.188v1.187h-1.188v-1.187Zm1.188 1.187h1.187v1.188h-1.187v-1.188Zm1.187-1.187h1.188v1.187h-1.188v-1.187Zm3.563 1.187h1.187v1.188h-1.187v-1.188Zm1.187-1.187h1.188v1.187h-1.188v-1.187Zm1.188 1.187h1.187v1.188h-1.187v-1.188Zm1.187-1.187h1.188v1.187h-1.188v-1.187Zm1.188 1.187h1.187v1.188h-1.187v-1.188Zm1.187-1.187h1.188v1.187h-1.188v-1.187Zm1.188 3.562h1.187v1.188h-1.187v-1.188Zm-7.125 0h1.187v1.188h-1.187v-1.188Zm1.187-1.187h1.188v1.187h-1.188v-1.187Zm1.188 1.187h1.187v1.188h-1.187v-1.188Zm2.375 0h1.187v1.188h-1.187v-1.188Zm1.187-1.187h1.188v1.187h-1.188v-1.187Zm1.188 3.562h1.187v1.187h-1.187v-1.187Zm-7.125 0h1.187v1.187h-1.187v-1.187Zm1.187-1.187h1.188v1.187h-1.188v-1.187Zm2.375 0h1.188v1.187h-1.188v-1.187Zm1.188 1.187h1.187v1.187h-1.187v-1.187Zm1.187-1.187h1.188v1.187h-1.188v-1.187Zm1.188 3.562h1.187v1.187h-1.187v-1.187Zm-5.938-1.188h1.188v1.188h-1.188v-1.188Zm1.188 1.188h1.187v1.187h-1.187v-1.187Zm1.187-1.188h1.188v1.188h-1.188v-1.188Zm1.188 1.188h1.187v1.187h-1.187v-1.187Zm-3.563 1.187h1.188v1.188h-1.188v-1.188Zm2.375 0h1.188v1.188h-1.188v-1.188Zm2.375 0h1.188v1.188h-1.188v-1.188Z" fill="#1c345a" fill-rule="evenodd" data-name="Icon metro-qrcode"/></svg>