<svg xmlns="http://www.w3.org/2000/svg" width="27.713" height="23" viewBox="106.999 1083 27.713 23"><path d="M134.182 1095.364c-.703-1.593-2.03-2.859-3.57-3.638-2.718-1.377-6.098-1.369-8.81.034-1.882.967-3.455 2.699-3.9 4.806-.368 1.552-.039 3.223.784 4.574 1.226 2.034 3.44 3.333 5.74 3.75 1.667.339 3.39.138 5.01-.329.972.377 1.838.986 2.78 1.439a60.587 60.587 0 0 0-.78-2.427c1.057-.75 2.015-1.687 2.59-2.863.86-1.634.912-3.661.156-5.346Zm-11.459-10.93c-2.88-1.622-6.468-1.865-9.568-.745-2.036.733-3.88 2.096-5.018 3.949-1.033 1.674-1.42 3.762-.922 5.678.5 2.124 1.975 3.906 3.766 5.095a92.056 92.056 0 0 0-.987 2.95c1.126-.588 2.252-1.204 3.378-1.802 1.351.433 2.79.646 4.227.598a7.111 7.111 0 0 1-.295-3.407c.26-1.583 1.126-3.031 2.303-4.104 1.993-1.865 4.816-2.651 7.5-2.46-.503-2.466-2.235-4.55-4.415-5.751h.031Zm2.001 11.534c-.241.753-1.335.98-1.865.406-.584-.53-.356-1.637.41-1.874.848-.358 1.827.62 1.455 1.468Zm5.537.106c-.296.677-1.317.835-1.82.312-.241-.22-.312-.553-.397-.843.12-.529.485-1.077 1.074-1.103.814-.113 1.543.893 1.126 1.635h.017Zm-8.262-7.452c.01 1.11-1.472 1.802-2.303 1.05-.863-.618-.618-2.122.395-2.432.906-.364 1.978.397 1.906 1.368l.002.014Zm-6.996.282c-.199.964-1.49 1.429-2.247.782-.877-.617-.63-2.148.398-2.46 1.008-.388 2.154.635 1.849 1.678Z" fill="#fff" fill-rule="evenodd" data-name="Icon simple-wechat"/></svg>