<svg xmlns="http://www.w3.org/2000/svg" width="22.857" height="22.857" viewBox="41 1083 22.857 22.857"><g data-name="Symbol 62 – 17"><path d="m63.857 1103.845-4.744-4.744a9.843 9.843 0 0 0 2.013-6.038A10.001 10.001 0 0 0 51.063 1083 10.001 10.001 0 0 0 41 1093.063a10.001 10.001 0 0 0 10.063 10.063c2.3 0 4.313-.719 6.038-2.013l4.744 4.744 2.012-2.012Zm-19.982-10.782c0-4.025 3.163-7.188 7.188-7.188s7.188 3.163 7.188 7.188-3.163 7.188-7.188 7.188-7.188-3.163-7.188-7.188Z" fill="#1c345a" fill-rule="evenodd" data-name="Path 99"/></g></svg>