<svg xmlns="http://www.w3.org/2000/svg" width="210.344" height="107.025" viewBox="-19867.674 -23043.119 210.344 107.025"><g data-name="CompositeLayer"><g data-name="Group 6167"><path d="M-19867.674-22973.434v36.655h23.862v-5.616h-17.15v-31.039h-6.712Z" fill="#fff" fill-rule="evenodd" data-name="Path 2753"/><path d="M-19816.528-22946.12h-13.804l-3.59 9.341h-7.15l14.546-36.655h6.137l14.547 36.655h-7.096l-3.59-9.342Zm-6.957-18.493c-1.282 3.834-2.425 7.038-3.429 9.614l-1.253 3.262h9.474l-1.253-3.262c-.993-2.597-2.137-5.802-3.429-9.614h-.11Z" fill="#fff" fill-rule="evenodd" data-name="Path 2754"/><path d="M-19785.46-22936.094c-1.918 0-3.644-.187-5.178-.562-1.534-.374-2.886-.913-4.054-1.615a11.307 11.307 0 0 1-2.986-2.576 12.629 12.629 0 0 1-1.973-3.438c-.402-1.023-.69-2.155-.863-3.397-.174-1.242-.26-2.63-.26-4.164v-21.588h6.712v20.985c0 2.594.31 4.621.931 6.082.694 1.626 1.708 2.798 3.041 3.52s2.904 1.082 4.712 1.082c1.808 0 3.38-.36 4.712-1.083 1.333-.72 2.347-1.893 3.041-3.519.621-1.46.932-3.488.932-6.082v-20.985h6.711v21.588c0 1.534-.087 2.922-.26 4.164-.173 1.242-.46 2.374-.863 3.397a12.435 12.435 0 0 1-1.986 3.438 11.31 11.31 0 0 1-3.04 2.576c-1.197.702-2.572 1.241-4.124 1.615-1.553.375-3.287.562-5.205.562" fill="#fff" fill-rule="evenodd" data-name="Path 2755"/><path d="M-19742.257-22956.394c2.63 3.744 4.767 7.068 6.411 9.972h.164c-.219-4.767-.329-8.236-.329-10.41v-16.602h6.712v36.655h-7.04l-11.945-16.875c-2.1-2.922-4.274-6.31-6.52-10.164h-.165c.22 4.493.33 7.972.33 10.438v16.601h-6.713v-36.655h7.041l12.054 17.04Z" fill="#fff" fill-rule="evenodd" data-name="Path 2756"/><path d="M-19702.698-22968.448c-1.827 0-3.512.301-5.054.904-1.544.603-2.868 1.48-3.973 2.63-1.105 1.151-1.968 2.571-2.589 4.26-.62 1.69-.93 3.621-.93 5.794 0 2.156.282 4.05.848 5.685.566 1.634 1.38 3 2.438 4.095 1.06 1.096 2.351 1.922 3.877 2.48 1.525.557 3.255.835 5.191.835 1.388 0 2.803-.109 4.247-.328a24.487 24.487 0 0 0 4.054-.959v5.78a30.888 30.888 0 0 1-4.137.864 32.867 32.867 0 0 1-4.602.314c-3.105 0-5.835-.443-8.19-1.329-2.357-.886-4.325-2.137-5.905-3.752-1.58-1.618-2.767-3.553-3.562-5.808-.794-2.256-1.19-4.744-1.19-7.466 0-2.794.423-5.387 1.273-7.78.85-2.392 2.072-4.466 3.671-6.219 1.597-1.753 3.597-3.132 6-4.137 2.401-1.004 5.117-1.515 8.15-1.534 1.552 0 3.022.105 4.41.315 1.388.21 2.64.507 3.753.891v5.698c-1.46-.456-2.82-.776-4.082-.959a25.86 25.86 0 0 0-3.698-.274" fill="#fff" fill-rule="evenodd" data-name="Path 2757"/><path d="M-19681.028-22958.34h16.985v-15.094h6.712v36.655h-6.712v-15.944h-16.985v15.944h-6.712v-36.655h6.712v15.095Z" fill="#fff" fill-rule="evenodd" data-name="Path 2758"/></g><g data-name="Group 6166"><path d="M-19867.333-23043.119v3.704h7.805v20.47h4.426v-20.47h7.787v-3.704h-20.018Z" fill="#fff" fill-rule="evenodd" data-name="Path 2759"/><path d="M-19828.255-23043.119v9.954h-11.2v-9.954h-4.428v24.173h4.427v-10.515h11.201v10.515h4.426v-24.173h-4.426Z" fill="#fff" fill-rule="evenodd" data-name="Path 2760"/><path d="M-19818.048-23043.119v24.173h16.314v-3.703h-11.888v-6.812h9.648v-3.704h-9.648v-6.25h11.238v-3.704h-15.664Z" fill="#fff" fill-rule="evenodd" data-name="Path 2761"/><path d="M-19789.413-23043.119v24.173h4.426v-10.515h9.377v-3.704h-9.377v-6.25h10.967v-3.704h-15.393Z" fill="#fff" fill-rule="evenodd" data-name="Path 2762"/><path d="M-19760.127-23018.495c-1.265 0-2.403-.123-3.415-.37-1.01-.246-1.903-.602-2.673-1.066a7.454 7.454 0 0 1-1.97-1.698 8.349 8.349 0 0 1-1.3-2.267 9.811 9.811 0 0 1-.57-2.241 20.033 20.033 0 0 1-.17-2.746v-14.236h4.425v13.839c0 1.71.205 3.047.614 4.01.458 1.073 1.126 1.846 2.006 2.322.88.476 1.915.714 3.107.714 1.193 0 2.228-.238 3.108-.714.88-.476 1.547-1.25 2.005-2.321.41-.964.614-2.301.614-4.011v-13.84h4.427v14.237c0 1.012-.058 1.927-.172 2.746a9.917 9.917 0 0 1-.569 2.24 8.223 8.223 0 0 1-1.31 2.268 7.432 7.432 0 0 1-2.006 1.698c-.788.464-1.695.82-2.718 1.066-1.024.247-2.168.37-3.433.37" fill="#fff" fill-rule="evenodd" data-name="Path 2763"/><path d="M-19734.346-23018.946h-4.426v-20.469h-7.805v-3.704h20.018v3.704h-7.787v20.469Z" fill="#fff" fill-rule="evenodd" data-name="Path 2764"/><path d="M-19713.118-23018.495c-1.265 0-2.403-.123-3.415-.37-1.01-.246-1.903-.602-2.673-1.066a7.454 7.454 0 0 1-1.97-1.698 8.349 8.349 0 0 1-1.3-2.267 9.812 9.812 0 0 1-.57-2.241 20.034 20.034 0 0 1-.17-2.746v-14.236h4.425v13.839c0 1.71.205 3.047.614 4.01.458 1.073 1.126 1.846 2.006 2.322.88.476 1.915.714 3.107.714 1.193 0 2.228-.238 3.108-.714.88-.476 1.547-1.25 2.005-2.321.41-.964.614-2.301.614-4.011v-13.84h4.427v14.237c0 1.012-.058 1.927-.172 2.746a9.916 9.916 0 0 1-.569 2.24 8.223 8.223 0 0 1-1.31 2.268 7.432 7.432 0 0 1-2.006 1.698c-.788.464-1.695.82-2.718 1.066-1.024.247-2.168.37-3.433.37" fill="#fff" fill-rule="evenodd" data-name="Path 2765"/><path d="M-19679.334-23035.856c0 1.687-.466 3.117-1.4 4.29-.933 1.175-2.375 2.045-4.327 2.612v.072l7.191 9.937h-5.312l-6.576-9.36h-3.035v9.36h-4.426v-24.173h7.353c1.216 0 2.348.069 3.396.208 1.048.138 1.945.345 2.692.623 1.421.542 2.517 1.345 3.288 2.412.771 1.065 1.156 2.405 1.156 4.019m-11.273 3.848c1.012 0 1.87-.045 2.574-.135.705-.091 1.298-.226 1.78-.406.891-.338 1.508-.798 1.852-1.383.343-.584.515-1.256.515-2.014 0-.65-.136-1.225-.407-1.725-.27-.5-.73-.895-1.382-1.184-.422-.192-.952-.334-1.59-.424-.638-.09-1.427-.135-2.366-.135h-3.162v7.406h2.186Z" fill="#fff" fill-rule="evenodd" data-name="Path 2766"/><path d="M-19669.56-23022.65h11.888v3.704h-16.314v-24.173h15.663v3.704h-11.237v6.25h9.647v3.704h-9.647v6.812Z" fill="#fff" fill-rule="evenodd" data-name="Path 2767"/></g><g data-name="Group 6165"><path d="M-19866.295-23005.787h1.078v1.125h-1.078v-1.125Zm.07 3.69h.937v10.946h-.937v-10.945Z" fill="#fff" fill-rule="evenodd" data-name="Path 2768"/><path d="M-19861.983-22991.42v-.973c.844.46 1.836.692 2.977.692.93 0 1.666-.217 2.21-.651.542-.433.813-1.041.813-1.822 0-.594-.18-1.051-.539-1.371-.359-.32-.96-.582-1.805-.785-.773-.188-1.406-.383-1.898-.586a2.954 2.954 0 0 1-1.207-.891c-.313-.39-.469-.906-.469-1.547 0-1.023.344-1.783 1.031-2.28.688-.495 1.567-.743 2.637-.743a6.11 6.11 0 0 1 2.73.62v.915a7.64 7.64 0 0 0-1.318-.521 5.443 5.443 0 0 0-1.482-.182c-.883 0-1.553.184-2.01.55-.457.368-.686.887-.686 1.559 0 .469.108.834.323 1.096.214.262.51.463.884.604.375.14.942.304 1.7.492 1.054.265 1.822.623 2.302 1.072.481.449.721 1.092.721 1.928 0 1.03-.352 1.853-1.055 2.467-.703.613-1.664.919-2.882.919-1.313 0-2.305-.187-2.977-.562" fill="#fff" fill-rule="evenodd" data-name="Path 2769"/><path d="M-19848.706-23002.096h1.008c2.211 5.969 3.445 9.28 3.703 9.938h.094l3.832-9.938h1.008l-6.622 16.395h-1.007l2.191-5.356-4.207-11.04Z" fill="#fff" fill-rule="evenodd" data-name="Path 2770"/><path d="M-19837.22-22996.6c0-1.75.446-3.15 1.341-4.201.895-1.051 2.084-1.576 3.568-1.576 1.493 0 2.678.523 3.557 1.57.88 1.047 1.318 2.449 1.318 4.207 0 1.71-.449 3.096-1.347 4.154-.899 1.059-2.075 1.588-3.528 1.588-1.492 0-2.683-.521-3.574-1.564-.89-1.043-1.336-2.436-1.336-4.178m8.801 0c0-1.508-.352-2.705-1.055-3.592s-1.648-1.33-2.836-1.33c-1.203 0-2.158.442-2.865 1.324-.707.883-1.06 2.082-1.06 3.598 0 1.5.35 2.688 1.048 3.563.7.874 1.66 1.312 2.877 1.312 1.203 0 2.153-.436 2.848-1.307.695-.871 1.043-2.06 1.043-3.568" fill="#fff" fill-rule="evenodd" data-name="Path 2771"/><path d="M-19824.307-22995.346v-6.75h.937v6.984c0 1.203.28 2.069.838 2.596.56.527 1.32.79 2.28.79.687 0 1.263-.128 1.728-.386a2.487 2.487 0 0 0 1.043-1.066c.231-.453.346-1.113.346-1.981v-6.937h.937v6.773c0 .875-.078 1.563-.234 2.063a3.21 3.21 0 0 1-.797 1.318 3.359 3.359 0 0 1-1.3.826c-.493.172-1.05.258-1.676.258-.672 0-1.27-.1-1.793-.3a3.565 3.565 0 0 1-1.307-.831 3.223 3.223 0 0 1-.762-1.248c-.16-.476-.24-1.18-.24-2.11" fill="#fff" fill-rule="evenodd" data-name="Path 2772"/><path d="m-19811.51-23002.096.164 1.945h.023c.43-.64 1.042-1.172 1.834-1.593.793-.422 1.608-.633 2.444-.633h.305v.926h-.305c-.86 0-1.686.234-2.479.703-.793.468-1.392 1.082-1.799 1.84v7.757h-.937v-10.945h.75Z" fill="#fff" fill-rule="evenodd" data-name="Path 2773"/><path d="M-19805.276-22991.42v-.973c.844.46 1.836.692 2.977.692.93 0 1.666-.217 2.21-.651.542-.433.813-1.041.813-1.822 0-.594-.18-1.051-.539-1.371-.359-.32-.96-.582-1.805-.785-.773-.188-1.406-.383-1.898-.586a2.954 2.954 0 0 1-1.207-.891c-.313-.39-.469-.906-.469-1.547 0-1.023.344-1.783 1.031-2.28.688-.495 1.567-.743 2.637-.743a6.11 6.11 0 0 1 2.73.62v.915a7.64 7.64 0 0 0-1.318-.521 5.443 5.443 0 0 0-1.482-.182c-.883 0-1.553.184-2.01.55-.457.368-.686.887-.686 1.559 0 .469.108.834.323 1.096.214.262.51.463.884.604.375.14.942.304 1.7.492 1.054.265 1.822.623 2.302 1.072.481.449.721 1.092.721 1.928 0 1.03-.352 1.853-1.055 2.467-.703.613-1.664.919-2.882.919-1.313 0-2.305-.187-2.977-.562" fill="#fff" fill-rule="evenodd" data-name="Path 2774"/><path d="M-19790.463-23008.12h.937v16.97h-.937v-16.97z" fill="#fff" fill-rule="evenodd" data-name="Rectangle 1486"/><path d="M-19786.163-22996.74c0-1.141.2-2.137.598-2.99.398-.85.945-1.504 1.64-1.961a4.169 4.169 0 0 1 2.344-.686c1.281 0 2.305.42 3.07 1.26.766.84 1.15 2.162 1.15 3.967v.41h-7.818c0 1.726.38 2.994 1.137 3.802.758.809 1.824 1.213 3.2 1.213 1.171 0 2.202-.207 3.093-.621v.879c-.727.406-1.758.61-3.094.61-1.703 0-3.015-.512-3.937-1.536-.922-1.023-1.383-2.472-1.383-4.347m4.582-4.805c-.969 0-1.785.369-2.449 1.107-.664.739-1.039 1.69-1.125 2.854h6.832c-.024-1.297-.309-2.281-.856-2.953-.547-.672-1.347-1.008-2.402-1.008" fill="#fff" fill-rule="evenodd" data-name="Path 2775"/><path d="M-19773.424-22993.764v-7.441h-2.168v-.891h2.168v-2.93h.937v2.93h3.352v.89h-3.352v7.172c0 .844.165 1.44.493 1.788.328.347.843.52 1.547.52.617 0 1.113-.065 1.488-.198v.82c-.477.164-1.03.246-1.664.246-.875 0-1.56-.242-2.057-.726-.496-.485-.744-1.211-.744-2.18" fill="#fff" fill-rule="evenodd" data-name="Path 2776"/><path d="M-19761.67-22995.346v-6.75h.937v6.984c0 1.203.28 2.069.838 2.596.56.527 1.32.79 2.28.79.687 0 1.263-.128 1.728-.386a2.487 2.487 0 0 0 1.043-1.066c.231-.453.346-1.113.346-1.981v-6.937h.937v6.773c0 .875-.078 1.563-.234 2.063a3.21 3.21 0 0 1-.797 1.318 3.359 3.359 0 0 1-1.3.826c-.493.172-1.05.258-1.676.258-.672 0-1.27-.1-1.793-.3a3.565 3.565 0 0 1-1.307-.831 3.223 3.223 0 0 1-.762-1.248c-.16-.476-.24-1.18-.24-2.11" fill="#fff" fill-rule="evenodd" data-name="Path 2777"/><path d="M-19750.49-22991.42v-.973c.843.46 1.835.692 2.976.692.93 0 1.666-.217 2.21-.651.542-.433.813-1.041.813-1.822 0-.594-.18-1.051-.539-1.371-.359-.32-.96-.582-1.805-.785-.773-.188-1.406-.383-1.898-.586a2.954 2.954 0 0 1-1.207-.891c-.313-.39-.469-.906-.469-1.547 0-1.023.344-1.783 1.031-2.28.688-.495 1.567-.743 2.637-.743a6.11 6.11 0 0 1 2.73.62v.915a7.64 7.64 0 0 0-1.318-.521 5.443 5.443 0 0 0-1.482-.182c-.883 0-1.553.184-2.01.55-.457.368-.686.887-.686 1.559 0 .469.108.834.323 1.096.214.262.51.463.884.604.375.14.942.304 1.7.492 1.054.265 1.822.623 2.302 1.072.481.449.721 1.092.721 1.928 0 1.03-.352 1.853-1.055 2.467-.703.613-1.664.919-2.882.919-1.313 0-2.305-.187-2.977-.562" fill="#fff" fill-rule="evenodd" data-name="Path 2778"/><path d="M-19734.74-23008.12v6.552l-.048 1.254h.047c1-1.375 2.223-2.063 3.668-2.063 1.211 0 2.098.354 2.66 1.06.563.708.844 1.69.844 2.948v7.219h-.926v-7.301c0-.961-.213-1.713-.639-2.256-.425-.543-1.087-.814-1.986-.814-1.398 0-2.605.76-3.62 2.285v8.086h-.938v-16.97h.937Z" fill="#fff" fill-rule="evenodd" data-name="Path 2779"/><path d="M-19724.323-22996.74c0-1.141.2-2.137.598-2.99.398-.85.945-1.504 1.64-1.961a4.169 4.169 0 0 1 2.344-.686c1.281 0 2.305.42 3.07 1.26.766.84 1.15 2.162 1.15 3.967v.41h-7.818c0 1.726.38 2.994 1.137 3.802.758.809 1.824 1.213 3.2 1.213 1.171 0 2.202-.207 3.093-.621v.879c-.727.406-1.758.61-3.094.61-1.703 0-3.015-.512-3.937-1.536-.922-1.023-1.383-2.472-1.383-4.347m4.582-4.805c-.969 0-1.785.369-2.449 1.107-.664.739-1.039 1.69-1.125 2.854h6.832c-.024-1.297-.309-2.281-.856-2.953-.547-.672-1.347-1.008-2.402-1.008" fill="#fff" fill-rule="evenodd" data-name="Path 2780"/><path d="M-19711.9-23008.12h.937v16.97h-.937v-16.97z" fill="#fff" fill-rule="evenodd" data-name="Rectangle 1487"/><path d="m-19706.147-23002.095.293 1.277h.023c.375-.453.881-.826 1.518-1.12.636-.292 1.26-.44 1.87-.44 1.53 0 2.7.496 3.508 1.484.81.988 1.213 2.38 1.213 4.178 0 1.546-.265 2.755-.797 3.627-.53.87-1.15 1.46-1.857 1.769-.707.309-1.396.463-2.068.463-1.438 0-2.574-.45-3.41-1.348h-.024l.024 2.133v4.37h-.938v-16.393h.645Zm7.441 5.402c0-1.531-.328-2.72-.984-3.563-.657-.843-1.575-1.265-2.754-1.265a3.98 3.98 0 0 0-1.969.516c-.617.343-1.098.78-1.44 1.312v6.527c.53.508 1.06.875 1.586 1.102.528.226 1.127.34 1.8.34.913 0 1.77-.326 2.566-.98.797-.651 1.195-1.981 1.195-3.99" fill="#fff" fill-rule="evenodd" data-name="Path 2781"/><path d="M-19691.217-23002.096h1.008c2.211 5.969 3.445 9.28 3.703 9.938h.094l3.832-9.938h1.008l-6.622 16.395h-1.007l2.191-5.356-4.207-11.04Z" fill="#fff" fill-rule="evenodd" data-name="Path 2782"/><path d="M-19679.733-22996.6c0-1.75.447-3.15 1.342-4.201.895-1.051 2.084-1.576 3.568-1.576 1.493 0 2.678.523 3.557 1.57.88 1.047 1.318 2.449 1.318 4.207 0 1.71-.449 3.096-1.347 4.154-.899 1.059-2.075 1.588-3.528 1.588-1.492 0-2.683-.521-3.574-1.564-.89-1.043-1.336-2.436-1.336-4.178m8.801 0c0-1.508-.352-2.705-1.055-3.592s-1.648-1.33-2.836-1.33c-1.203 0-2.158.442-2.865 1.324-.707.883-1.06 2.082-1.06 3.598 0 1.5.35 2.688 1.048 3.563.7.874 1.66 1.312 2.877 1.312 1.203 0 2.153-.436 2.848-1.307.695-.871 1.043-2.06 1.043-3.568" fill="#fff" fill-rule="evenodd" data-name="Path 2783"/><path d="M-19666.819-22995.346v-6.75h.937v6.984c0 1.203.28 2.069.838 2.596.56.527 1.32.79 2.28.79.687 0 1.263-.128 1.728-.386a2.487 2.487 0 0 0 1.043-1.066c.231-.453.346-1.113.346-1.981v-6.937h.937v6.773c0 .875-.078 1.563-.234 2.063a3.21 3.21 0 0 1-.797 1.318 3.359 3.359 0 0 1-1.3.826c-.493.172-1.05.258-1.676.258-.672 0-1.27-.1-1.793-.3a3.565 3.565 0 0 1-1.307-.831 3.223 3.223 0 0 1-.762-1.248c-.16-.476-.24-1.18-.24-2.11" fill="#fff" fill-rule="evenodd" data-name="Path 2784"/></g></g></svg>