<svg xmlns="http://www.w3.org/2000/svg" width="276.999" height="72.725" viewBox="49.001 32.33 276.999 72.725"><g data-name="Group 4728"><g data-name="Group 4434"><g data-name="Group 4432"><path d="M164.524 64.067c-.411.158-.853.316-.853 1.263v10.01c0 7.137-6 8.843-9.947 8.843-4.326 0-10.232-.506-10.232-7.99v-10.39c0-.694-.379-1.42-.916-1.642l-1.673-.663c0-.284.031-1.578.126-1.925h10.958c.095.473.095 1.673.063 2.084l-2.116.378c-.63.126-.82.41-.82 1.01V75.34c0 4.927 3.378 5.684 5.873 5.684 2.305 0 4.737-1.074 4.737-6.441v-8.527c0-.757-.316-1.736-1.77-2.147l-1.357-.41c0-.285-.063-1.58.032-1.926h9.347c.095.473.158 1.578.126 1.988l-1.578.506Z" fill="#fff" fill-rule="evenodd" data-name="Path 1705"/><path d="M191.426 64.035c-.694.38-1.294 1.264-1.294 2.18v17.368l-4.137 1.263-12.126-16.421h-.221l.126 2.526v4.327l.095 4.767c0 .759.063 1.012.758 1.2l2.684.759c0 .284-.032 1.547-.158 1.894h-9.505c-.095-.473-.158-1.452-.126-1.863l1.515-.41c.98-.253 1.485-1.8 1.516-2.812l.063-3.535v-9.443c0-.695-.41-1.326-.916-1.61l-1.926-.98c0-.283-.032-1.325.063-1.672h7.327l11.778 15.536h.221l-.19-3.316v-7.547c0-.79-.536-1.705-1.168-2.021l-1.989-.98c0-.283 0-1.325.126-1.672h8.905c.064.473.127 1.2.127 1.61l-1.548.852Z" fill="#fff" fill-rule="evenodd" data-name="Path 1706"/><path d="M205.191 83.898h-10.547c-.19-.757-.094-1.231-.094-1.926l1.136-.316c.632-.221 1.484-.758 1.516-1.768l.095-4.864v-9.189c0-1.042-1.01-1.58-1.61-1.831l-1.137-.506c0-.694-.095-1.136.094-1.925h10.674c.063.82.031 1.547-.095 2.147l-1.39.347c-.915.253-1.136 1.105-1.136 1.705v9.252l.063 5.338c.032.6.158.758.727.947l1.925.442c0 .758 0 1.326-.22 2.147Z" fill="#fff" fill-rule="evenodd" data-name="Path 1707"/><path d="M231.369 84.657c-2.779.252-5.526 0-8.179-2.243-1.863-1.547-3.505-4.39-4.831-7.39l-.663.032H215.2l.095 4.99c0 .631.126.947.663 1.104l1.958.664c0 .284 0 1.737-.127 2.084h-10.736c-.063-.473-.127-1.547-.095-1.958l1.516-.347c.726-.158 1.2-1.105 1.232-1.958l.094-4.357v-9.664c0-.505-.253-1.042-.758-1.263l-2.052-.821c-.032-.252 0-1.547.157-1.957h12.38c4.452 0 8.525 1.736 8.525 6.41 0 2.21-1.326 4.547-3.883 5.904.694 1.453 1.673 3.348 2.936 4.99 1.232 1.61 2.684 2.937 4.421 3.285l-.158 2.495Zm-9.284-16.137c0-2.874-1.99-4.169-5.526-4.169h-1.39v8.116l2.305-.032c3.347-.031 4.58-1.168 4.58-3.915h.03Z" fill="#fff" fill-rule="evenodd" data-name="Path 1708"/><path d="M254.482 83.899h-9.979c-.252-.663-.284-1.168-.284-2.053l1.674-.6c.726-.252 1.042-.726 1.042-1.357 0-.412-.095-.727-.252-1.169l-1.074-3.284h-7.043l-1.136 3c-.158.473-.222.852-.222 1.2 0 1.073.664 1.39 1.17 1.547l2.273.663c0 .6 0 1.421-.19 2.053h-8.62c-.158-.537-.158-1.2-.158-1.894.726-.695 1.105-1.011 1.515-1.927l7.768-17.968 4.958-1.042 7.358 19.072c.316.758.884 1.327 1.42 1.895 0 .759-.03 1.232-.22 1.864Zm-11.273-15.79-.759-2.715h-.189l-.884 2.621-1.8 4.8h5.179l-1.547-4.706Z" fill="#fff" fill-rule="evenodd" data-name="Path 1709"/><path d="M280.374 64.035c-.695.38-1.294 1.264-1.294 2.18v17.368l-4.138 1.263-12.125-16.421h-.221l.126 2.526v4.327l.095 4.767c0 .759.062 1.012.758 1.2l2.684.759c0 .284-.032 1.547-.158 1.894h-9.505c-.095-.473-.158-1.452-.127-1.863l1.516-.41c.979-.253 1.484-1.8 1.516-2.812l.063-3.535v-9.443c0-.695-.41-1.326-.916-1.61l-1.926-.98c0-.283-.032-1.325.063-1.672h7.326l11.78 15.536h.22l-.19-3.316v-7.547c0-.79-.537-1.705-1.167-2.021l-1.99-.98c0-.283 0-1.325.126-1.672h8.905c.063.473.127 1.2.127 1.61l-1.548.852Z" fill="#fff" fill-rule="evenodd" data-name="Path 1710"/><path d="M306.424 84.277c-1.39 0-5.653-.253-8.053-2.968l-6.726-7.61v1.325l.063 5.338c.031.6.126.82.726.947l1.927.442c0 .758 0 1.326-.221 2.147h-10.548c-.126-.695-.095-1.231-.095-1.926l1.138-.316c.63-.221 1.484-.758 1.515-1.768l.094-4.864v-9.189c0-1.042-1.01-1.58-1.61-1.831l-1.137-.506c0-.694-.031-1.2.126-1.925h10.643c.063.82.031 1.547-.095 2.147l-1.39.347c-.915.221-1.136 1.105-1.136 1.705v6.568l6.253-5.968c.315-.284.473-.663.473-1.01 0-.6-.253-1.137-.631-1.327l-.884-.474c0-.726-.033-1.2.157-1.988h8.937v1.547l-9.726 8.463 4.579 4.674c1.926 1.989 3.916 3.946 6.157 5.494l-.536 2.526Z" fill="#fff" fill-rule="evenodd" data-name="Path 1711"/><path d="M316.242 84.246c-2.558 0-5.968-.537-8.179-1.895l.6-5.715h2.274c.252 3.094 2.842 4.736 5.778 4.736 1.232 0 3.695-.474 3.695-2.116 0-1.263-1.863-2.083-4.105-3.094-3.252-1.453-7.263-3.253-7.263-7.39 0-4.073 4.42-7.42 8.306-7.42 2.62 0 5.462.568 7.61 1.61v4.895h-2.053c-.632-2.526-3.063-3.505-5.463-3.505-1.706 0-3.38.537-3.38 2.526 0 1.358 2.37 2.242 4.99 3.379 3.285 1.42 6.948 3.19 6.948 6.789 0 5.147-5.369 7.2-9.758 7.2Z" fill="#fff" fill-rule="evenodd" data-name="Path 1712"/></g><g data-name="Group 4433"><path d="M140.903 93.788h1.094l1.373 4.267 1.414-4.284h.855l1.415 4.284 1.373-4.267h1.06l-2.005 5.797h-.872l-1.415-4.137-1.414 4.137h-.872l-2.006-5.797Z" fill="#b1b1b1" fill-rule="evenodd" data-name="Path 1713"/><path d="M149.954 96.682v-.016c0-1.62 1.25-2.978 3.018-2.978 1.768 0 3.001 1.34 3.001 2.961v.017c0 1.62-1.25 2.976-3.017 2.976-1.768 0-3.002-1.34-3.002-2.96Zm4.959 0v-.016c0-1.12-.814-2.048-1.957-2.048-1.143 0-1.941.912-1.941 2.031v.017c0 1.118.814 2.047 1.957 2.047 1.143 0 1.94-.913 1.94-2.031Z" fill="#b1b1b1" fill-rule="evenodd" data-name="Path 1714"/><path d="M157.197 93.788h2.566c.723 0 1.29.213 1.66.575.305.313.477.74.477 1.241v.016c0 .946-.567 1.514-1.373 1.744l1.554 2.18h-1.192l-1.415-2.008h-1.266v2.007h-1.011v-5.755Zm2.491 2.853c.724 0 1.184-.379 1.184-.963v-.016c0-.617-.444-.954-1.192-.954h-1.472v1.933h1.48Z" fill="#b1b1b1" fill-rule="evenodd" data-name="Path 1715"/><path d="M163.14 93.788h1.011v4.834h3.026v.921h-4.037v-5.755Z" fill="#b1b1b1" fill-rule="evenodd" data-name="Path 1716"/><path d="M168.229 93.788h2.146c1.809 0 3.059 1.24 3.059 2.86v.017c0 1.62-1.25 2.878-3.06 2.878h-2.145v-5.755Zm2.146 4.834c1.208 0 1.998-.813 1.998-1.94v-.017c0-1.127-.79-1.957-1.998-1.957h-1.135v3.914h1.135Z" fill="#b1b1b1" fill-rule="evenodd" data-name="Path 1717"/><path d="M174.237 95.686c.502-.09.74-.345.7-.772h-.42v-1.126h1.094v.961c0 .913-.436 1.3-1.267 1.366l-.107-.429Z" fill="#b1b1b1" fill-rule="evenodd" data-name="Path 1718"/><path d="m176.482 98.704.609-.723c.55.477 1.102.748 1.817.748.624 0 1.02-.287 1.02-.723v-.017c0-.411-.23-.633-1.3-.88-1.225-.296-1.916-.658-1.916-1.718v-.017c0-.986.823-1.67 1.965-1.67.839 0 1.505.256 2.09.725l-.543.765c-.518-.387-1.036-.593-1.563-.593-.592 0-.937.305-.937.682v.017c0 .444.263.642 1.365.904 1.217.297 1.85.733 1.85 1.687v.016c0 1.077-.847 1.719-2.056 1.719-.88 0-1.71-.305-2.4-.922Z" fill="#b1b1b1" fill-rule="evenodd" data-name="Path 1719"/><path d="M184.596 93.788h1.011v4.834h3.026v.921h-4.037v-5.755Z" fill="#b1b1b1" fill-rule="evenodd" data-name="Path 1720"/><path d="M191.724 93.747h.937l2.533 5.796h-1.07l-.584-1.39h-2.721l-.592 1.39h-1.037l2.534-5.796Zm1.447 3.51-.995-2.302-.987 2.302h1.982Z" fill="#b1b1b1" fill-rule="evenodd" data-name="Path 1721"/><path d="M196.179 93.788h2.566c.723 0 1.29.213 1.66.575.305.313.477.74.477 1.241v.016c0 .946-.567 1.514-1.373 1.744l1.555 2.18h-1.193l-1.415-2.008h-1.266v2.007h-1.011v-5.755Zm2.491 2.853c.724 0 1.184-.379 1.184-.963v-.016c0-.617-.444-.954-1.192-.954h-1.472v1.933h1.48Z" fill="#b1b1b1" fill-rule="evenodd" data-name="Path 1722"/><path d="M201.867 96.682v-.016c0-1.612 1.233-2.978 2.969-2.978 1.003 0 1.62.28 2.212.782l-.642.765c-.443-.379-.88-.617-1.612-.617-1.06 0-1.866.929-1.866 2.031v.017c0 1.184.781 2.055 1.957 2.055.543 0 1.036-.172 1.39-.436v-1.077h-1.472v-.88h2.45v2.418a3.672 3.672 0 0 1-2.4.896c-1.802 0-2.986-1.282-2.986-2.96Z" fill="#b1b1b1" fill-rule="evenodd" data-name="Path 1723"/><path d="M208.567 93.788h4.268v.903h-3.256v1.497h2.885v.905h-2.885v1.546h3.297v.904h-4.31v-5.755Z" fill="#b1b1b1" fill-rule="evenodd" data-name="Path 1724"/><path d="m213.688 98.704.609-.723c.55.477 1.102.748 1.817.748.625 0 1.02-.287 1.02-.723v-.017c0-.411-.23-.633-1.3-.88-1.224-.296-1.916-.658-1.916-1.718v-.017c0-.986.823-1.67 1.966-1.67.839 0 1.505.256 2.089.725l-.543.765c-.518-.387-1.036-.593-1.563-.593-.591 0-.937.305-.937.682v.017c0 .444.263.642 1.365.904 1.217.297 1.85.733 1.85 1.687v.016c0 1.077-.847 1.719-2.055 1.719-.88 0-1.711-.305-2.402-.922Z" fill="#b1b1b1" fill-rule="evenodd" data-name="Path 1725"/><path d="M220.627 94.725h-1.825v-.937h4.67v.937h-1.825v4.818h-1.02v-4.818Z" fill="#b1b1b1" fill-rule="evenodd" data-name="Path 1726"/><path d="M226.916 97.1v-3.312h1.011v3.272c0 1.07.55 1.644 1.456 1.644.896 0 1.447-.542 1.447-1.603v-3.313h1.011v3.264c0 1.718-.97 2.582-2.475 2.582-1.496 0-2.45-.864-2.45-2.533Z" fill="#b1b1b1" fill-rule="evenodd" data-name="Path 1727"/><path d="M233.229 93.788h.938l3.083 3.98v-3.98h.995v5.755h-.846l-3.175-4.095v4.095h-.995v-5.755Z" fill="#b1b1b1" fill-rule="evenodd" data-name="Path 1728"/><path d="M239.781 93.788h1.011v5.755h-1.01v-5.755Z" fill="#b1b1b1" fill-rule="evenodd" data-name="Path 1729"/><path d="M241.836 93.788h1.118l1.735 4.423 1.727-4.423h1.094l-2.394 5.796h-.888l-2.392-5.796Z" fill="#b1b1b1" fill-rule="evenodd" data-name="Path 1730"/><path d="M248.495 93.788h4.268v.903h-3.256v1.497h2.885v.905h-2.885v1.546h3.297v.904h-4.31v-5.755Z" fill="#b1b1b1" fill-rule="evenodd" data-name="Path 1731"/><path d="M254.003 93.788h2.565c.724 0 1.29.213 1.661.575.305.313.478.74.478 1.241v.016c0 .946-.568 1.514-1.374 1.744l1.554 2.18h-1.192l-1.415-2.008h-1.266v2.007h-1.011v-5.755Zm2.491 2.853c.724 0 1.185-.379 1.185-.963v-.016c0-.617-.444-.954-1.192-.954h-1.473v1.933h1.48Z" fill="#b1b1b1" fill-rule="evenodd" data-name="Path 1732"/><path d="m259.56 98.704.608-.723c.55.477 1.102.748 1.817.748.625 0 1.02-.287 1.02-.723v-.017c0-.411-.23-.633-1.3-.88-1.224-.296-1.916-.658-1.916-1.718v-.017c0-.986.823-1.67 1.966-1.67.839 0 1.505.256 2.09.725l-.544.765c-.518-.387-1.036-.593-1.562-.593-.592 0-.938.305-.938.682v.017c0 .444.264.642 1.366.904 1.216.297 1.85.733 1.85 1.687v.016c0 1.077-.848 1.719-2.056 1.719-.88 0-1.71-.305-2.402-.922Z" fill="#b1b1b1" fill-rule="evenodd" data-name="Path 1733"/><path d="M265.265 93.788h1.011v5.755h-1.011v-5.755Z" fill="#b1b1b1" fill-rule="evenodd" data-name="Path 1734"/><path d="M269.228 94.725h-1.826v-.937h4.67v.937h-1.825v4.818h-1.02v-4.818Z" fill="#b1b1b1" fill-rule="evenodd" data-name="Path 1735"/><path d="m274.834 97.274-2.286-3.486h1.192l1.612 2.548 1.628-2.548h1.16l-2.286 3.46v2.295h-1.02v-2.27Z" fill="#b1b1b1" fill-rule="evenodd" data-name="Path 1736"/><path d="M281.492 93.788h2.566c.723 0 1.29.213 1.66.575.305.313.478.74.478 1.241v.016c0 .946-.568 1.514-1.373 1.744l1.554 2.18h-1.193l-1.414-2.008h-1.266v2.007h-1.012v-5.755Zm2.491 2.853c.724 0 1.185-.379 1.185-.963v-.016c0-.617-.444-.954-1.193-.954h-1.471v1.933h1.48Z" fill="#b1b1b1" fill-rule="evenodd" data-name="Path 1737"/><path d="M289.475 93.747h.937l2.533 5.796h-1.069l-.583-1.39h-2.722l-.593 1.39h-1.036l2.533-5.796Zm1.447 3.51-.995-2.302-.987 2.302h1.982Z" fill="#b1b1b1" fill-rule="evenodd" data-name="Path 1738"/><path d="M293.93 93.788h.937l3.084 3.98v-3.98h.995v5.755h-.847l-3.174-4.095v4.095h-.995v-5.755Z" fill="#b1b1b1" fill-rule="evenodd" data-name="Path 1739"/><path d="M300.424 93.788h1.011v2.893l2.738-2.893h1.242l-2.392 2.474 2.5 3.281h-1.226l-1.966-2.59-.896.921v1.67h-1.011v-5.756Z" fill="#b1b1b1" fill-rule="evenodd" data-name="Path 1740"/><path d="M306.442 93.788h1.011v5.755h-1.011v-5.755Z" fill="#b1b1b1" fill-rule="evenodd" data-name="Path 1741"/><path d="M308.99 93.788h.937l3.084 3.98v-3.98h.995v5.755h-.847l-3.174-4.095v4.095h-.995v-5.755Z" fill="#b1b1b1" fill-rule="evenodd" data-name="Path 1742"/><path d="M315.23 96.682v-.016c0-1.612 1.232-2.978 2.968-2.978 1.003 0 1.62.28 2.211.782l-.64.765c-.444-.379-.88-.617-1.612-.617-1.061 0-1.867.929-1.867 2.031v.017c0 1.184.782 2.055 1.957 2.055.543 0 1.036-.172 1.39-.436v-1.077h-1.472v-.88h2.45v2.418a3.673 3.673 0 0 1-2.4.896c-1.801 0-2.986-1.282-2.986-2.96Z" fill="#b1b1b1" fill-rule="evenodd" data-name="Path 1743"/><path d="m321.543 98.704.608-.723c.551.477 1.102.748 1.817.748.625 0 1.02-.287 1.02-.723v-.017c0-.411-.23-.633-1.3-.88-1.225-.296-1.915-.658-1.915-1.718v-.017c0-.986.822-1.67 1.966-1.67.837 0 1.504.256 2.088.725l-.543.765c-.518-.387-1.036-.593-1.562-.593-.593 0-.938.305-.938.682v.017c0 .444.264.642 1.365.904 1.217.297 1.85.733 1.85 1.687v.016c0 1.077-.846 1.719-2.056 1.719-.879 0-1.71-.305-2.4-.922Z" fill="#b1b1b1" fill-rule="evenodd" data-name="Path 1744"/></g><path d="M140.903 89.578H326v.903H140.903v-.903z" fill="#b1b1b1" fill-rule="evenodd" data-name="Rectangle 1294"/></g><g data-name="Group 4447"><g data-name="Group 4436"><g data-name="Group 4435"><path d="M84.925 60.014c-.391.15-.814.302-.814 1.206v9.56c0 6.817-5.73 8.445-9.5 8.445-4.132 0-9.771-.482-9.771-7.63v-9.922c0-.664-.363-1.357-.875-1.569l-1.598-.633c0-.271.03-1.508.12-1.84h10.465c.091.453.091 1.599.06 1.991l-2.02.362c-.603.12-.784.392-.784.965v9.832c0 4.704 3.227 5.428 5.61 5.428 2.2 0 4.523-1.025 4.523-6.152v-8.143c0-.724-.301-1.659-1.689-2.051l-1.296-.392c0-.271-.061-1.508.03-1.84h8.927c.09.453.15 1.508.12 1.9l-1.508.483Z" fill="#fff" fill-rule="evenodd" data-name="Path 1745"/><path d="M111.073 79.677c-2.653.242-5.277 0-7.811-2.141-1.779-1.478-3.347-4.192-4.614-7.057l-.633.03h-2.383l.091 4.765c0 .603.12.905.633 1.056l1.87.633c0 .271 0 1.66-.121 1.991H87.85c-.06-.453-.12-1.478-.09-1.87l1.447-.332c.694-.151 1.146-1.055 1.177-1.87l.09-4.162v-9.228c0-.483-.241-.996-.724-1.207l-1.96-.784c-.03-.241 0-1.477.15-1.87h11.823c4.252 0 8.143 1.66 8.143 6.123 0 2.11-1.267 4.343-3.71 5.64.664 1.387 1.599 3.196 2.805 4.764 1.176 1.539 2.563 2.805 4.223 3.137l-.152 2.382Zm-8.866-15.41c0-2.745-1.9-3.982-5.278-3.982h-1.327v7.751l2.201-.03c3.198-.03 4.374-1.116 4.374-3.74h.03Z" fill="#fff" fill-rule="evenodd" data-name="Path 1746"/></g><path d="M86.815 41.716h-.04C71.91 41.728 59.82 53.824 59.82 68.692c0 14.875 12.101 26.976 26.976 26.976 14.876 0 26.977-12.1 26.977-26.976 0-14.868-12.091-26.964-26.957-26.976Zm16.096 7.228c-1.67.467-3.486.856-5.405 1.16-1.398-2.69-3.081-4.818-4.944-6.255a25.414 25.414 0 0 1 10.35 5.095Zm-15.378-5.71c3.174.344 6.16 2.91 8.432 7.097a70.332 70.332 0 0 1-8.432.582v-7.679Zm-6.504.615c-1.863 1.437-3.546 3.565-4.944 6.258a48.894 48.894 0 0 1-5.405-1.163 25.422 25.422 0 0 1 10.349-5.095Zm5.03-.615v7.677a69.789 69.789 0 0 1-8.434-.58c2.274-4.187 5.259-6.753 8.433-7.097ZM70.678 88.44a48.89 48.89 0 0 1 5.406-1.16c1.398 2.693 3.084 4.819 4.944 6.256a25.434 25.434 0 0 1-10.35-5.096Zm15.38 5.71c-3.173-.346-6.16-2.91-8.434-7.096a69.69 69.69 0 0 1 8.433-.58v7.676Zm6.503-.614c1.86-1.437 3.546-3.563 4.944-6.256 1.919.305 3.734.695 5.405 1.16a25.41 25.41 0 0 1-10.349 5.096Zm-5.03.614v-7.676c2.91.027 5.757.226 8.433.58-2.272 4.187-5.258 6.75-8.432 7.096Zm16.694-6.86c-1.845-.565-3.882-1.032-6.052-1.393a33.582 33.582 0 0 0 1.592-4.31h-1.54a31.914 31.914 0 0 1-1.56 4.077A70.901 70.901 0 0 0 87.533 85v-3.413h-1.475V85c-3.16.03-6.246.256-9.133.664a31.996 31.996 0 0 1-1.56-4.077h-1.54a33.591 33.591 0 0 0 1.592 4.31c-2.17.361-4.205.828-6.052 1.393-4.964-4.656-8.072-11.27-8.072-18.598 0-7.327 3.108-13.941 8.072-18.595 1.847.563 3.882 1.03 6.052 1.39a33.594 33.594 0 0 0-1.593 4.31h1.54c.456-1.469.98-2.83 1.561-4.076a70.33 70.33 0 0 0 9.133.663v3.414h1.475v-3.411a70.83 70.83 0 0 0 9.133-.666 31.834 31.834 0 0 1 1.56 4.077h1.54a33.585 33.585 0 0 0-1.592-4.31c2.17-.362 4.207-.828 6.052-1.39 4.963 4.653 8.071 11.267 8.071 18.594 0 7.327-3.108 13.942-8.07 18.598Z" fill="#fff" fill-rule="evenodd" data-name="Path 1747"/></g><g data-name="Group 4437"><path d="m56.752 67.503-2.425 1.73.945 2.825-2.396-1.77-2.395 1.77.945-2.825-2.425-1.73 2.979.026.896-2.842.897 2.842 2.979-.026Z" fill="#fff" fill-rule="evenodd" data-name="Path 1748"/></g><g data-name="Group 4438"><path d="m63.313 88.337-2.425 1.73.945 2.826-2.395-1.772-2.395 1.772.945-2.826-2.425-1.73 2.979.025.896-2.84.896 2.84 2.98-.025Z" fill="#b1b1b1" fill-rule="evenodd" data-name="Path 1749"/></g><g data-name="Group 4439"><path d="m78.573 39.7-2.395-1.77-2.395 1.77.945-2.825-2.425-1.73 2.979.026.896-2.841.896 2.84 2.979-.025-2.425 1.73.945 2.826Z" fill="#fff" fill-rule="evenodd" data-name="Path 1750"/></g><g data-name="Group 4440"><path d="m111.758 51.863.944-2.825-2.425-1.73 2.98.025.896-2.841.896 2.84 2.98-.024-2.426 1.73.945 2.825-2.395-1.771-2.395 1.771Z" fill="#fff" fill-rule="evenodd" data-name="Path 1751"/></g><g data-name="Group 4441"><path d="m110.445 87.182 2.98.025.896-2.84.896 2.84 2.979-.025-2.425 1.73.945 2.825-2.395-1.771-2.395 1.771.944-2.825-2.425-1.73Z" fill="#fff" fill-rule="evenodd" data-name="Path 1752"/></g><g data-name="Group 4442"><path d="m76.45 96.848.896 2.84 2.979-.025-2.425 1.73.945 2.826-2.395-1.772-2.395 1.772.944-2.825-2.425-1.73 2.98.025.896-2.841Z" fill="#fff" fill-rule="evenodd" data-name="Path 1753"/></g><g data-name="Group 4443"><path d="m97.413 97.684.896 2.84 2.98-.025-2.426 1.73.945 2.826-2.395-1.772-2.395 1.772.945-2.825-2.426-1.731 2.98.026.896-2.841Z" fill="#b1b1b1" fill-rule="evenodd" data-name="Path 1754"/></g><g data-name="Group 4444"><path d="m120.714 65.326.897 2.84 2.979-.025-2.425 1.73.944 2.826-2.395-1.771-2.395 1.771.945-2.825-2.425-1.73 2.979.025.896-2.841Z" fill="#b1b1b1" fill-rule="evenodd" data-name="Path 1755"/></g><g data-name="Group 4445"><path d="m97.141 33.165.897 2.842 2.979-.026-2.425 1.73.944 2.826-2.395-1.772-2.395 1.772.945-2.826-2.425-1.73 2.979.026.896-2.842Z" fill="#b1b1b1" fill-rule="evenodd" data-name="Path 1756"/></g><g data-name="Group 4446"><path d="m59.27 45.647.896 2.84 2.98-.025-2.425 1.731.944 2.825-2.395-1.771-2.395 1.771.945-2.825-2.425-1.73 2.979.025.896-2.841Z" fill="#b1b1b1" fill-rule="evenodd" data-name="Path 1757"/></g></g></g></svg>